999
dxfrw 0.6.3
  0
SECTION
  2
HEADER
  9
$ACADVER
  1
AC1009
  9
$DWGCODEPAGE
  3
ANSI_1252
  9
$INSBASE
 10
0
 20
0
 30
0
  9
$EXTMIN
 10
-300
 20
-250
 30
0
  9
$EXTMAX
 10
1300
 20
740
 30
0
  9
$LIMMIN
 10
0
 20
0
  9
$LIMMAX
 10
420
 20
297
  9
$ORTHOMODE
 70
    0
  9
$REGENMODE
 70
    1
  9
$FILLMODE
 70
    1
  9
$QTEXTMODE
 70
    0
  9
$MIRRTEXT
 70
    0
  9
$DRAGMODE
 70
    2
  9
$LTSCALE
 40
1
  9
$OSMODE
 70
    0
  9
$ATTMODE
 70
    0
  9
$TEXTSIZE
 40
2.5
  9
$TRACEWID
 40
15.68
  9
$TEXTSTYLE
  7
STANDARD
  9
$CLAYER
  8
BOITEINT
  9
$CELTYPE
  6
BYLAYER
  9
$CECOLOR
 62
  256
  9
$DIMSCALE
 40
1
  9
$DIMASZ
 40
2.5
  9
$DIMEXO
 40
0.625
  9
$DIMDLI
 40
3.75
  9
$DIMRND
 40
0
  9
$DIMDLE
 40
0
  9
$DIMEXE
 40
1.25
  9
$DIMTP
 40
0
  9
$DIMTM
 40
0
  9
$DIMTXT
 40
2.5
  9
$DIMCEN
 40
2.5
  9
$DIMTSZ
 40
0
  9
$DIMTOL
 70
    0
  9
$DIMLIM
 70
    0
  9
$DIMTIH
 70
    0
  9
$DIMTOH
 70
    0
  9
$DIMSE1
 70
    0
  9
$DIMSE2
 70
    0
  9
$DIMTAD
 70
    1
  9
$DIMZIN
 70
    8
  9
$DIMBLK
  1

  9
$DIMASO
 70
    1
  9
$DIMSHO
 70
    1
  9
$DIMPOST
  1

  9
$DIMAPOST
  1

  9
$DIMALT
 70
    0
  9
$DIMALTD
 70
    3
  9
$DIMALTF
 40
0.03937
  9
$DIMLFAC
 40
1
  9
$DIMTOFL
 70
    1
  9
$DIMTVP
 40
0
  9
$DIMTIX
 70
    0
  9
$DIMSOXD
 70
    0
  9
$DIMSAH
 70
    0
  9
$DIMBLK1
  1

  9
$DIMBLK2
  1

  9
$DIMSTYLE
  2
STANDARD
  9
$DIMCLRD
 70
    0
  9
$DIMCLRE
 70
    0
  9
$DIMCLRT
 70
    0
  9
$DIMTFAC
 40
1
  9
$DIMGAP
 40
0.625
  9
$LUNITS
 70
    2
  9
$LUPREC
 70
    4
  9
$SKETCHINC
 40
1
  9
$FILLETRAD
 40
0
  9
$AUNITS
 70
    0
  9
$AUPREC
 70
    2
  9
$MENU
  1
.
  9
$ELEVATION
 40
0
  9
$PELEVATION
 40
0
  9
$THICKNESS
 40
0
  9
$LIMCHECK
 70
    0
  9
$BLIPMODE
 70
    0
  9
$CHAMFERA
 40
0
  9
$CHAMFERB
 40
0
  9
$SKPOLY
 70
    0
  9
$USRTIMER
 70
    1
  9
$ANGBASE
 50
0
  9
$ANGDIR
 70
    0
  9
$PDMODE
 70
   34
  9
$PDSIZE
 40
0
  9
$PLINEWID
 40
0
  9
$COORDS
 70
    2
  9
$SPLFRAME
 70
    0
  9
$SPLINETYPE
 70
    2
  9
$SPLINESEGS
 70
    8
  9
$ATTDIA
 70
    1
  9
$ATTREQ
 70
    1
  9
$HANDLING
 70
    1
  9
$HANDSEED
  5
20000
  9
$SURFTAB1
 70
    6
  9
$SURFTAB2
 70
    6
  9
$SURFTYPE
 70
    6
  9
$SURFU
 70
    6
  9
$SURFV
 70
    6
  9
$UCSNAME
  2

  9
$UCSORG
 10
0
 20
0
 30
0
  9
$UCSXDIR
 10
1
 20
0
 30
0
  9
$UCSYDIR
 10
0
 20
1
 30
0
  9
$PUCSNAME
  2

  9
$PUCSORG
 10
0
 20
0
 30
0
  9
$PUCSXDIR
 10
1
 20
0
 30
0
  9
$PUCSYDIR
 10
0
 20
1
 30
0
  9
$USERI1
 70
    0
  9
$USERI2
 70
    0
  9
$USERI3
 70
    0
  9
$USERI4
 70
    0
  9
$USERI5
 70
    0
  9
$USERR1
 40
0
  9
$USERR2
 40
0
  9
$USERR3
 40
0
  9
$USERR4
 40
0
  9
$USERR5
 40
0
  9
$WORLDVIEW
 70
    1
  9
$SHADEDGE
 70
    3
  9
$SHADEDIF
 70
   70
  9
$TILEMODE
 70
    1
  9
$MAXACTVP
 70
   64
  9
$PLIMCHECK
 70
    0
  9
$PEXTMIN
 10
0
 20
0
 30
0
  9
$PEXTMAX
 10
0
 20
0
 30
0
  9
$GRIDMODE
 70
    1
  9
$SNAPSTYLE
 70
    0
  9
$PLIMMIN
 10
0
 20
0
  9
$PLIMMAX
 10
210
 20
297
  9
$UNITMODE
 70
    0
  9
$VISRETAIN
 70
    1
  9
$PLINEGEN
 70
    0
  9
$PSLTSCALE
 70
    1
  0
ENDSEC
  0
SECTION
  2
TABLES
  0
TABLE
  2
VPORT
 70
    1
  0
VPORT
  2
*ACTIVE
 70
    0
 10
0
 20
0
 11
1
 21
1
 12
-609.5241380075457
 22
-436.7713074492574
 13
0
 23
0
 14
10
 24
10
 15
10
 25
10
 16
0
 26
0
 36
1
 17
0
 27
0
 37
0
 40
169.4933431892641
 41
2.096153846153846
 42
50
 43
0
 44
0
 50
0
 51
0
 71
    0
 72
  100
 73
    1
 74
    3
 75
    0
 76
    1
 77
    0
 78
    0
  0
ENDTAB
  0
TABLE
  2
LTYPE
 70
    4
  0
LTYPE
  2
BYBLOCK
 70
    0
  3

 72
   65
 73
    0
 40
0
  0
LTYPE
  2
BYLAYER
 70
    0
  3

 72
   65
 73
    0
 40
0
  0
LTYPE
  2
CONTINUOUS
 70
    0
  3
Solid line
 72
   65
 73
    0
 40
0
  0
LTYPE
  2
DOT
 70
    0
  3
Dot . . . . . . . . . . . . . . . . . . . . . .
 72
   65
 73
    2
 40
6.35
 49
0
 49
-6.35
  0
LTYPE
  2
DOTTINY
 70
    0
  3
Dot (.15x) .....................................
 72
   65
 73
    2
 40
0.9525
 49
0
 49
-0.9525
  0
LTYPE
  2
DOT2
 70
    0
  3
Dot (.5x) .....................................
 72
   65
 73
    2
 40
3.175
 49
0
 49
-3.175
  0
LTYPE
  2
DOTX2
 70
    0
  3
Dot (2x) .  .  .  .  .  .  .  .  .  .  .  .  .
 72
   65
 73
    2
 40
12.7
 49
0
 49
-12.7
  0
LTYPE
  2
DASHED
 70
    0
  3
Dashed _ _ _ _ _ _ _ _ _ _ _ _ _ _ _ _ _
 72
   65
 73
    2
 40
19.05
 49
12.7
 49
-6.35
  0
LTYPE
  2
DASHEDTINY
 70
    0
  3
Dashed (.15x) _ _ _ _ _ _ _ _ _ _ _ _ _ _ _ _ _
 72
   65
 73
    2
 40
2.8575
 49
1.905
 49
-0.9525
  0
LTYPE
  2
DASHED2
 70
    0
  3
Dashed (.5x) _ _ _ _ _ _ _ _ _ _ _ _ _ _ _ _ _
 72
   65
 73
    2
 40
9.524999999999999
 49
6.35
 49
-3.175
  0
LTYPE
  2
DASHEDX2
 70
    0
  3
Dashed (2x) ____  ____  ____  ____  ____  ___
 72
   65
 73
    2
 40
38.09999999999999
 49
25.4
 49
-12.7
  0
LTYPE
  2
DASHDOT
 70
    0
  3
Dash dot __ . __ . __ . __ . __ . __ . __ . __
 72
   65
 73
    4
 40
25.4
 49
12.7
 49
-6.35
 49
0
 49
-6.35
  0
LTYPE
  2
DASHDOTTINY
 70
    0
  3
Dash dot (.15x) _._._._._._._._._._._._._._._.
 72
   65
 73
    4
 40
3.81
 49
1.905
 49
-0.9525
 49
0
 49
-0.9525
  0
LTYPE
  2
DASHDOT2
 70
    0
  3
Dash dot (.5x) _._._._._._._._._._._._._._._.
 72
   65
 73
    4
 40
12.7
 49
6.35
 49
-3.175
 49
0
 49
-3.175
  0
LTYPE
  2
DASHDOTX2
 70
    0
  3
Dash dot (2x) ____  .  ____  .  ____  .  ___
 72
   65
 73
    4
 40
50.8
 49
25.4
 49
-12.7
 49
0
 49
-12.7
  0
LTYPE
  2
DIVIDE
 70
    0
  3
Divide ____ . . ____ . . ____ . . ____ . . ____
 72
   65
 73
    6
 40
31.75
 49
12.7
 49
-6.35
 49
0
 49
-6.35
 49
0
 49
-6.35
  0
LTYPE
  2
DIVIDETINY
 70
    0
  3
Divide (.15x) __..__..__..__..__..__..__..__.._
 72
   65
 73
    6
 40
4.7625
 49
1.905
 49
-0.9525
 49
0
 49
-0.9525
 49
0
 49
-0.9525
  0
LTYPE
  2
DIVIDE2
 70
    0
  3
Divide (.5x) __..__..__..__..__..__..__..__.._
 72
   65
 73
    6
 40
15.875
 49
6.35
 49
-3.175
 49
0
 49
-3.175
 49
0
 49
-3.175
  0
LTYPE
  2
DIVIDEX2
 70
    0
  3
Divide (2x) ________  .  .  ________  .  .  _
 72
   65
 73
    6
 40
63.5
 49
25.4
 49
-12.7
 49
0
 49
-12.7
 49
0
 49
-12.7
  0
LTYPE
  2
BORDER
 70
    0
  3
Border __ __ . __ __ . __ __ . __ __ . __ __ .
 72
   65
 73
    6
 40
44.45
 49
12.7
 49
-6.35
 49
12.7
 49
-6.35
 49
0
 49
-6.35
  0
LTYPE
  2
BORDERTINY
 70
    0
  3
Border (.15x) __.__.__.__.__.__.__.__.__.__.__.
 72
   65
 73
    6
 40
6.6675
 49
1.905
 49
-0.9525
 49
1.905
 49
-0.9525
 49
0
 49
-0.9525
  0
LTYPE
  2
BORDER2
 70
    0
  3
Border (.5x) __.__.__.__.__.__.__.__.__.__.__.
 72
   65
 73
    6
 40
22.225
 49
6.35
 49
-3.175
 49
6.35
 49
-3.175
 49
0
 49
-3.175
  0
LTYPE
  2
BORDERX2
 70
    0
  3
Border (2x) ____  ____  .  ____  ____  .  ___
 72
   65
 73
    6
 40
88.89999999999999
 49
25.4
 49
-12.7
 49
25.4
 49
-12.7
 49
0
 49
-12.7
  0
LTYPE
  2
CENTER
 70
    0
  3
Center ____ _ ____ _ ____ _ ____ _ ____ _ ____
 72
   65
 73
    4
 40
50.8
 49
31.75
 49
-6.35
 49
6.35
 49
-6.35
  0
LTYPE
  2
CENTERTINY
 70
    0
  3
Center (.15x) ___ _ ___ _ ___ _ ___ _ ___ _ ___
 72
   65
 73
    4
 40
7.62
 49
4.7625
 49
-0.9525
 49
0.9525
 49
-0.9525
  0
LTYPE
  2
CENTER2
 70
    0
  3
Center (.5x) ___ _ ___ _ ___ _ ___ _ ___ _ ___
 72
   65
 73
    4
 40
28.575
 49
19.05
 49
-3.175
 49
3.175
 49
-3.175
  0
LTYPE
  2
CENTERX2
 70
    0
  3
Center (2x) ________  __  ________  __  _____
 72
   65
 73
    4
 40
101.6
 49
63.5
 49
-12.7
 49
12.7
 49
-12.7
  0
ENDTAB
  0
TABLE
  2
LAYER
 70
    1
  0
LAYER
  2
0
 70
    0
 62
    7
  6
CONTINUOUS
  0
LAYER
  2
BOITE
 70
    0
 62
  216
  6
CONTINUOUS
  0
LAYER
  2
BOITEINT
 70
    0
 62
    6
  6
CONTINUOUS
  0
ENDTAB
  0
TABLE
  2
STYLE
 70
    3
  0
STYLE
  2
STANDARD
 70
    0
 40
0
 41
1
 50
0
 71
    0
 42
1
  3
TXT
  4

  0
ENDTAB
  0
TABLE
  2
VIEW
 70
    0
  0
ENDTAB
  0
TABLE
  2
UCS
 70
    0
  0
ENDTAB
  0
TABLE
  2
APPID
 70
    1
  0
APPID
  2
ACAD
 70
    0
  0
APPID
  2
LIBRECAD
 70
    0
  0
ENDTAB
  0
TABLE
  2
DIMSTYLE
 70
    1
  0
DIMSTYLE
  2
STANDARD
 70
    0
  3

  4

  5

  6

  7

 40
1
 41
2.5
 42
0.625
 43
0.38
 44
1.25
 45
0
 46
0
 47
0
 48
0
 49
1
140
2.5
141
0.09
142
0
143
25.4
144
1
145
0
146
1
147
0.625
 71
    0
 72
    0
 73
    0
 74
    1
 75
    0
 76
    0
 77
    0
 78
    1
170
    0
171
    2
172
    0
173
    0
174
    0
175
    0
176
    0
177
    0
178
    0
  0
ENDTAB
  0
ENDSEC
  0
SECTION
  2
BLOCKS
  0
BLOCK
  8
0
  2
$MODEL_SPACE
 70
    0
 10
0
 20
0
 30
0
  3
$MODEL_SPACE
  1

  0
ENDBLK
  8
0
  0
BLOCK
  8
0
  2
$PAPER_SPACE
 70
    0
 10
0
 20
0
 30
0
  3
$PAPER_SPACE
  1

  0
ENDBLK
  8
0
  0
ENDSEC
  0
SECTION
  2
ENTITIES
  0
POLYLINE
  5
31
  8
BOITE
  6
BYLAYER
 62
  256
 66
    1
 10
0
 20
0
 30
0
 70
    1
  0
VERTEX
  5
32
  8
BOITE
  6
BYLAYER
 62
  256
 10
220
 20
-110
 30
0
  0
VERTEX
  5
33
  8
BOITE
  6
BYLAYER
 62
  256
 10
220
 20
-250
 30
0
  0
VERTEX
  5
34
  8
BOITE
  6
BYLAYER
 62
  256
 10
-60
 20
-250
 30
0
  0
VERTEX
  5
35
  8
BOITE
  6
BYLAYER
 62
  256
 10
-60
 20
-110
 30
0
  0
SEQEND
  5
36
  8
BOITE
  6
BYLAYER
 62
  256
  0
POLYLINE
  5
37
  8
BOITE
  6
BYLAYER
 62
  256
 66
    1
 10
0
 20
0
 30
0
 70
    1
  0
VERTEX
  5
38
  8
BOITE
  6
BYLAYER
 62
  256
 10
-90
 20
80
 30
0
  0
VERTEX
  5
39
  8
BOITE
  6
BYLAYER
 62
  256
 10
-100
 20
80
 30
0
  0
VERTEX
  5
3A
  8
BOITE
  6
BYLAYER
 62
  256
 10
-100
 20
110
 30
0
  0
VERTEX
  5
3B
  8
BOITE
  6
BYLAYER
 62
  256
 10
-90
 20
110
 30
0
  0
VERTEX
  5
3C
  8
BOITE
  6
BYLAYER
 62
  256
 10
-90
 20
130
 30
0
  0
VERTEX
  5
3D
  8
BOITE
  6
BYLAYER
 62
  256
 10
-110
 20
130
 30
0
  0
VERTEX
  5
3E
  8
BOITE
  6
BYLAYER
 62
  256
 10
-110
 20
140
 30
0
  0
VERTEX
  5
3F
  8
BOITE
  6
BYLAYER
 62
  256
 10
-130
 20
140
 30
0
  0
VERTEX
  5
40
  8
BOITE
  6
BYLAYER
 62
  256
 10
-130
 20
130
 30
0
  0
VERTEX
  5
41
  8
BOITE
  6
BYLAYER
 62
  256
 10
-150
 20
130
 30
0
  0
VERTEX
  5
42
  8
BOITE
  6
BYLAYER
 62
  256
 10
-150
 20
0
 30
0
  0
VERTEX
  5
43
  8
BOITE
  6
BYLAYER
 62
  256
 10
-130
 20
0
 30
0
  0
VERTEX
  5
44
  8
BOITE
  6
BYLAYER
 62
  256
 10
-130
 20
-10
 30
0
  0
VERTEX
  5
45
  8
BOITE
  6
BYLAYER
 62
  256
 10
-110
 20
-10
 30
0
  0
VERTEX
  5
46
  8
BOITE
  6
BYLAYER
 62
  256
 10
-110
 20
0
 30
0
  0
VERTEX
  5
47
  8
BOITE
  6
BYLAYER
 62
  256
 10
-90
 20
0
 30
0
  0
VERTEX
  5
48
  8
BOITE
  6
BYLAYER
 62
  256
 10
-90
 20
20
 30
0
  0
VERTEX
  5
49
  8
BOITE
  6
BYLAYER
 62
  256
 10
-100
 20
20
 30
0
  0
VERTEX
  5
4A
  8
BOITE
  6
BYLAYER
 62
  256
 10
-100
 20
50
 30
0
  0
VERTEX
  5
4B
  8
BOITE
  6
BYLAYER
 62
  256
 10
-90
 20
50
 30
0
  0
SEQEND
  5
4C
  8
BOITE
  6
BYLAYER
 62
  256
  0
POLYLINE
  5
4D
  8
BOITE
  6
BYLAYER
 62
  256
 66
    1
 10
0
 20
0
 30
0
 70
    1
  0
VERTEX
  5
4E
  8
BOITE
  6
BYLAYER
 62
  256
 10
240
 20
50
 30
0
  0
VERTEX
  5
4F
  8
BOITE
  6
BYLAYER
 62
  256
 10
240
 20
80
 30
0
  0
VERTEX
  5
50
  8
BOITE
  6
BYLAYER
 62
  256
 10
250
 20
80
 30
0
  0
VERTEX
  5
51
  8
BOITE
  6
BYLAYER
 62
  256
 10
250
 20
110
 30
0
  0
VERTEX
  5
52
  8
BOITE
  6
BYLAYER
 62
  256
 10
240
 20
110
 30
0
  0
VERTEX
  5
53
  8
BOITE
  6
BYLAYER
 62
  256
 10
240
 20
130
 30
0
  0
VERTEX
  5
54
  8
BOITE
  6
BYLAYER
 62
  256
 10
260
 20
130
 30
0
  0
VERTEX
  5
55
  8
BOITE
  6
BYLAYER
 62
  256
 10
260
 20
140
 30
0
  0
VERTEX
  5
56
  8
BOITE
  6
BYLAYER
 62
  256
 10
280
 20
140
 30
0
  0
VERTEX
  5
57
  8
BOITE
  6
BYLAYER
 62
  256
 10
280
 20
130
 30
0
  0
VERTEX
  5
58
  8
BOITE
  6
BYLAYER
 62
  256
 10
300
 20
130
 30
0
  0
VERTEX
  5
59
  8
BOITE
  6
BYLAYER
 62
  256
 10
300
 20
0
 30
0
  0
VERTEX
  5
5A
  8
BOITE
  6
BYLAYER
 62
  256
 10
280
 20
0
 30
0
  0
VERTEX
  5
5B
  8
BOITE
  6
BYLAYER
 62
  256
 10
280
 20
-10
 30
0
  0
VERTEX
  5
5C
  8
BOITE
  6
BYLAYER
 62
  256
 10
260
 20
-10
 30
0
  0
VERTEX
  5
5D
  8
BOITE
  6
BYLAYER
 62
  256
 10
260
 20
0
 30
0
  0
VERTEX
  5
5E
  8
BOITE
  6
BYLAYER
 62
  256
 10
240
 20
0
 30
0
  0
VERTEX
  5
5F
  8
BOITE
  6
BYLAYER
 62
  256
 10
240
 20
20
 30
0
  0
VERTEX
  5
60
  8
BOITE
  6
BYLAYER
 62
  256
 10
250
 20
20
 30
0
  0
VERTEX
  5
61
  8
BOITE
  6
BYLAYER
 62
  256
 10
250
 20
50
 30
0
  0
SEQEND
  5
62
  8
BOITE
  6
BYLAYER
 62
  256
  0
POLYLINE
  5
63
  8
BOITE
  6
BYLAYER
 62
  256
 66
    1
 10
0
 20
0
 30
0
 70
    1
  0
VERTEX
  5
64
  8
BOITE
  6
BYLAYER
 62
  256
 10
-50
 20
-30
 30
0
  0
VERTEX
  5
65
  8
BOITE
  6
BYLAYER
 62
  256
 10
-30
 20
-30
 30
0
  0
VERTEX
  5
66
  8
BOITE
  6
BYLAYER
 62
  256
 10
-30
 20
-40
 30
0
  0
VERTEX
  5
67
  8
BOITE
  6
BYLAYER
 62
  256
 10
0
 20
-40
 30
0
  0
VERTEX
  5
68
  8
BOITE
  6
BYLAYER
 62
  256
 10
0
 20
-30
 30
0
  0
VERTEX
  5
69
  8
BOITE
  6
BYLAYER
 62
  256
 10
30
 20
-30
 30
0
  0
VERTEX
  5
6A
  8
BOITE
  6
BYLAYER
 62
  256
 10
30
 20
-40
 30
0
  0
VERTEX
  5
6B
  8
BOITE
  6
BYLAYER
 62
  256
 10
60
 20
-40
 30
0
  0
VERTEX
  5
6C
  8
BOITE
  6
BYLAYER
 62
  256
 10
60
 20
-30
 30
0
  0
VERTEX
  5
6D
  8
BOITE
  6
BYLAYER
 62
  256
 10
100
 20
-30
 30
0
  0
VERTEX
  5
6E
  8
BOITE
  6
BYLAYER
 62
  256
 10
100
 20
-40
 30
0
  0
VERTEX
  5
6F
  8
BOITE
  6
BYLAYER
 62
  256
 10
130
 20
-40
 30
0
  0
VERTEX
  5
70
  8
BOITE
  6
BYLAYER
 62
  256
 10
130
 20
-30
 30
0
  0
VERTEX
  5
71
  8
BOITE
  6
BYLAYER
 62
  256
 10
160
 20
-30
 30
0
  0
VERTEX
  5
72
  8
BOITE
  6
BYLAYER
 62
  256
 10
160
 20
-40
 30
0
  0
VERTEX
  5
73
  8
BOITE
  6
BYLAYER
 62
  256
 10
190
 20
-40
 30
0
  0
VERTEX
  5
74
  8
BOITE
  6
BYLAYER
 62
  256
 10
190
 20
-30
 30
0
  0
VERTEX
  5
75
  8
BOITE
  6
BYLAYER
 62
  256
 10
210
 20
-30
 30
0
  0
VERTEX
  5
76
  8
BOITE
  6
BYLAYER
 62
  256
 10
220
 20
-30
 30
0
  0
VERTEX
  5
77
  8
BOITE
  6
BYLAYER
 62
  256
 10
220
 20
-50
 30
0
  0
VERTEX
  5
78
  8
BOITE
  6
BYLAYER
 62
  256
 10
210
 20
-50
 30
0
  0
VERTEX
  5
79
  8
BOITE
  6
BYLAYER
 62
  256
 10
210
 20
-70
 30
0
  0
VERTEX
  5
7A
  8
BOITE
  6
BYLAYER
 62
  256
 10
220
 20
-70
 30
0
  0
VERTEX
  5
7B
  8
BOITE
  6
BYLAYER
 62
  256
 10
220
 20
-90
 30
0
  0
VERTEX
  5
7C
  8
BOITE
  6
BYLAYER
 62
  256
 10
210
 20
-90
 30
0
  0
VERTEX
  5
7D
  8
BOITE
  6
BYLAYER
 62
  256
 10
-50
 20
-90
 30
0
  0
VERTEX
  5
7E
  8
BOITE
  6
BYLAYER
 62
  256
 10
-60
 20
-90
 30
0
  0
VERTEX
  5
7F
  8
BOITE
  6
BYLAYER
 62
  256
 10
-60
 20
-70
 30
0
  0
VERTEX
  5
80
  8
BOITE
  6
BYLAYER
 62
  256
 10
-50
 20
-70
 30
0
  0
VERTEX
  5
81
  8
BOITE
  6
BYLAYER
 62
  256
 10
-50
 20
-50
 30
0
  0
VERTEX
  5
82
  8
BOITE
  6
BYLAYER
 62
  256
 10
-60
 20
-50
 30
0
  0
VERTEX
  5
83
  8
BOITE
  6
BYLAYER
 62
  256
 10
-60
 20
-30
 30
0
  0
SEQEND
  5
84
  8
BOITE
  6
BYLAYER
 62
  256
  0
POLYLINE
  5
85
  8
BOITE
  6
BYLAYER
 62
  256
 66
    1
 10
0
 20
0
 30
0
 70
    1
  0
VERTEX
  5
86
  8
BOITE
  6
BYLAYER
 62
  256
 10
101
 20
-55
 30
0
  0
VERTEX
  5
87
  8
BOITE
  6
BYLAYER
 62
  256
 10
101
 20
-75
 30
0
  0
VERTEX
  5
88
  8
BOITE
  6
BYLAYER
 62
  256
 10
99
 20
-75
 30
0
  0
VERTEX
  5
89
  8
BOITE
  6
BYLAYER
 62
  256
 10
99
 20
-55
 30
0
  0
SEQEND
  5
8A
  8
BOITE
  6
BYLAYER
 62
  256
  0
POLYLINE
  5
8B
  8
BOITE
  6
BYLAYER
 62
  256
 66
    1
 10
0
 20
0
 30
0
 70
    1
  0
VERTEX
  5
8C
  8
BOITE
  6
BYLAYER
 62
  256
 10
60
 20
170
 30
0
  0
VERTEX
  5
8D
  8
BOITE
  6
BYLAYER
 62
  256
 10
60
 20
160
 30
0
  0
VERTEX
  5
8E
  8
BOITE
  6
BYLAYER
 62
  256
 10
100
 20
160
 30
0
  0
VERTEX
  5
8F
  8
BOITE
  6
BYLAYER
 62
  256
 10
100
 20
170
 30
0
  0
VERTEX
  5
90
  8
BOITE
  6
BYLAYER
 62
  256
 10
130
 20
170
 30
0
  0
VERTEX
  5
91
  8
BOITE
  6
BYLAYER
 62
  256
 10
130
 20
160
 30
0
  0
VERTEX
  5
92
  8
BOITE
  6
BYLAYER
 62
  256
 10
160
 20
160
 30
0
  0
VERTEX
  5
93
  8
BOITE
  6
BYLAYER
 62
  256
 10
160
 20
170
 30
0
  0
VERTEX
  5
94
  8
BOITE
  6
BYLAYER
 62
  256
 10
190
 20
170
 30
0
  0
VERTEX
  5
95
  8
BOITE
  6
BYLAYER
 62
  256
 10
190
 20
160
 30
0
  0
VERTEX
  5
96
  8
BOITE
  6
BYLAYER
 62
  256
 10
210
 20
160
 30
0
  0
VERTEX
  5
97
  8
BOITE
  6
BYLAYER
 62
  256
 10
220
 20
160
 30
0
  0
VERTEX
  5
98
  8
BOITE
  6
BYLAYER
 62
  256
 10
220
 20
180
 30
0
  0
VERTEX
  5
99
  8
BOITE
  6
BYLAYER
 62
  256
 10
210
 20
180
 30
0
  0
VERTEX
  5
9A
  8
BOITE
  6
BYLAYER
 62
  256
 10
210
 20
200
 30
0
  0
VERTEX
  5
9B
  8
BOITE
  6
BYLAYER
 62
  256
 10
220
 20
200
 30
0
  0
VERTEX
  5
9C
  8
BOITE
  6
BYLAYER
 62
  256
 10
220
 20
230
 30
0
  0
VERTEX
  5
9D
  8
BOITE
  6
BYLAYER
 62
  256
 10
-60
 20
230
 30
0
  0
VERTEX
  5
9E
  8
BOITE
  6
BYLAYER
 62
  256
 10
-60
 20
200
 30
0
  0
VERTEX
  5
9F
  8
BOITE
  6
BYLAYER
 62
  256
 10
-50
 20
200
 30
0
  0
VERTEX
  5
A0
  8
BOITE
  6
BYLAYER
 62
  256
 10
-50
 20
180
 30
0
  0
VERTEX
  5
A1
  8
BOITE
  6
BYLAYER
 62
  256
 10
-60
 20
180
 30
0
  0
VERTEX
  5
A2
  8
BOITE
  6
BYLAYER
 62
  256
 10
-60
 20
160
 30
0
  0
VERTEX
  5
A3
  8
BOITE
  6
BYLAYER
 62
  256
 10
-50
 20
160
 30
0
  0
VERTEX
  5
A4
  8
BOITE
  6
BYLAYER
 62
  256
 10
-30
 20
160
 30
0
  0
VERTEX
  5
A5
  8
BOITE
  6
BYLAYER
 62
  256
 10
-30
 20
170
 30
0
  0
VERTEX
  5
A6
  8
BOITE
  6
BYLAYER
 62
  256
 10
0
 20
170
 30
0
  0
VERTEX
  5
A7
  8
BOITE
  6
BYLAYER
 62
  256
 10
0
 20
160
 30
0
  0
VERTEX
  5
A8
  8
BOITE
  6
BYLAYER
 62
  256
 10
30
 20
160
 30
0
  0
VERTEX
  5
A9
  8
BOITE
  6
BYLAYER
 62
  256
 10
30
 20
170
 30
0
  0
SEQEND
  5
AA
  8
BOITE
  6
BYLAYER
 62
  256
  0
POLYLINE
  5
AB
  8
BOITE
  6
BYLAYER
 62
  256
 66
    1
 10
0
 20
0
 30
0
 70
    1
  0
VERTEX
  5
AC
  8
BOITE
  6
BYLAYER
 62
  256
 10
100
 20
140
 30
0
  0
VERTEX
  5
AD
  8
BOITE
  6
BYLAYER
 62
  256
 10
100
 20
130
 30
0
  0
VERTEX
  5
AE
  8
BOITE
  6
BYLAYER
 62
  256
 10
60
 20
130
 30
0
  0
VERTEX
  5
AF
  8
BOITE
  6
BYLAYER
 62
  256
 10
60
 20
140
 30
0
  0
VERTEX
  5
B0
  8
BOITE
  6
BYLAYER
 62
  256
 10
30
 20
140
 30
0
  0
VERTEX
  5
B1
  8
BOITE
  6
BYLAYER
 62
  256
 10
30
 20
130
 30
0
  0
VERTEX
  5
B2
  8
BOITE
  6
BYLAYER
 62
  256
 10
0
 20
130
 30
0
  0
VERTEX
  5
B3
  8
BOITE
  6
BYLAYER
 62
  256
 10
0
 20
140
 30
0
  0
VERTEX
  5
B4
  8
BOITE
  6
BYLAYER
 62
  256
 10
-30
 20
140
 30
0
  0
VERTEX
  5
B5
  8
BOITE
  6
BYLAYER
 62
  256
 10
-30
 20
130
 30
0
  0
VERTEX
  5
B6
  8
BOITE
  6
BYLAYER
 62
  256
 10
-50
 20
130
 30
0
  0
VERTEX
  5
B7
  8
BOITE
  6
BYLAYER
 62
  256
 10
-50
 20
110
 30
0
  0
VERTEX
  5
B8
  8
BOITE
  6
BYLAYER
 62
  256
 10
-60
 20
110
 30
0
  0
VERTEX
  5
B9
  8
BOITE
  6
BYLAYER
 62
  256
 10
-60
 20
80
 30
0
  0
VERTEX
  5
BA
  8
BOITE
  6
BYLAYER
 62
  256
 10
-50
 20
80
 30
0
  0
VERTEX
  5
BB
  8
BOITE
  6
BYLAYER
 62
  256
 10
-50
 20
50
 30
0
  0
VERTEX
  5
BC
  8
BOITE
  6
BYLAYER
 62
  256
 10
-60
 20
50
 30
0
  0
VERTEX
  5
BD
  8
BOITE
  6
BYLAYER
 62
  256
 10
-60
 20
20
 30
0
  0
VERTEX
  5
BE
  8
BOITE
  6
BYLAYER
 62
  256
 10
-50
 20
20
 30
0
  0
VERTEX
  5
BF
  8
BOITE
  6
BYLAYER
 62
  256
 10
-50
 20
0
 30
0
  0
VERTEX
  5
C0
  8
BOITE
  6
BYLAYER
 62
  256
 10
-30
 20
0
 30
0
  0
VERTEX
  5
C1
  8
BOITE
  6
BYLAYER
 62
  256
 10
-30
 20
-10
 30
0
  0
VERTEX
  5
C2
  8
BOITE
  6
BYLAYER
 62
  256
 10
0
 20
-10
 30
0
  0
VERTEX
  5
C3
  8
BOITE
  6
BYLAYER
 62
  256
 10
0
 20
0
 30
0
  0
VERTEX
  5
C4
  8
BOITE
  6
BYLAYER
 62
  256
 10
30
 20
0
 30
0
  0
VERTEX
  5
C5
  8
BOITE
  6
BYLAYER
 62
  256
 10
30
 20
-10
 30
0
  0
VERTEX
  5
C6
  8
BOITE
  6
BYLAYER
 62
  256
 10
60
 20
-10
 30
0
  0
VERTEX
  5
C7
  8
BOITE
  6
BYLAYER
 62
  256
 10
60
 20
0
 30
0
  0
VERTEX
  5
C8
  8
BOITE
  6
BYLAYER
 62
  256
 10
100
 20
0
 30
0
  0
VERTEX
  5
C9
  8
BOITE
  6
BYLAYER
 62
  256
 10
100
 20
-10
 30
0
  0
VERTEX
  5
CA
  8
BOITE
  6
BYLAYER
 62
  256
 10
130
 20
-10
 30
0
  0
VERTEX
  5
CB
  8
BOITE
  6
BYLAYER
 62
  256
 10
130
 20
0
 30
0
  0
VERTEX
  5
CC
  8
BOITE
  6
BYLAYER
 62
  256
 10
160
 20
0
 30
0
  0
VERTEX
  5
CD
  8
BOITE
  6
BYLAYER
 62
  256
 10
160
 20
-10
 30
0
  0
VERTEX
  5
CE
  8
BOITE
  6
BYLAYER
 62
  256
 10
190
 20
-10
 30
0
  0
VERTEX
  5
CF
  8
BOITE
  6
BYLAYER
 62
  256
 10
190
 20
0
 30
0
  0
VERTEX
  5
D0
  8
BOITE
  6
BYLAYER
 62
  256
 10
210
 20
0
 30
0
  0
VERTEX
  5
D1
  8
BOITE
  6
BYLAYER
 62
  256
 10
210
 20
20
 30
0
  0
VERTEX
  5
D2
  8
BOITE
  6
BYLAYER
 62
  256
 10
220
 20
20
 30
0
  0
VERTEX
  5
D3
  8
BOITE
  6
BYLAYER
 62
  256
 10
220
 20
50
 30
0
  0
VERTEX
  5
D4
  8
BOITE
  6
BYLAYER
 62
  256
 10
210
 20
50
 30
0
  0
VERTEX
  5
D5
  8
BOITE
  6
BYLAYER
 62
  256
 10
210
 20
80
 30
0
  0
VERTEX
  5
D6
  8
BOITE
  6
BYLAYER
 62
  256
 10
220
 20
80
 30
0
  0
VERTEX
  5
D7
  8
BOITE
  6
BYLAYER
 62
  256
 10
220
 20
110
 30
0
  0
VERTEX
  5
D8
  8
BOITE
  6
BYLAYER
 62
  256
 10
210
 20
110
 30
0
  0
VERTEX
  5
D9
  8
BOITE
  6
BYLAYER
 62
  256
 10
210
 20
130
 30
0
  0
VERTEX
  5
DA
  8
BOITE
  6
BYLAYER
 62
  256
 10
190
 20
130
 30
0
  0
VERTEX
  5
DB
  8
BOITE
  6
BYLAYER
 62
  256
 10
190
 20
140
 30
0
  0
VERTEX
  5
DC
  8
BOITE
  6
BYLAYER
 62
  256
 10
160
 20
140
 30
0
  0
VERTEX
  5
DD
  8
BOITE
  6
BYLAYER
 62
  256
 10
160
 20
130
 30
0
  0
VERTEX
  5
DE
  8
BOITE
  6
BYLAYER
 62
  256
 10
130
 20
130
 30
0
  0
VERTEX
  5
DF
  8
BOITE
  6
BYLAYER
 62
  256
 10
130
 20
140
 30
0
  0
SEQEND
  5
E0
  8
BOITE
  6
BYLAYER
 62
  256
  0
CIRCLE
  5
E1
  8
0
  6
BYLAYER
 62
  256
 10
45
 20
10
 40
1.5
  0
CIRCLE
  5
E2
  8
0
  6
BYLAYER
 62
  256
 10
45
 20
30
 40
1.5
  0
CIRCLE
  5
E3
  8
0
  6
BYLAYER
 62
  256
 10
45
 20
10
 40
1.5
  0
CIRCLE
  5
E4
  8
0
  6
BYLAYER
 62
  256
 10
155
 20
10
 40
1.5
  0
CIRCLE
  5
E5
  8
0
  6
BYLAYER
 62
  256
 10
155
 20
30
 40
1.5
  0
CIRCLE
  5
E6
  8
0
  6
BYLAYER
 62
  256
 10
-37
 20
83
 40
1.5
  0
CIRCLE
  5
E7
  8
0
  6
BYLAYER
 62
  256
 10
22.99999999999999
 20
83
 40
1.5
  0
CIRCLE
  5
E8
  8
0
  6
BYLAYER
 62
  256
 10
-37
 20
13.00000000000001
 40
1.5
  0
CIRCLE
  5
E9
  8
0
  6
BYLAYER
 62
  256
 10
23
 20
13
 40
1.5
  0
POLYLINE
  5
EA
  8
0
  6
BYLAYER
 62
  256
 66
    1
 10
0
 20
0
 30
0
 70
    1
  0
VERTEX
  5
EB
  8
0
  6
BYLAYER
 62
  256
 10
40
 20
5
 30
0
  0
VERTEX
  5
EC
  8
0
  6
BYLAYER
 62
  256
 10
40
 20
48
 30
0
  0
VERTEX
  5
ED
  8
0
  6
BYLAYER
 62
  256
 10
160
 20
48
 30
0
  0
VERTEX
  5
EE
  8
0
  6
BYLAYER
 62
  256
 10
160
 20
5
 30
0
  0
SEQEND
  5
EF
  8
0
  6
BYLAYER
 62
  256
  0
POLYLINE
  5
F0
  8
0
  6
BYLAYER
 62
  256
 66
    1
 10
0
 20
0
 30
0
 70
    1
  0
VERTEX
  5
F1
  8
0
  6
BYLAYER
 62
  256
 10
26
 20
86
 30
0
  0
VERTEX
  5
F2
  8
0
  6
BYLAYER
 62
  256
 10
26
 20
10
 30
0
  0
VERTEX
  5
F3
  8
0
  6
BYLAYER
 62
  256
 10
-40
 20
10
 30
0
  0
VERTEX
  5
F4
  8
0
  6
BYLAYER
 62
  256
 10
-40
 20
86
 30
0
  0
SEQEND
  5
F5
  8
0
  6
BYLAYER
 62
  256
  0
POLYLINE
  5
F6
  8
0
  6
BYLAYER
 62
  256
 66
    1
 10
0
 20
0
 30
0
 70
    1
  0
VERTEX
  5
F7
  8
0
  6
BYLAYER
 62
  256
 10
200
 20
110
 30
0
  0
VERTEX
  5
F8
  8
0
  6
BYLAYER
 62
  256
 10
200
 20
10
 30
0
  0
VERTEX
  5
F9
  8
0
  6
BYLAYER
 62
  256
 10
170
 20
10
 30
0
  0
VERTEX
  5
FA
  8
0
  6
BYLAYER
 62
  256
 10
170
 20
110
 30
0
  0
SEQEND
  5
FB
  8
0
  6
BYLAYER
 62
  256
  0
POLYLINE
  5
FC
  8
0
  6
BYLAYER
 62
  256
 66
    1
 10
0
 20
0
 30
0
 70
    1
  0
VERTEX
  5
FD
  8
0
  6
BYLAYER
 62
  256
 10
140
 20
120
 30
0
  0
VERTEX
  5
FE
  8
0
  6
BYLAYER
 62
  256
 10
140
 20
60
 30
0
  0
VERTEX
  5
FF
  8
0
  6
BYLAYER
 62
  256
 10
60
 20
60
 30
0
  0
VERTEX
  5
100
  8
0
  6
BYLAYER
 62
  256
 10
60
 20
120
 30
0
  0
SEQEND
  5
101
  8
0
  6
BYLAYER
 62
  256
  0
POLYLINE
  5
102
  8
BOITEINT
  6
BYLAYER
 62
  256
 66
    1
 10
0
 20
0
 30
0
 70
    0
  0
VERTEX
  5
103
  8
BOITEINT
  6
BYLAYER
 62
  256
 10
1270
 20
350
 30
0
  0
VERTEX
  5
104
  8
BOITEINT
  6
BYLAYER
 62
  256
 10
1250
 20
350
 30
0
  0
VERTEX
  5
105
  8
BOITEINT
  6
BYLAYER
 62
  256
 10
1250
 20
360
 30
0
  0
VERTEX
  5
106
  8
BOITEINT
  6
BYLAYER
 62
  256
 10
1220
 20
360
 30
0
  0
VERTEX
  5
107
  8
BOITEINT
  6
BYLAYER
 62
  256
 10
1220
 20
350
 30
0
  0
VERTEX
  5
108
  8
BOITEINT
  6
BYLAYER
 62
  256
 10
1190
 20
350
 30
0
  0
VERTEX
  5
109
  8
BOITEINT
  6
BYLAYER
 62
  256
 10
1190
 20
360
 30
0
  0
VERTEX
  5
10A
  8
BOITEINT
  6
BYLAYER
 62
  256
 10
1160
 20
360
 30
0
  0
VERTEX
  5
10B
  8
BOITEINT
  6
BYLAYER
 62
  256
 10
1160
 20
350
 30
0
  0
VERTEX
  5
10C
  8
BOITEINT
  6
BYLAYER
 62
  256
 10
1120
 20
350
 30
0
  0
VERTEX
  5
10D
  8
BOITEINT
  6
BYLAYER
 62
  256
 10
1120
 20
360
 30
0
  0
VERTEX
  5
10E
  8
BOITEINT
  6
BYLAYER
 62
  256
 10
1090
 20
360
 30
0
  0
VERTEX
  5
10F
  8
BOITEINT
  6
BYLAYER
 62
  256
 10
1090
 20
350
 30
0
  0
VERTEX
  5
110
  8
BOITEINT
  6
BYLAYER
 62
  256
 10
1060
 20
350
 30
0
  0
VERTEX
  5
111
  8
BOITEINT
  6
BYLAYER
 62
  256
 10
1060
 20
360
 30
0
  0
VERTEX
  5
112
  8
BOITEINT
  6
BYLAYER
 62
  256
 10
1030
 20
360
 30
0
  0
VERTEX
  5
113
  8
BOITEINT
  6
BYLAYER
 62
  256
 10
1030
 20
350
 30
0
  0
VERTEX
  5
114
  8
BOITEINT
  6
BYLAYER
 62
  256
 10
1010
 20
350
 30
0
  0
SEQEND
  5
115
  8
BOITEINT
  6
BYLAYER
 62
  256
  0
POLYLINE
  5
116
  8
BOITEINT
  6
BYLAYER
 62
  256
 66
    1
 10
0
 20
0
 30
0
 70
    0
  0
VERTEX
  5
117
  8
BOITEINT
  6
BYLAYER
 62
  256
 10
1010
 20
220
 30
0
  0
VERTEX
  5
118
  8
BOITEINT
  6
BYLAYER
 62
  256
 10
1030
 20
220
 30
0
  0
VERTEX
  5
119
  8
BOITEINT
  6
BYLAYER
 62
  256
 10
1030
 20
210
 30
0
  0
VERTEX
  5
11A
  8
BOITEINT
  6
BYLAYER
 62
  256
 10
1060
 20
210
 30
0
  0
VERTEX
  5
11B
  8
BOITEINT
  6
BYLAYER
 62
  256
 10
1060
 20
220
 30
0
  0
VERTEX
  5
11C
  8
BOITEINT
  6
BYLAYER
 62
  256
 10
1090
 20
220
 30
0
  0
VERTEX
  5
11D
  8
BOITEINT
  6
BYLAYER
 62
  256
 10
1090
 20
210
 30
0
  0
VERTEX
  5
11E
  8
BOITEINT
  6
BYLAYER
 62
  256
 10
1120
 20
210
 30
0
  0
VERTEX
  5
11F
  8
BOITEINT
  6
BYLAYER
 62
  256
 10
1120
 20
220
 30
0
  0
VERTEX
  5
120
  8
BOITEINT
  6
BYLAYER
 62
  256
 10
1160
 20
220
 30
0
  0
VERTEX
  5
121
  8
BOITEINT
  6
BYLAYER
 62
  256
 10
1160
 20
210
 30
0
  0
VERTEX
  5
122
  8
BOITEINT
  6
BYLAYER
 62
  256
 10
1190
 20
210
 30
0
  0
VERTEX
  5
123
  8
BOITEINT
  6
BYLAYER
 62
  256
 10
1190
 20
220
 30
0
  0
VERTEX
  5
124
  8
BOITEINT
  6
BYLAYER
 62
  256
 10
1220
 20
220
 30
0
  0
VERTEX
  5
125
  8
BOITEINT
  6
BYLAYER
 62
  256
 10
1220
 20
210
 30
0
  0
VERTEX
  5
126
  8
BOITEINT
  6
BYLAYER
 62
  256
 10
1250
 20
210
 30
0
  0
VERTEX
  5
127
  8
BOITEINT
  6
BYLAYER
 62
  256
 10
1250
 20
220
 30
0
  0
VERTEX
  5
128
  8
BOITEINT
  6
BYLAYER
 62
  256
 10
1270
 20
220
 30
0
  0
SEQEND
  5
129
  8
BOITEINT
  6
BYLAYER
 62
  256
  0
POLYLINE
  5
12A
  8
BOITEINT
  6
BYLAYER
 62
  256
 66
    1
 10
0
 20
0
 30
0
 70
    1
  0
VERTEX
  5
12B
  8
BOITEINT
  6
BYLAYER
 62
  256
 10
1161
 20
175
 30
0
  0
VERTEX
  5
12C
  8
BOITEINT
  6
BYLAYER
 62
  256
 10
1159
 20
175
 30
0
  0
VERTEX
  5
12D
  8
BOITEINT
  6
BYLAYER
 62
  256
 10
1159
 20
195
 30
0
  0
VERTEX
  5
12E
  8
BOITEINT
  6
BYLAYER
 62
  256
 10
1161
 20
195
 30
0
  0
SEQEND
  5
12F
  8
BOITEINT
  6
BYLAYER
 62
  256
  0
POLYLINE
  5
130
  8
BOITEINT
  6
BYLAYER
 62
  256
 66
    1
 10
0
 20
0
 30
0
 70
    0
  0
VERTEX
  5
131
  8
BOITEINT
  6
BYLAYER
 62
  256
 10
1150
 20
460
 30
0
  0
VERTEX
  5
132
  8
BOITEINT
  6
BYLAYER
 62
  256
 10
1150
 20
440
 30
0
  0
VERTEX
  5
133
  8
BOITEINT
  6
BYLAYER
 62
  256
 10
1160
 20
440
 30
0
  0
VERTEX
  5
134
  8
BOITEINT
  6
BYLAYER
 62
  256
 10
1160
 20
420
 30
0
  0
SEQEND
  5
135
  8
BOITEINT
  6
BYLAYER
 62
  256
  0
POLYLINE
  5
136
  8
BOITEINT
  6
BYLAYER
 62
  256
 66
    1
 10
0
 20
0
 30
0
 70
    0
  0
VERTEX
  5
137
  8
BOITEINT
  6
BYLAYER
 62
  256
 10
1150
 20
440
 30
0
  0
VERTEX
  5
138
  8
BOITEINT
  6
BYLAYER
 62
  256
 10
1140
 20
440
 30
0
  0
VERTEX
  5
139
  8
BOITEINT
  6
BYLAYER
 62
  256
 10
1140
 20
420
 30
0
  0
SEQEND
  5
13A
  8
BOITEINT
  6
BYLAYER
 62
  256
  0
LINE
  5
13B
  8
BOITEINT
  6
BYLAYER
 62
  256
 10
1280
 20
420
 11
1010
 21
420
  0
POLYLINE
  5
13C
  8
BOITE
  6
BYLAYER
 62
  256
 66
    1
 10
0
 20
0
 30
0
 70
    1
  0
VERTEX
  5
13D
  8
BOITE
  6
BYLAYER
 62
  256
 10
1000
 20
440
 30
0
  0
VERTEX
  5
13E
  8
BOITE
  6
BYLAYER
 62
  256
 10
1000
 20
460
 30
0
  0
VERTEX
  5
13F
  8
BOITE
  6
BYLAYER
 62
  256
 10
1010
 20
460
 30
0
  0
VERTEX
  5
140
  8
BOITE
  6
BYLAYER
 62
  256
 10
1010
 20
480
 30
0
  0
VERTEX
  5
141
  8
BOITE
  6
BYLAYER
 62
  256
 10
1030
 20
480
 30
0
  0
VERTEX
  5
142
  8
BOITE
  6
BYLAYER
 62
  256
 10
1030
 20
470
 30
0
  0
VERTEX
  5
143
  8
BOITE
  6
BYLAYER
 62
  256
 10
1060
 20
470
 30
0
  0
VERTEX
  5
144
  8
BOITE
  6
BYLAYER
 62
  256
 10
1060
 20
480
 30
0
  0
VERTEX
  5
145
  8
BOITE
  6
BYLAYER
 62
  256
 10
1090
 20
480
 30
0
  0
VERTEX
  5
146
  8
BOITE
  6
BYLAYER
 62
  256
 10
1090
 20
470
 30
0
  0
VERTEX
  5
147
  8
BOITE
  6
BYLAYER
 62
  256
 10
1120
 20
470
 30
0
  0
VERTEX
  5
148
  8
BOITE
  6
BYLAYER
 62
  256
 10
1120
 20
480
 30
0
  0
VERTEX
  5
149
  8
BOITE
  6
BYLAYER
 62
  256
 10
1140
 20
480
 30
0
  0
VERTEX
  5
14A
  8
BOITE
  6
BYLAYER
 62
  256
 10
1140
 20
460
 30
0
  0
VERTEX
  5
14B
  8
BOITE
  6
BYLAYER
 62
  256
 10
1150
 20
460
 30
0
  0
VERTEX
  5
14C
  8
BOITE
  6
BYLAYER
 62
  256
 10
1160
 20
460
 30
0
  0
VERTEX
  5
14D
  8
BOITE
  6
BYLAYER
 62
  256
 10
1160
 20
480
 30
0
  0
VERTEX
  5
14E
  8
BOITE
  6
BYLAYER
 62
  256
 10
1180
 20
480
 30
0
  0
VERTEX
  5
14F
  8
BOITE
  6
BYLAYER
 62
  256
 10
1180
 20
470
 30
0
  0
VERTEX
  5
150
  8
BOITE
  6
BYLAYER
 62
  256
 10
1210
 20
470
 30
0
  0
VERTEX
  5
151
  8
BOITE
  6
BYLAYER
 62
  256
 10
1210
 20
480
 30
0
  0
VERTEX
  5
152
  8
BOITE
  6
BYLAYER
 62
  256
 10
1240
 20
480
 30
0
  0
VERTEX
  5
153
  8
BOITE
  6
BYLAYER
 62
  256
 10
1240
 20
470
 30
0
  0
VERTEX
  5
154
  8
BOITE
  6
BYLAYER
 62
  256
 10
1270
 20
470
 30
0
  0
VERTEX
  5
155
  8
BOITE
  6
BYLAYER
 62
  256
 10
1270
 20
480
 30
0
  0
VERTEX
  5
156
  8
BOITE
  6
BYLAYER
 62
  256
 10
1290
 20
480
 30
0
  0
VERTEX
  5
157
  8
BOITE
  6
BYLAYER
 62
  256
 10
1290
 20
460
 30
0
  0
VERTEX
  5
158
  8
BOITE
  6
BYLAYER
 62
  256
 10
1300
 20
460
 30
0
  0
VERTEX
  5
159
  8
BOITE
  6
BYLAYER
 62
  256
 10
1300
 20
440
 30
0
  0
VERTEX
  5
15A
  8
BOITE
  6
BYLAYER
 62
  256
 10
1290
 20
440
 30
0
  0
VERTEX
  5
15B
  8
BOITE
  6
BYLAYER
 62
  256
 10
1290
 20
420
 30
0
  0
VERTEX
  5
15C
  8
BOITE
  6
BYLAYER
 62
  256
 10
1280
 20
420
 30
0
  0
VERTEX
  5
15D
  8
BOITE
  6
BYLAYER
 62
  256
 10
1280
 20
390
 30
0
  0
VERTEX
  5
15E
  8
BOITE
  6
BYLAYER
 62
  256
 10
1270
 20
390
 30
0
  0
VERTEX
  5
15F
  8
BOITE
  6
BYLAYER
 62
  256
 10
1270
 20
370
 30
0
  0
VERTEX
  5
160
  8
BOITE
  6
BYLAYER
 62
  256
 10
1280
 20
370
 30
0
  0
VERTEX
  5
161
  8
BOITE
  6
BYLAYER
 62
  256
 10
1280
 20
350
 30
0
  0
VERTEX
  5
162
  8
BOITE
  6
BYLAYER
 62
  256
 10
1270
 20
350
 30
0
  0
VERTEX
  5
163
  8
BOITE
  6
BYLAYER
 62
  256
 10
1270
 20
330
 30
0
  0
VERTEX
  5
164
  8
BOITE
  6
BYLAYER
 62
  256
 10
1280
 20
330
 30
0
  0
VERTEX
  5
165
  8
BOITE
  6
BYLAYER
 62
  256
 10
1280
 20
300
 30
0
  0
VERTEX
  5
166
  8
BOITE
  6
BYLAYER
 62
  256
 10
1270
 20
300
 30
0
  0
VERTEX
  5
167
  8
BOITE
  6
BYLAYER
 62
  256
 10
1270
 20
270
 30
0
  0
VERTEX
  5
168
  8
BOITE
  6
BYLAYER
 62
  256
 10
1280
 20
270
 30
0
  0
VERTEX
  5
169
  8
BOITE
  6
BYLAYER
 62
  256
 10
1280
 20
240
 30
0
  0
VERTEX
  5
16A
  8
BOITE
  6
BYLAYER
 62
  256
 10
1270
 20
240
 30
0
  0
VERTEX
  5
16B
  8
BOITE
  6
BYLAYER
 62
  256
 10
1270
 20
220
 30
0
  0
VERTEX
  5
16C
  8
BOITE
  6
BYLAYER
 62
  256
 10
1280
 20
220
 30
0
  0
VERTEX
  5
16D
  8
BOITE
  6
BYLAYER
 62
  256
 10
1280
 20
200
 30
0
  0
VERTEX
  5
16E
  8
BOITE
  6
BYLAYER
 62
  256
 10
1270
 20
200
 30
0
  0
VERTEX
  5
16F
  8
BOITE
  6
BYLAYER
 62
  256
 10
1270
 20
180
 30
0
  0
VERTEX
  5
170
  8
BOITE
  6
BYLAYER
 62
  256
 10
1280
 20
180
 30
0
  0
VERTEX
  5
171
  8
BOITE
  6
BYLAYER
 62
  256
 10
1280
 20
160
 30
0
  0
VERTEX
  5
172
  8
BOITE
  6
BYLAYER
 62
  256
 10
1280
 20
20
 30
0
  0
VERTEX
  5
173
  8
BOITE
  6
BYLAYER
 62
  256
 10
1000
 20
20
 30
0
  0
VERTEX
  5
174
  8
BOITE
  6
BYLAYER
 62
  256
 10
1000
 20
160
 30
0
  0
VERTEX
  5
175
  8
BOITE
  6
BYLAYER
 62
  256
 10
1000
 20
180
 30
0
  0
VERTEX
  5
176
  8
BOITE
  6
BYLAYER
 62
  256
 10
1010
 20
180
 30
0
  0
VERTEX
  5
177
  8
BOITE
  6
BYLAYER
 62
  256
 10
1010
 20
200
 30
0
  0
VERTEX
  5
178
  8
BOITE
  6
BYLAYER
 62
  256
 10
1000
 20
200
 30
0
  0
VERTEX
  5
179
  8
BOITE
  6
BYLAYER
 62
  256
 10
1000
 20
220
 30
0
  0
VERTEX
  5
17A
  8
BOITE
  6
BYLAYER
 62
  256
 10
1010
 20
220
 30
0
  0
VERTEX
  5
17B
  8
BOITE
  6
BYLAYER
 62
  256
 10
1010
 20
240
 30
0
  0
VERTEX
  5
17C
  8
BOITE
  6
BYLAYER
 62
  256
 10
1000
 20
240
 30
0
  0
VERTEX
  5
17D
  8
BOITE
  6
BYLAYER
 62
  256
 10
1000
 20
270
 30
0
  0
VERTEX
  5
17E
  8
BOITE
  6
BYLAYER
 62
  256
 10
1010
 20
270
 30
0
  0
VERTEX
  5
17F
  8
BOITE
  6
BYLAYER
 62
  256
 10
1010
 20
300
 30
0
  0
VERTEX
  5
180
  8
BOITE
  6
BYLAYER
 62
  256
 10
1000
 20
300
 30
0
  0
VERTEX
  5
181
  8
BOITE
  6
BYLAYER
 62
  256
 10
1000
 20
330
 30
0
  0
VERTEX
  5
182
  8
BOITE
  6
BYLAYER
 62
  256
 10
1010
 20
330
 30
0
  0
VERTEX
  5
183
  8
BOITE
  6
BYLAYER
 62
  256
 10
1010
 20
350
 30
0
  0
VERTEX
  5
184
  8
BOITE
  6
BYLAYER
 62
  256
 10
1000
 20
350
 30
0
  0
VERTEX
  5
185
  8
BOITE
  6
BYLAYER
 62
  256
 10
1000
 20
370
 30
0
  0
VERTEX
  5
186
  8
BOITE
  6
BYLAYER
 62
  256
 10
1010
 20
370
 30
0
  0
VERTEX
  5
187
  8
BOITE
  6
BYLAYER
 62
  256
 10
1010
 20
390
 30
0
  0
VERTEX
  5
188
  8
BOITE
  6
BYLAYER
 62
  256
 10
1000
 20
390
 30
0
  0
VERTEX
  5
189
  8
BOITE
  6
BYLAYER
 62
  256
 10
1000
 20
420
 30
0
  0
VERTEX
  5
18A
  8
BOITE
  6
BYLAYER
 62
  256
 10
1010
 20
420
 30
0
  0
VERTEX
  5
18B
  8
BOITE
  6
BYLAYER
 62
  256
 10
1010
 20
440
 30
0
  0
SEQEND
  5
18C
  8
BOITE
  6
BYLAYER
 62
  256
  0
LINE
  5
18D
  8
BOITEINT
  6
BYLAYER
 62
  256
 10
1280
 20
160
 11
1000
 21
160
  0
ENDSEC
  0
EOF
