  0
SECTION
  2
HEADER
  999
GenDXF - http://www.ualg.pt/est/adec/dxfortran/
  0
ENDSEC
  0
SECTION
  2
TABLES
  0
TABLE
  2
LTYPE
 70
4
  0
LTYPE
  2
SOLID
  3
Solid line
 72
65
 73
0
 40
0.0
  0
LTYPE
  2
DOT
  3
Dot . . . . . . . . . . . . . . . . . . . . . .
 72
65
 73
2
 40
6.3499999999999996
 49
0.0
 49
-6.3499999999999996
  0
LTYPE
  2
DASHED
  3
Dashed __ __ __ __ __ __ __ __ __ __ __ __ __ _
 72
65
 73
2
 40
19.0500000000000007
 49
12.6999999999999993
 49
-6.3499999999999996
  0
LTYPE
  2
DASHDOT
  3
Dash dot __ . __ . __ . __ . __ . __ . __ . __
 72
65
 73
4
 40
25.3999999999999986
 49
12.6999999999999993
 49
-6.3499999999999996
 49
0.0
 49
-6.3499999999999996
  0
ENDTAB
  0
ENDSEC
  0
SECTION
  2
BLOCKS
  0
BLOCK
  2
Dent20-4
 70
0
 10
0
 20
0
 30
0
  3
Dent20-4
  1

  0
LINE
  8
Roue20-m4_a9
  6
SOLID
 62
1
 39
0
 10
34.8473043
 20
3.26578945
 30
0
 11
37.4237197
 21
3.50724371
 31
0
  0
LINE
  8
Roue20-m4_a9
  6
SOLID
 62
1
 39
0
 10
37.4237197
 20
3.50724371
 30
0
 11
37.4323931
 21
3.50793121
 31
0
  0
LINE
  8
Roue20-m4_a9
  6
SOLID
 62
1
 39
0
 10
37.4323931
 20
3.50793121
 30
0
 11
37.4583943
 21
3.50949299
 31
0
  0
LINE
  8
Roue20-m4_a9
  6
SOLID
 62
1
 39
0
 10
37.4583943
 20
3.50949299
 30
0
 11
37.5015971
 21
3.51117981
 31
0
  0
LINE
  8
Roue20-m4_a9
  6
SOLID
 62
1
 39
0
 10
37.5015971
 20
3.51117981
 30
0
 11
37.5617478
 21
3.51225441
 31
0
  0
LINE
  8
Roue20-m4_a9
  6
SOLID
 62
1
 39
0
 10
37.5617478
 20
3.51225441
 30
0
 11
37.6384702
 21
3.51200314
 31
0
  0
LINE
  8
Roue20-m4_a9
  6
SOLID
 62
1
 39
0
 10
37.6384702
 20
3.51200314
 30
0
 11
37.7312734
 21
3.50974665
 31
0
  0
LINE
  8
Roue20-m4_a9
  6
SOLID
 62
1
 39
0
 10
37.7312734
 20
3.50974665
 30
0
 11
37.8395614
 21
3.50484941
 31
0
  0
LINE
  8
Roue20-m4_a9
  6
SOLID
 62
1
 39
0
 10
37.8395614
 20
3.50484941
 30
0
 11
37.9626442
 21
3.49672796
 31
0
  0
LINE
  8
Roue20-m4_a9
  6
SOLID
 62
1
 39
0
 10
37.9626442
 20
3.49672796
 30
0
 11
38.0997506
 21
3.4848575
 31
0
  0
LINE
  8
Roue20-m4_a9
  6
SOLID
 62
1
 39
0
 10
38.0997506
 20
3.4848575
 30
0
 11
38.2500413
 21
3.46877687
 31
0
  0
LINE
  8
Roue20-m4_a9
  6
SOLID
 62
1
 39
0
 10
38.2500413
 20
3.46877687
 30
0
 11
38.4126228
 21
3.44809189
 31
0
  0
LINE
  8
Roue20-m4_a9
  6
SOLID
 62
1
 39
0
 10
38.4126228
 20
3.44809189
 30
0
 11
38.5865614
 21
3.42247701
 31
0
  0
LINE
  8
Roue20-m4_a9
  6
SOLID
 62
1
 39
0
 10
38.5865614
 20
3.42247701
 30
0
 11
38.7708963
 21
3.39167542
 31
0
  0
LINE
  8
Roue20-m4_a9
  6
SOLID
 62
1
 39
0
 10
38.7708963
 20
3.39167542
 30
0
 11
38.964653
 21
3.35549784
 31
0
  0
LINE
  8
Roue20-m4_a9
  6
SOLID
 62
1
 39
0
 10
38.964653
 20
3.35549784
 30
0
 11
39.1668547
 21
3.31382
 31
0
  0
LINE
  8
Roue20-m4_a9
  6
SOLID
 62
1
 39
0
 10
39.1668547
 20
3.31382
 30
0
 11
39.376534
 21
3.2665791
 31
0
  0
LINE
  8
Roue20-m4_a9
  6
SOLID
 62
1
 39
0
 10
39.376534
 20
3.2665791
 30
0
 11
39.5927416
 21
3.21376954
 31
0
  0
LINE
  8
Roue20-m4_a9
  6
SOLID
 62
1
 39
0
 10
39.5927416
 20
3.21376954
 30
0
 11
39.8145557
 21
3.15543793
 31
0
  0
LINE
  8
Roue20-m4_a9
  6
SOLID
 62
1
 39
0
 10
39.8145557
 20
3.15543793
 30
0
 11
40.0410883
 21
3.09167777
 31
0
  0
LINE
  8
Roue20-m4_a9
  6
SOLID
 62
1
 39
0
 10
40.0410883
 20
3.09167777
 30
0
 11
40.2714911
 21
3.02262384
 31
0
  0
LINE
  8
Roue20-m4_a9
  6
SOLID
 62
1
 39
0
 10
40.2714911
 20
3.02262384
 30
0
 11
40.5049604
 21
2.94844662
 31
0
  0
LINE
  8
Roue20-m4_a9
  6
SOLID
 62
1
 39
0
 10
40.5049604
 20
2.94844662
 30
0
 11
40.7407395
 21
2.86934665
 31
0
  0
LINE
  8
Roue20-m4_a9
  6
SOLID
 62
1
 39
0
 10
40.7407395
 20
2.86934665
 30
0
 11
40.978122
 21
2.78554924
 31
0
  0
LINE
  8
Roue20-m4_a9
  6
SOLID
 62
1
 39
0
 10
40.978122
 20
2.78554924
 30
0
 11
41.2164519
 21
2.69729929
 31
0
  0
LINE
  8
Roue20-m4_a9
  6
SOLID
 62
1
 39
0
 10
41.2164519
 20
2.69729929
 30
0
 11
41.4551248
 21
2.60485662
 31
0
  0
LINE
  8
Roue20-m4_a9
  6
SOLID
 62
1
 39
0
 10
41.4551248
 20
2.60485662
 30
0
 11
41.693587
 21
2.50849157
 31
0
  0
LINE
  8
Roue20-m4_a9
  6
SOLID
 62
1
 39
0
 10
41.693587
 20
2.50849157
 30
0
 11
41.9313348
 21
2.40848111
 31
0
  0
LINE
  8
Roue20-m4_a9
  6
SOLID
 62
1
 39
0
 10
41.9313348
 20
2.40848111
 30
0
 11
42.1679128
 21
2.30510529
 31
0
  0
LINE
  8
Roue20-m4_a9
  6
SOLID
 62
1
 39
0
 10
42.1679128
 20
2.30510529
 30
0
 11
42.4029123
 21
2.19864426
 31
0
  0
LINE
  8
Roue20-m4_a9
  6
SOLID
 62
1
 39
0
 10
42.4029123
 20
2.19864426
 30
0
 11
42.6359687
 21
2.08937554
 31
0
  0
LINE
  8
Roue20-m4_a9
  6
SOLID
 62
1
 39
0
 10
42.6359687
 20
2.08937554
 30
0
 11
42.8667596
 21
1.97757187
 31
0
  0
LINE
  8
Roue20-m4_a9
  6
SOLID
 62
1
 39
0
 10
42.8667596
 20
1.97757187
 30
0
 11
43.0950019
 21
1.86349925
 31
0
  0
LINE
  8
Roue20-m4_a9
  6
SOLID
 62
1
 39
0
 10
43.0950019
 20
1.86349925
 30
0
 11
43.3204491
 21
1.74741549
 31
0
  0
LINE
  8
Roue20-m4_a9
  6
SOLID
 62
1
 39
0
 10
43.3204491
 20
1.74741549
 30
0
 11
43.5428891
 21
1.62956899
 31
0
  0
LINE
  8
Roue20-m4_a9
  6
SOLID
 62
1
 39
0
 10
43.5428891
 20
1.62956899
 30
0
 11
43.7621412
 21
1.51019779
 31
0
  0
LINE
  8
Roue20-m4_a9
  6
SOLID
 62
1
 39
0
 10
43.7621412
 20
1.51019779
 30
0
 11
43.9780537
 21
1.3895289
 31
0
  0
LINE
  8
Roue20-m4_a9
  6
SOLID
 62
1
 39
0
 10
43.9780537
 20
1.3895289
 30
0
 11
43.9780537
 21
-1.3895289
 31
0
  0
LINE
  8
Roue20-m4_a9
  6
SOLID
 62
1
 39
0
 10
34.8473043
 20
3.26578945
 30
0
 11
34.5690919
 21
5.47520628
 31
0
  0
LINE
  8
Roue20-m4_a9
  6
SOLID
 62
1
 39
0
 10
34.8473043
 20
-3.26578945
 30
0
 11
34.5690919
 21
-5.47520628
 31
0
  0
LINE
  8
Roue20-m4_a9
  6
SOLID
 62
1
 39
0
 10
34.8473043
 20
-3.26578945
 30
0
 11
37.4237197
 21
-3.50724371
 31
0
  0
LINE
  8
Roue20-m4_a9
  6
SOLID
 62
1
 39
0
 10
37.4237197
 20
-3.50724371
 30
0
 11
37.4323931
 21
-3.50793121
 31
0
  0
LINE
  8
Roue20-m4_a9
  6
SOLID
 62
1
 39
0
 10
37.4323931
 20
-3.50793121
 30
0
 11
37.4583943
 21
-3.50949299
 31
0
  0
LINE
  8
Roue20-m4_a9
  6
SOLID
 62
1
 39
0
 10
37.4583943
 20
-3.50949299
 30
0
 11
37.5015971
 21
-3.51117981
 31
0
  0
LINE
  8
Roue20-m4_a9
  6
SOLID
 62
1
 39
0
 10
37.5015971
 20
-3.51117981
 30
0
 11
37.5617478
 21
-3.51225441
 31
0
  0
LINE
  8
Roue20-m4_a9
  6
SOLID
 62
1
 39
0
 10
37.5617478
 20
-3.51225441
 30
0
 11
37.6384702
 21
-3.51200314
 31
0
  0
LINE
  8
Roue20-m4_a9
  6
SOLID
 62
1
 39
0
 10
37.6384702
 20
-3.51200314
 30
0
 11
37.7312734
 21
-3.50974665
 31
0
  0
LINE
  8
Roue20-m4_a9
  6
SOLID
 62
1
 39
0
 10
37.7312734
 20
-3.50974665
 30
0
 11
37.8395614
 21
-3.50484941
 31
0
  0
LINE
  8
Roue20-m4_a9
  6
SOLID
 62
1
 39
0
 10
37.8395614
 20
-3.50484941
 30
0
 11
37.9626442
 21
-3.49672796
 31
0
  0
LINE
  8
Roue20-m4_a9
  6
SOLID
 62
1
 39
0
 10
37.9626442
 20
-3.49672796
 30
0
 11
38.0997506
 21
-3.4848575
 31
0
  0
LINE
  8
Roue20-m4_a9
  6
SOLID
 62
1
 39
0
 10
38.0997506
 20
-3.4848575
 30
0
 11
38.2500413
 21
-3.46877687
 31
0
  0
LINE
  8
Roue20-m4_a9
  6
SOLID
 62
1
 39
0
 10
38.2500413
 20
-3.46877687
 30
0
 11
38.4126228
 21
-3.44809189
 31
0
  0
LINE
  8
Roue20-m4_a9
  6
SOLID
 62
1
 39
0
 10
38.4126228
 20
-3.44809189
 30
0
 11
38.5865614
 21
-3.42247701
 31
0
  0
LINE
  8
Roue20-m4_a9
  6
SOLID
 62
1
 39
0
 10
38.5865614
 20
-3.42247701
 30
0
 11
38.7708963
 21
-3.39167542
 31
0
  0
LINE
  8
Roue20-m4_a9
  6
SOLID
 62
1
 39
0
 10
38.7708963
 20
-3.39167542
 30
0
 11
38.964653
 21
-3.35549784
 31
0
  0
LINE
  8
Roue20-m4_a9
  6
SOLID
 62
1
 39
0
 10
38.964653
 20
-3.35549784
 30
0
 11
39.1668547
 21
-3.31382
 31
0
  0
LINE
  8
Roue20-m4_a9
  6
SOLID
 62
1
 39
0
 10
39.1668547
 20
-3.31382
 30
0
 11
39.376534
 21
-3.2665791
 31
0
  0
LINE
  8
Roue20-m4_a9
  6
SOLID
 62
1
 39
0
 10
39.376534
 20
-3.2665791
 30
0
 11
39.5927416
 21
-3.21376954
 31
0
  0
LINE
  8
Roue20-m4_a9
  6
SOLID
 62
1
 39
0
 10
39.5927416
 20
-3.21376954
 30
0
 11
39.8145557
 21
-3.15543793
 31
0
  0
LINE
  8
Roue20-m4_a9
  6
SOLID
 62
1
 39
0
 10
39.8145557
 20
-3.15543793
 30
0
 11
40.0410883
 21
-3.09167777
 31
0
  0
LINE
  8
Roue20-m4_a9
  6
SOLID
 62
1
 39
0
 10
40.0410883
 20
-3.09167777
 30
0
 11
40.2714911
 21
-3.02262384
 31
0
  0
LINE
  8
Roue20-m4_a9
  6
SOLID
 62
1
 39
0
 10
40.2714911
 20
-3.02262384
 30
0
 11
40.5049604
 21
-2.94844662
 31
0
  0
LINE
  8
Roue20-m4_a9
  6
SOLID
 62
1
 39
0
 10
40.5049604
 20
-2.94844662
 30
0
 11
40.7407395
 21
-2.86934665
 31
0
  0
LINE
  8
Roue20-m4_a9
  6
SOLID
 62
1
 39
0
 10
40.7407395
 20
-2.86934665
 30
0
 11
40.978122
 21
-2.78554924
 31
0
  0
LINE
  8
Roue20-m4_a9
  6
SOLID
 62
1
 39
0
 10
40.978122
 20
-2.78554924
 30
0
 11
41.2164519
 21
-2.69729929
 31
0
  0
LINE
  8
Roue20-m4_a9
  6
SOLID
 62
1
 39
0
 10
41.2164519
 20
-2.69729929
 30
0
 11
41.4551248
 21
-2.60485662
 31
0
  0
LINE
  8
Roue20-m4_a9
  6
SOLID
 62
1
 39
0
 10
41.4551248
 20
-2.60485662
 30
0
 11
41.693587
 21
-2.50849157
 31
0
  0
LINE
  8
Roue20-m4_a9
  6
SOLID
 62
1
 39
0
 10
41.693587
 20
-2.50849157
 30
0
 11
41.9313348
 21
-2.40848111
 31
0
  0
LINE
  8
Roue20-m4_a9
  6
SOLID
 62
1
 39
0
 10
41.9313348
 20
-2.40848111
 30
0
 11
42.1679128
 21
-2.30510529
 31
0
  0
LINE
  8
Roue20-m4_a9
  6
SOLID
 62
1
 39
0
 10
42.1679128
 20
-2.30510529
 30
0
 11
42.4029123
 21
-2.19864426
 31
0
  0
LINE
  8
Roue20-m4_a9
  6
SOLID
 62
1
 39
0
 10
42.4029123
 20
-2.19864426
 30
0
 11
42.6359687
 21
-2.08937554
 31
0
  0
LINE
  8
Roue20-m4_a9
  6
SOLID
 62
1
 39
0
 10
42.6359687
 20
-2.08937554
 30
0
 11
42.8667596
 21
-1.97757187
 31
0
  0
LINE
  8
Roue20-m4_a9
  6
SOLID
 62
1
 39
0
 10
42.8667596
 20
-1.97757187
 30
0
 11
43.0950019
 21
-1.86349925
 31
0
  0
LINE
  8
Roue20-m4_a9
  6
SOLID
 62
1
 39
0
 10
43.0950019
 20
-1.86349925
 30
0
 11
43.3204491
 21
-1.74741549
 31
0
  0
LINE
  8
Roue20-m4_a9
  6
SOLID
 62
1
 39
0
 10
43.3204491
 20
-1.74741549
 30
0
 11
43.5428891
 21
-1.62956899
 31
0
  0
LINE
  8
Roue20-m4_a9
  6
SOLID
 62
1
 39
0
 10
43.5428891
 20
-1.62956899
 30
0
 11
43.7621412
 21
-1.51019779
 31
0
  0
LINE
  8
Roue20-m4_a9
  6
SOLID
 62
1
 39
0
 10
43.7621412
 20
-1.51019779
 30
0
 11
43.9780537
 21
-1.3895289
 31
0
  0
ENDBLK
  0
ENDSEC
  0
SECTION
  2
ENTITIES
  0
INSERT
  8
Roue20-m4_a9
  2
Dent20-4
 10
0
 20
0
 30
0
 50
0
  0
INSERT
  8
Roue20-m4_a9
  2
Dent20-4
 10
0
 20
0
 30
0
 50
-18
  0
INSERT
  8
Roue20-m4_a9
  2
Dent20-4
 10
0
 20
0
 30
0
 50
-36
  0
INSERT
  8
Roue20-m4_a9
  2
Dent20-4
 10
0
 20
0
 30
0
 50
-54
  0
INSERT
  8
Roue20-m4_a9
  2
Dent20-4
 10
0
 20
0
 30
0
 50
-72
  0
INSERT
  8
Roue20-m4_a9
  2
Dent20-4
 10
0
 20
0
 30
0
 50
-90
  0
INSERT
  8
Roue20-m4_a9
  2
Dent20-4
 10
0
 20
0
 30
0
 50
-108
  0
INSERT
  8
Roue20-m4_a9
  2
Dent20-4
 10
0
 20
0
 30
0
 50
-126
  0
INSERT
  8
Roue20-m4_a9
  2
Dent20-4
 10
0
 20
0
 30
0
 50
-144
  0
INSERT
  8
Roue20-m4_a9
  2
Dent20-4
 10
0
 20
0
 30
0
 50
-162
  0
INSERT
  8
Roue20-m4_a9
  2
Dent20-4
 10
0
 20
0
 30
0
 50
-180
  0
INSERT
  8
Roue20-m4_a9
  2
Dent20-4
 10
0
 20
0
 30
0
 50
-198
  0
INSERT
  8
Roue20-m4_a9
  2
Dent20-4
 10
0
 20
0
 30
0
 50
-216
  0
INSERT
  8
Roue20-m4_a9
  2
Dent20-4
 10
0
 20
0
 30
0
 50
-234
  0
INSERT
  8
Roue20-m4_a9
  2
Dent20-4
 10
0
 20
0
 30
0
 50
-252
  0
INSERT
  8
Roue20-m4_a9
  2
Dent20-4
 10
0
 20
0
 30
0
 50
-270
  0
INSERT
  8
Roue20-m4_a9
  2
Dent20-4
 10
0
 20
0
 30
0
 50
-288
  0
INSERT
  8
Roue20-m4_a9
  2
Dent20-4
 10
0
 20
0
 30
0
 50
-306
  0
INSERT
  8
Roue20-m4_a9
  2
Dent20-4
 10
0
 20
0
 30
0
 50
-324
  0
INSERT
  8
Roue20-m4_a9
  2
Dent20-4
 10
0
 20
0
 30
0
 50
-342
  0
CIRCLE
  8
Roue20-m4_a9
  6
SOLID
 62
1
 10
0
 20
0
 30
0
 40
3
  0
ENDSEC
  0
EOF
