999
dxfrw 0.6.3
  0
SECTION
  2
HEADER
  9
$ACADVER
  1
AC1009
  9
$DWGCODEPAGE
  3
ANSI_1252
  9
$INSBASE
 10
0
 20
0
 30
0
  9
$EXTMIN
 10
0
 20
0
 30
0
  9
$EXTMAX
 10
591
 20
748
 30
0
  9
$LIMMIN
 10
0
 20
0
  9
$LIMMAX
 10
420
 20
297
  9
$ORTHOMODE
 70
    0
  9
$REGENMODE
 70
    1
  9
$FILLMODE
 70
    1
  9
$QTEXTMODE
 70
    0
  9
$MIRRTEXT
 70
    0
  9
$DRAGMODE
 70
    2
  9
$LTSCALE
 40
1
  9
$OSMODE
 70
    0
  9
$ATTMODE
 70
    0
  9
$TEXTSIZE
 40
2.5
  9
$TRACEWID
 40
15.68
  9
$TEXTSTYLE
  7
STANDARD
  9
$CLAYER
  8
4
  9
$CELTYPE
  6
BYLAYER
  9
$CECOLOR
 62
  256
  9
$DIMSCALE
 40
2.5
  9
$DIMASZ
 40
2.5
  9
$DIMEXO
 40
0.625
  9
$DIMDLI
 40
3.75
  9
$DIMRND
 40
0
  9
$DIMDLE
 40
0
  9
$DIMEXE
 40
1.25
  9
$DIMTP
 40
0
  9
$DIMTM
 40
0
  9
$DIMTXT
 40
2.5
  9
$DIMCEN
 40
2.5
  9
$DIMTSZ
 40
0
  9
$DIMTOL
 70
    0
  9
$DIMLIM
 70
    0
  9
$DIMTIH
 70
    0
  9
$DIMTOH
 70
    0
  9
$DIMSE1
 70
    0
  9
$DIMSE2
 70
    0
  9
$DIMTAD
 70
    1
  9
$DIMZIN
 70
    8
  9
$DIMBLK
  1

  9
$DIMASO
 70
    1
  9
$DIMSHO
 70
    1
  9
$DIMPOST
  1

  9
$DIMAPOST
  1

  9
$DIMALT
 70
    0
  9
$DIMALTD
 70
    3
  9
$DIMALTF
 40
0.03937
  9
$DIMLFAC
 40
1
  9
$DIMTOFL
 70
    1
  9
$DIMTVP
 40
0
  9
$DIMTIX
 70
    0
  9
$DIMSOXD
 70
    0
  9
$DIMSAH
 70
    0
  9
$DIMBLK1
  1

  9
$DIMBLK2
  1

  9
$DIMSTYLE
  2
STANDARD
  9
$DIMCLRD
 70
    0
  9
$DIMCLRE
 70
    0
  9
$DIMCLRT
 70
    0
  9
$DIMTFAC
 40
1
  9
$DIMGAP
 40
0.625
  9
$LUNITS
 70
    2
  9
$LUPREC
 70
    4
  9
$SKETCHINC
 40
1
  9
$FILLETRAD
 40
0
  9
$AUNITS
 70
    0
  9
$AUPREC
 70
    2
  9
$MENU
  1
.
  9
$ELEVATION
 40
0
  9
$PELEVATION
 40
0
  9
$THICKNESS
 40
0
  9
$LIMCHECK
 70
    0
  9
$BLIPMODE
 70
    0
  9
$CHAMFERA
 40
0
  9
$CHAMFERB
 40
0
  9
$SKPOLY
 70
    0
  9
$USRTIMER
 70
    1
  9
$ANGBASE
 50
0
  9
$ANGDIR
 70
    0
  9
$PDMODE
 70
   34
  9
$PDSIZE
 40
0
  9
$PLINEWID
 40
0
  9
$COORDS
 70
    2
  9
$SPLFRAME
 70
    0
  9
$SPLINETYPE
 70
    2
  9
$SPLINESEGS
 70
    8
  9
$ATTDIA
 70
    1
  9
$ATTREQ
 70
    1
  9
$HANDLING
 70
    1
  9
$HANDSEED
  5
20000
  9
$SURFTAB1
 70
    6
  9
$SURFTAB2
 70
    6
  9
$SURFTYPE
 70
    6
  9
$SURFU
 70
    6
  9
$SURFV
 70
    6
  9
$UCSNAME
  2

  9
$UCSORG
 10
0
 20
0
 30
0
  9
$UCSXDIR
 10
1
 20
0
 30
0
  9
$UCSYDIR
 10
0
 20
1
 30
0
  9
$PUCSNAME
  2

  9
$PUCSORG
 10
0
 20
0
 30
0
  9
$PUCSXDIR
 10
1
 20
0
 30
0
  9
$PUCSYDIR
 10
0
 20
1
 30
0
  9
$USERI1
 70
    0
  9
$USERI2
 70
    0
  9
$USERI3
 70
    0
  9
$USERI4
 70
    0
  9
$USERI5
 70
    0
  9
$USERR1
 40
0
  9
$USERR2
 40
0
  9
$USERR3
 40
0
  9
$USERR4
 40
0
  9
$USERR5
 40
0
  9
$WORLDVIEW
 70
    1
  9
$SHADEDGE
 70
    3
  9
$SHADEDIF
 70
   70
  9
$TILEMODE
 70
    1
  9
$MAXACTVP
 70
   64
  9
$PLIMCHECK
 70
    0
  9
$PEXTMIN
 10
0
 20
0
 30
0
  9
$PEXTMAX
 10
0
 20
0
 30
0
  9
$GRIDMODE
 70
    1
  9
$SNAPSTYLE
 70
    0
  9
$PLIMMIN
 10
0
 20
0
  9
$PLIMMAX
 10
210
 20
297
  9
$UNITMODE
 70
    0
  9
$VISRETAIN
 70
    1
  9
$PLINEGEN
 70
    0
  9
$PSLTSCALE
 70
    1
  0
ENDSEC
  0
SECTION
  2
TABLES
  0
TABLE
  2
VPORT
 70
    1
  0
VPORT
  2
*ACTIVE
 70
    0
 10
0
 20
0
 11
1
 21
1
 12
551.3477053018676
 22
595.9077731610053
 13
0
 23
0
 14
10
 24
10
 15
10
 25
10
 16
0
 26
0
 36
1
 17
0
 27
0
 37
0
 40
1052.1496619874
 41
1.508217446270544
 42
50
 43
0
 44
0
 50
0
 51
0
 71
    0
 72
  100
 73
    1
 74
    3
 75
    0
 76
    1
 77
    0
 78
    0
  0
ENDTAB
  0
TABLE
  2
LTYPE
 70
    4
  0
LTYPE
  2
BYBLOCK
 70
    0
  3

 72
   65
 73
    0
 40
0
  0
LTYPE
  2
BYLAYER
 70
    0
  3

 72
   65
 73
    0
 40
0
  0
LTYPE
  2
CONTINUOUS
 70
    0
  3
Solid line
 72
   65
 73
    0
 40
0
  0
LTYPE
  2
DOT
 70
    0
  3
Dot . . . . . . . . . . . . . . . . . . . . . .
 72
   65
 73
    2
 40
6.35
 49
0
 49
-6.35
  0
LTYPE
  2
DOTTINY
 70
    0
  3
Dot (.15x) .....................................
 72
   65
 73
    2
 40
0.9525
 49
0
 49
-0.9525
  0
LTYPE
  2
DOT2
 70
    0
  3
Dot (.5x) .....................................
 72
   65
 73
    2
 40
3.175
 49
0
 49
-3.175
  0
LTYPE
  2
DOTX2
 70
    0
  3
Dot (2x) .  .  .  .  .  .  .  .  .  .  .  .  .
 72
   65
 73
    2
 40
12.7
 49
0
 49
-12.7
  0
LTYPE
  2
DASHED
 70
    0
  3
Dashed _ _ _ _ _ _ _ _ _ _ _ _ _ _ _ _ _
 72
   65
 73
    2
 40
19.05
 49
12.7
 49
-6.35
  0
LTYPE
  2
DASHEDTINY
 70
    0
  3
Dashed (.15x) _ _ _ _ _ _ _ _ _ _ _ _ _ _ _ _ _
 72
   65
 73
    2
 40
2.8575
 49
1.905
 49
-0.9525
  0
LTYPE
  2
DASHED2
 70
    0
  3
Dashed (.5x) _ _ _ _ _ _ _ _ _ _ _ _ _ _ _ _ _
 72
   65
 73
    2
 40
9.524999999999999
 49
6.35
 49
-3.175
  0
LTYPE
  2
DASHEDX2
 70
    0
  3
Dashed (2x) ____  ____  ____  ____  ____  ___
 72
   65
 73
    2
 40
38.09999999999999
 49
25.4
 49
-12.7
  0
LTYPE
  2
DASHDOT
 70
    0
  3
Dash dot __ . __ . __ . __ . __ . __ . __ . __
 72
   65
 73
    4
 40
25.4
 49
12.7
 49
-6.35
 49
0
 49
-6.35
  0
LTYPE
  2
DASHDOTTINY
 70
    0
  3
Dash dot (.15x) _._._._._._._._._._._._._._._.
 72
   65
 73
    4
 40
3.81
 49
1.905
 49
-0.9525
 49
0
 49
-0.9525
  0
LTYPE
  2
DASHDOT2
 70
    0
  3
Dash dot (.5x) _._._._._._._._._._._._._._._.
 72
   65
 73
    4
 40
12.7
 49
6.35
 49
-3.175
 49
0
 49
-3.175
  0
LTYPE
  2
DASHDOTX2
 70
    0
  3
Dash dot (2x) ____  .  ____  .  ____  .  ___
 72
   65
 73
    4
 40
50.8
 49
25.4
 49
-12.7
 49
0
 49
-12.7
  0
LTYPE
  2
DIVIDE
 70
    0
  3
Divide ____ . . ____ . . ____ . . ____ . . ____
 72
   65
 73
    6
 40
31.75
 49
12.7
 49
-6.35
 49
0
 49
-6.35
 49
0
 49
-6.35
  0
LTYPE
  2
DIVIDETINY
 70
    0
  3
Divide (.15x) __..__..__..__..__..__..__..__.._
 72
   65
 73
    6
 40
4.7625
 49
1.905
 49
-0.9525
 49
0
 49
-0.9525
 49
0
 49
-0.9525
  0
LTYPE
  2
DIVIDE2
 70
    0
  3
Divide (.5x) __..__..__..__..__..__..__..__.._
 72
   65
 73
    6
 40
15.875
 49
6.35
 49
-3.175
 49
0
 49
-3.175
 49
0
 49
-3.175
  0
LTYPE
  2
DIVIDEX2
 70
    0
  3
Divide (2x) ________  .  .  ________  .  .  _
 72
   65
 73
    6
 40
63.5
 49
25.4
 49
-12.7
 49
0
 49
-12.7
 49
0
 49
-12.7
  0
LTYPE
  2
BORDER
 70
    0
  3
Border __ __ . __ __ . __ __ . __ __ . __ __ .
 72
   65
 73
    6
 40
44.45
 49
12.7
 49
-6.35
 49
12.7
 49
-6.35
 49
0
 49
-6.35
  0
LTYPE
  2
BORDERTINY
 70
    0
  3
Border (.15x) __.__.__.__.__.__.__.__.__.__.__.
 72
   65
 73
    6
 40
6.6675
 49
1.905
 49
-0.9525
 49
1.905
 49
-0.9525
 49
0
 49
-0.9525
  0
LTYPE
  2
BORDER2
 70
    0
  3
Border (.5x) __.__.__.__.__.__.__.__.__.__.__.
 72
   65
 73
    6
 40
22.225
 49
6.35
 49
-3.175
 49
6.35
 49
-3.175
 49
0
 49
-3.175
  0
LTYPE
  2
BORDERX2
 70
    0
  3
Border (2x) ____  ____  .  ____  ____  .  ___
 72
   65
 73
    6
 40
88.89999999999999
 49
25.4
 49
-12.7
 49
25.4
 49
-12.7
 49
0
 49
-12.7
  0
LTYPE
  2
CENTER
 70
    0
  3
Center ____ _ ____ _ ____ _ ____ _ ____ _ ____
 72
   65
 73
    4
 40
50.8
 49
31.75
 49
-6.35
 49
6.35
 49
-6.35
  0
LTYPE
  2
CENTERTINY
 70
    0
  3
Center (.15x) ___ _ ___ _ ___ _ ___ _ ___ _ ___
 72
   65
 73
    4
 40
7.619999999999999
 49
4.7625
 49
-0.9525
 49
0.9525
 49
-0.9525
  0
LTYPE
  2
CENTER2
 70
    0
  3
Center (.5x) ___ _ ___ _ ___ _ ___ _ ___ _ ___
 72
   65
 73
    4
 40
28.575
 49
19.05
 49
-3.175
 49
3.175
 49
-3.175
  0
LTYPE
  2
CENTERX2
 70
    0
  3
Center (2x) ________  __  ________  __  _____
 72
   65
 73
    4
 40
101.6
 49
63.5
 49
-12.7
 49
12.7
 49
-12.7
  0
ENDTAB
  0
TABLE
  2
LAYER
 70
    1
  0
LAYER
  2
0
 70
    1
 62
    7
  6
CONTINUOUS
  0
LAYER
  2
1
 70
    0
 62
    1
  6
CONTINUOUS
  0
LAYER
  2
2
 70
    0
 62
  176
  6
CONTINUOUS
  0
LAYER
  2
3
 70
    0
 62
   96
  6
CONTINUOUS
  0
LAYER
  2
4
 70
    0
 62
    7
  6
CONTINUOUS
  0
LAYER
  2
PORTE
 70
    0
 62
  176
  6
CONTINUOUS
  0
LAYER
  2
VEROULLAGE
 70
    0
 62
  216
  6
CONTINUOUS
  0
ENDTAB
  0
TABLE
  2
STYLE
 70
    3
  0
STYLE
  2
STANDARD
 70
    0
 40
0
 41
1
 50
0
 71
    0
 42
1
  3
TXT
  4

  0
ENDTAB
  0
TABLE
  2
VIEW
 70
    0
  0
ENDTAB
  0
TABLE
  2
UCS
 70
    0
  0
ENDTAB
  0
TABLE
  2
APPID
 70
    1
  0
APPID
  2
ACAD
 70
    0
  0
APPID
  2
LIBRECAD
 70
    0
  0
ENDTAB
  0
TABLE
  2
DIMSTYLE
 70
    1
  0
DIMSTYLE
  2
STANDARD
 70
    0
  3

  4

  5

  6

  7

 40
2.5
 41
2.5
 42
0.625
 43
0.38
 44
1.25
 45
0
 46
0
 47
0
 48
0
 49
1
140
2.5
141
0.09
142
0
143
25.4
144
1
145
0
146
1
147
0.625
 71
    0
 72
    0
 73
    0
 74
    1
 75
    0
 76
    0
 77
    0
 78
    8
170
    0
171
    2
172
    0
173
    0
174
    0
175
    0
176
    0
177
    0
178
    0
  0
ENDTAB
  0
ENDSEC
  0
SECTION
  2
BLOCKS
  0
BLOCK
  8
0
  2
$MODEL_SPACE
 70
    0
 10
0
 20
0
 30
0
  3
$MODEL_SPACE
  1

  0
ENDBLK
  8
0
  0
BLOCK
  8
0
  2
$PAPER_SPACE
 70
    0
 10
0
 20
0
 30
0
  3
$PAPER_SPACE
  1

  0
ENDBLK
  8
0
  0
ENDSEC
  0
SECTION
  2
ENTITIES
  0
CIRCLE
  5
31
  8
1
  6
BYLAYER
 62
  256
 10
531
 20
290
 40
1
  0
CIRCLE
  5
32
  8
1
  6
BYLAYER
 62
  256
 10
339
 20
290
 40
1
  0
CIRCLE
  5
33
  8
1
  6
BYLAYER
 62
  256
 10
76
 20
160
 40
2
  0
CIRCLE
  5
34
  8
1
  6
BYLAYER
 62
  256
 10
180
 20
90
 40
2
  0
CIRCLE
  5
35
  8
1
  6
BYLAYER
 62
  256
 10
230
 20
223.2
 40
1.600000000000009
  0
CIRCLE
  5
36
  8
1
  6
BYLAYER
 62
  256
 10
276
 20
275
 40
1
  0
CIRCLE
  5
37
  8
1
  6
BYLAYER
 62
  256
 10
276
 20
252
 40
1
  0
CIRCLE
  5
38
  8
1
  6
BYLAYER
 62
  256
 10
44
 20
275
 40
1
  0
CIRCLE
  5
39
  8
1
  6
BYLAYER
 62
  256
 10
44
 20
252
 40
1
  0
POLYLINE
  5
3A
  8
1
  6
BYLAYER
 62
  256
 66
    1
 10
0
 20
0
 30
0
 70
    0
  0
VERTEX
  5
3B
  8
1
  6
BYLAYER
 62
  256
 10
271
 20
257
 30
0
  0
VERTEX
  5
3C
  8
1
  6
BYLAYER
 62
  256
 10
281
 20
257
 30
0
  0
VERTEX
  5
3D
  8
1
  6
BYLAYER
 62
  256
 10
281
 20
270
 30
0
  0
VERTEX
  5
3E
  8
1
  6
BYLAYER
 62
  256
 10
271
 20
270
 30
0
  0
VERTEX
  5
3F
  8
1
  6
BYLAYER
 62
  256
 10
271
 20
257
 30
0
  0
SEQEND
  5
40
  8
1
  6
BYLAYER
 62
  256
  0
POLYLINE
  5
41
  8
1
  6
BYLAYER
 62
  256
 66
    1
 10
0
 20
0
 30
0
 70
    0
  0
VERTEX
  5
42
  8
1
  6
BYLAYER
 62
  256
 10
49
 20
257
 30
0
  0
VERTEX
  5
43
  8
1
  6
BYLAYER
 62
  256
 10
39
 20
257
 30
0
  0
VERTEX
  5
44
  8
1
  6
BYLAYER
 62
  256
 10
39
 20
270
 30
0
  0
VERTEX
  5
45
  8
1
  6
BYLAYER
 62
  256
 10
49
 20
270
 30
0
  0
VERTEX
  5
46
  8
1
  6
BYLAYER
 62
  256
 10
49
 20
257
 30
0
  0
SEQEND
  5
47
  8
1
  6
BYLAYER
 62
  256
  0
CIRCLE
  5
48
  8
1
  6
BYLAYER
 62
  256
 10
120
 20
705
 40
1
  0
CIRCLE
  5
49
  8
1
  6
BYLAYER
 62
  256
 10
200
 20
705
 40
1
  0
POLYLINE
  5
4A
  8
1
  6
BYLAYER
 62
  256
 66
    1
 10
0
 20
0
 30
0
 70
    0
  0
VERTEX
  5
4B
  8
1
  6
BYLAYER
 62
  256
 10
140
 20
700
 30
0
  0
VERTEX
  5
4C
  8
1
  6
BYLAYER
 62
  256
 10
180
 20
700
 30
0
  0
VERTEX
  5
4D
  8
1
  6
BYLAYER
 62
  256
 10
180
 20
710
 30
0
  0
VERTEX
  5
4E
  8
1
  6
BYLAYER
 62
  256
 10
140
 20
710
 30
0
  0
VERTEX
  5
4F
  8
1
  6
BYLAYER
 62
  256
 10
140
 20
700
 30
0
  0
SEQEND
  5
50
  8
1
  6
BYLAYER
 62
  256
  0
POLYLINE
  5
51
  8
2
  6
BYLAYER
 62
  256
 66
    1
 10
0
 20
0
 30
0
 70
    1
  0
VERTEX
  5
52
  8
2
  6
BYLAYER
 62
  256
 10
256
 20
200
 30
0
  0
VERTEX
  5
53
  8
2
  6
BYLAYER
 62
  256
 10
106
 20
200
 30
0
 42
0.9999999999999999
  0
VERTEX
  5
54
  8
2
  6
BYLAYER
 62
  256
 10
106
 20
120
 30
0
  0
VERTEX
  5
55
  8
2
  6
BYLAYER
 62
  256
 10
256
 20
120
 30
0
  0
SEQEND
  5
56
  8
2
  6
BYLAYER
 62
  256
  0
POLYLINE
  5
57
  8
2
  6
BYLAYER
 62
  256
 66
    1
 10
0
 20
0
 30
0
 70
    1
  0
VERTEX
  5
58
  8
2
  6
BYLAYER
 62
  256
 10
105
 20
58
 30
0
  0
VERTEX
  5
59
  8
2
  6
BYLAYER
 62
  256
 10
95
 20
58
 30
0
  0
VERTEX
  5
5A
  8
2
  6
BYLAYER
 62
  256
 10
95
 20
68
 30
0
  0
VERTEX
  5
5B
  8
2
  6
BYLAYER
 62
  256
 10
70
 20
68
 30
0
  0
VERTEX
  5
5C
  8
2
  6
BYLAYER
 62
  256
 10
70
 20
35
 30
0
  0
VERTEX
  5
5D
  8
2
  6
BYLAYER
 62
  256
 10
95
 20
35
 30
0
  0
VERTEX
  5
5E
  8
2
  6
BYLAYER
 62
  256
 10
95
 20
45
 30
0
  0
VERTEX
  5
5F
  8
2
  6
BYLAYER
 62
  256
 10
105
 20
45
 30
0
  0
SEQEND
  5
60
  8
2
  6
BYLAYER
 62
  256
  0
POLYLINE
  5
61
  8
2
  6
BYLAYER
 62
  256
 66
    1
 10
0
 20
0
 30
0
 70
    1
  0
VERTEX
  5
62
  8
2
  6
BYLAYER
 62
  256
 10
105
 20
103
 30
0
  0
VERTEX
  5
63
  8
2
  6
BYLAYER
 62
  256
 10
95
 20
103
 30
0
  0
VERTEX
  5
64
  8
2
  6
BYLAYER
 62
  256
 10
95
 20
113
 30
0
  0
VERTEX
  5
65
  8
2
  6
BYLAYER
 62
  256
 10
70
 20
113
 30
0
  0
VERTEX
  5
66
  8
2
  6
BYLAYER
 62
  256
 10
70
 20
80
 30
0
  0
VERTEX
  5
67
  8
2
  6
BYLAYER
 62
  256
 10
95
 20
80
 30
0
  0
VERTEX
  5
68
  8
2
  6
BYLAYER
 62
  256
 10
95
 20
90
 30
0
  0
VERTEX
  5
69
  8
2
  6
BYLAYER
 62
  256
 10
105
 20
90
 30
0
  0
SEQEND
  5
6A
  8
2
  6
BYLAYER
 62
  256
  0
POLYLINE
  5
6B
  8
2
  6
BYLAYER
 62
  256
 66
    1
 10
0
 20
0
 30
0
 70
    1
  0
VERTEX
  5
6C
  8
2
  6
BYLAYER
 62
  256
 10
200
 20
60
 30
0
  0
VERTEX
  5
6D
  8
2
  6
BYLAYER
 62
  256
 10
200
 20
70
 30
0
  0
VERTEX
  5
6E
  8
2
  6
BYLAYER
 62
  256
 10
230
 20
70
 30
0
  0
VERTEX
  5
6F
  8
2
  6
BYLAYER
 62
  256
 10
230
 20
80
 30
0
  0
VERTEX
  5
70
  8
2
  6
BYLAYER
 62
  256
 10
210
 20
80
 30
0
  0
VERTEX
  5
71
  8
2
  6
BYLAYER
 62
  256
 10
190
 20
100
 30
0
  0
VERTEX
  5
72
  8
2
  6
BYLAYER
 62
  256
 10
170
 20
100
 30
0
  0
VERTEX
  5
73
  8
2
  6
BYLAYER
 62
  256
 10
150
 20
80
 30
0
  0
VERTEX
  5
74
  8
2
  6
BYLAYER
 62
  256
 10
130
 20
80
 30
0
  0
VERTEX
  5
75
  8
2
  6
BYLAYER
 62
  256
 10
130
 20
70
 30
0
  0
VERTEX
  5
76
  8
2
  6
BYLAYER
 62
  256
 10
160
 20
70
 30
0
  0
VERTEX
  5
77
  8
2
  6
BYLAYER
 62
  256
 10
160
 20
60
 30
0
  0
SEQEND
  5
78
  8
2
  6
BYLAYER
 62
  256
  0
POLYLINE
  5
79
  8
2
  6
BYLAYER
 62
  256
 66
    1
 10
0
 20
0
 30
0
 70
    1
  0
VERTEX
  5
7A
  8
2
  6
BYLAYER
 62
  256
 10
66
 20
243
 30
0
  0
VERTEX
  5
7B
  8
2
  6
BYLAYER
 62
  256
 10
81
 20
246
 30
0
  0
VERTEX
  5
7C
  8
2
  6
BYLAYER
 62
  256
 10
76
 20
311
 30
0
 42
-0.414213562373095
  0
VERTEX
  5
7D
  8
2
  6
BYLAYER
 62
  256
 10
79
 20
314
 30
0
  0
VERTEX
  5
7E
  8
2
  6
BYLAYER
 62
  256
 10
168
 20
314
 30
0
 42
-0.414213562373095
  0
VERTEX
  5
7F
  8
2
  6
BYLAYER
 62
  256
 10
173
 20
309
 30
0
  0
VERTEX
  5
80
  8
2
  6
BYLAYER
 62
  256
 10
173
 20
288
 30
0
  0
VERTEX
  5
81
  8
2
  6
BYLAYER
 62
  256
 10
91
 20
230
 30
0
  0
VERTEX
  5
82
  8
2
  6
BYLAYER
 62
  256
 10
66
 20
220
 30
0
  0
SEQEND
  5
83
  8
2
  6
BYLAYER
 62
  256
  0
POLYLINE
  5
84
  8
2
  6
BYLAYER
 62
  256
 66
    1
 10
0
 20
0
 30
0
 70
    1
  0
VERTEX
  5
85
  8
2
  6
BYLAYER
 62
  256
 10
244
 20
290.2
 30
0
  0
VERTEX
  5
86
  8
2
  6
BYLAYER
 62
  256
 10
229
 20
287.2
 30
0
  0
VERTEX
  5
87
  8
2
  6
BYLAYER
 62
  256
 10
234
 20
222.2
 30
0
 42
-0.414213562373095
  0
VERTEX
  5
88
  8
2
  6
BYLAYER
 62
  256
 10
231
 20
219.2
 30
0
  0
VERTEX
  5
89
  8
2
  6
BYLAYER
 62
  256
 10
142
 20
219.2
 30
0
 42
-0.414213562373095
  0
VERTEX
  5
8A
  8
2
  6
BYLAYER
 62
  256
 10
137
 20
224.2
 30
0
  0
VERTEX
  5
8B
  8
2
  6
BYLAYER
 62
  256
 10
137
 20
245.2
 30
0
  0
VERTEX
  5
8C
  8
2
  6
BYLAYER
 62
  256
 10
219
 20
303.2
 30
0
  0
VERTEX
  5
8D
  8
2
  6
BYLAYER
 62
  256
 10
244
 20
313.2
 30
0
  0
SEQEND
  5
8E
  8
2
  6
BYLAYER
 62
  256
  0
POLYLINE
  5
8F
  8
3
  6
BYLAYER
 62
  256
 66
    1
 10
0
 20
0
 30
0
 70
    0
  0
VERTEX
  5
90
  8
3
  6
BYLAYER
 62
  256
 10
260
 20
30
 30
0
  0
VERTEX
  5
91
  8
3
  6
BYLAYER
 62
  256
 10
260
 20
315
 30
0
 42
0.414213562373095
  0
VERTEX
  5
92
  8
3
  6
BYLAYER
 62
  256
 10
255
 20
320
 30
0
  0
VERTEX
  5
93
  8
3
  6
BYLAYER
 62
  256
 10
65
 20
320
 30
0
 42
0.414213562373095
  0
VERTEX
  5
94
  8
3
  6
BYLAYER
 62
  256
 10
60
 20
315
 30
0
  0
VERTEX
  5
95
  8
3
  6
BYLAYER
 62
  256
 10
60
 20
30
 30
0
  0
VERTEX
  5
96
  8
3
  6
BYLAYER
 62
  256
 10
260
 20
30
 30
0
  0
SEQEND
  5
97
  8
3
  6
BYLAYER
 62
  256
  0
POLYLINE
  5
98
  8
4
  6
BYLAYER
 62
  256
 66
    1
 10
0
 20
0
 30
0
 70
    0
  0
VERTEX
  5
99
  8
4
  6
BYLAYER
 62
  256
 10
160
 20
720
 30
0
  0
VERTEX
  5
9A
  8
4
  6
BYLAYER
 62
  256
 10
0
 20
720
 30
0
  0
VERTEX
  5
9B
  8
4
  6
BYLAYER
 62
  256
 10
0
 20
0
 30
0
  0
VERTEX
  5
9C
  8
4
  6
BYLAYER
 62
  256
 10
160
 20
0
 30
0
  0
VERTEX
  5
9D
  8
4
  6
BYLAYER
 62
  256
 10
320
 20
0
 30
0
  0
VERTEX
  5
9E
  8
4
  6
BYLAYER
 62
  256
 10
320
 20
720
 30
0
  0
VERTEX
  5
9F
  8
4
  6
BYLAYER
 62
  256
 10
160
 20
720
 30
0
  0
SEQEND
  5
A0
  8
4
  6
BYLAYER
 62
  256
  0
POLYLINE
  5
A1
  8
4
  6
BYLAYER
 62
  256
 66
    1
 10
0
 20
0
 30
0
 70
    1
  0
VERTEX
  5
A2
  8
4
  6
BYLAYER
 62
  256
 10
435
 20
320
 30
0
  0
VERTEX
  5
A3
  8
4
  6
BYLAYER
 62
  256
 10
330
 20
320
 30
0
 42
0.414213562373095
  0
VERTEX
  5
A4
  8
4
  6
BYLAYER
 62
  256
 10
325
 20
315
 30
0
  0
VERTEX
  5
A5
  8
4
  6
BYLAYER
 62
  256
 10
325
 20
0
 30
0
  0
VERTEX
  5
A6
  8
4
  6
BYLAYER
 62
  256
 10
435
 20
0
 30
0
  0
VERTEX
  5
A7
  8
4
  6
BYLAYER
 62
  256
 10
545
 20
0
 30
0
  0
VERTEX
  5
A8
  8
4
  6
BYLAYER
 62
  256
 10
545
 20
315
 30
0
 42
0.414213562373095
  0
VERTEX
  5
A9
  8
4
  6
BYLAYER
 62
  256
 10
540
 20
320
 30
0
  0
SEQEND
  5
AA
  8
4
  6
BYLAYER
 62
  256
  0
CIRCLE
  5
AB
  8
1
  6
BYLAYER
 62
  256
 10
80
 20
310
 40
3
  0
CIRCLE
  5
AC
  8
1
  6
BYLAYER
 62
  256
 10
80
 20
110
 40
3
  0
POLYLINE
  5
AD
  8
VEROULLAGE
  6
BYLAYER
 62
  256
 66
    1
 10
0
 20
0
 30
0
 70
    1
  0
VERTEX
  5
AE
  8
VEROULLAGE
  6
BYLAYER
 62
  256
 10
324
 20
675
 30
0
  0
VERTEX
  5
AF
  8
VEROULLAGE
  6
BYLAYER
 62
  256
 10
339
 20
678
 30
0
  0
VERTEX
  5
B0
  8
VEROULLAGE
  6
BYLAYER
 62
  256
 10
334
 20
743
 30
0
 42
-0.414213562373095
  0
VERTEX
  5
B1
  8
VEROULLAGE
  6
BYLAYER
 62
  256
 10
337
 20
746
 30
0
  0
VERTEX
  5
B2
  8
VEROULLAGE
  6
BYLAYER
 62
  256
 10
426
 20
746
 30
0
 42
-0.414213562373095
  0
VERTEX
  5
B3
  8
VEROULLAGE
  6
BYLAYER
 62
  256
 10
431
 20
741
 30
0
  0
VERTEX
  5
B4
  8
VEROULLAGE
  6
BYLAYER
 62
  256
 10
431
 20
720
 30
0
  0
VERTEX
  5
B5
  8
VEROULLAGE
  6
BYLAYER
 62
  256
 10
349
 20
662
 30
0
  0
VERTEX
  5
B6
  8
VEROULLAGE
  6
BYLAYER
 62
  256
 10
324
 20
652
 30
0
  0
SEQEND
  5
B7
  8
VEROULLAGE
  6
BYLAYER
 62
  256
  0
POLYLINE
  5
B8
  8
VEROULLAGE
  6
BYLAYER
 62
  256
 66
    1
 10
0
 20
0
 30
0
 70
    1
  0
VERTEX
  5
B9
  8
VEROULLAGE
  6
BYLAYER
 62
  256
 10
506
 20
725
 30
0
  0
VERTEX
  5
BA
  8
VEROULLAGE
  6
BYLAYER
 62
  256
 10
491
 20
722
 30
0
  0
VERTEX
  5
BB
  8
VEROULLAGE
  6
BYLAYER
 62
  256
 10
496
 20
657
 30
0
 42
-0.414213562373095
  0
VERTEX
  5
BC
  8
VEROULLAGE
  6
BYLAYER
 62
  256
 10
493
 20
654
 30
0
  0
VERTEX
  5
BD
  8
VEROULLAGE
  6
BYLAYER
 62
  256
 10
404
 20
654
 30
0
 42
-0.414213562373095
  0
VERTEX
  5
BE
  8
VEROULLAGE
  6
BYLAYER
 62
  256
 10
399
 20
659
 30
0
  0
VERTEX
  5
BF
  8
VEROULLAGE
  6
BYLAYER
 62
  256
 10
399
 20
680
 30
0
  0
VERTEX
  5
C0
  8
VEROULLAGE
  6
BYLAYER
 62
  256
 10
481
 20
738
 30
0
  0
VERTEX
  5
C1
  8
VEROULLAGE
  6
BYLAYER
 62
  256
 10
506
 20
748
 30
0
  0
SEQEND
  5
C2
  8
VEROULLAGE
  6
BYLAYER
 62
  256
  0
CIRCLE
  5
C3
  8
PORTE
  6
BYLAYER
 62
  256
 10
527
 20
611
 40
1
  0
CIRCLE
  5
C4
  8
PORTE
  6
BYLAYER
 62
  256
 10
339
 20
611
 40
1
  0
CIRCLE
  5
C5
  8
PORTE
  6
BYLAYER
 62
  256
 10
340
 20
740
 40
3
  0
CIRCLE
  5
C6
  8
PORTE
  6
BYLAYER
 62
  256
 10
490
 20
660
 40
3
  0
POLYLINE
  5
C7
  8
VEROULLAGE
  6
BYLAYER
 62
  256
 66
    1
 10
0
 20
0
 30
0
 70
    1
  0
VERTEX
  5
C8
  8
VEROULLAGE
  6
BYLAYER
 62
  256
 10
433
 20
643
 30
0
  0
VERTEX
  5
C9
  8
VEROULLAGE
  6
BYLAYER
 62
  256
 10
328
 20
643
 30
0
 42
0.414213562373095
  0
VERTEX
  5
CA
  8
VEROULLAGE
  6
BYLAYER
 62
  256
 10
323
 20
638
 30
0
  0
VERTEX
  5
CB
  8
VEROULLAGE
  6
BYLAYER
 62
  256
 10
323
 20
323
 30
0
  0
VERTEX
  5
CC
  8
VEROULLAGE
  6
BYLAYER
 62
  256
 10
433
 20
323
 30
0
  0
VERTEX
  5
CD
  8
VEROULLAGE
  6
BYLAYER
 62
  256
 10
543
 20
323
 30
0
  0
VERTEX
  5
CE
  8
VEROULLAGE
  6
BYLAYER
 62
  256
 10
543
 20
638
 30
0
 42
0.414213562373095
  0
VERTEX
  5
CF
  8
VEROULLAGE
  6
BYLAYER
 62
  256
 10
538
 20
643
 30
0
  0
SEQEND
  5
D0
  8
VEROULLAGE
  6
BYLAYER
 62
  256
  0
ENDSEC
  0
EOF
