999
dxfrw 0.6.3
  0
SECTION
  2
HEADER
  9
$ACADVER
  1
AC1021
  9
$DWGCODEPAGE
  3
ANSI_1252
  9
$INSBASE
 10
0
 20
0
 30
0
  9
$EXTMIN
 10
-1115
 20
-40
 30
0
  9
$EXTMAX
 10
1122
 20
1015.000000223517
 30
0
  9
$LIMMIN
 10
0
 20
0
  9
$LIMMAX
 10
420
 20
297
  9
$ORTHOMODE
 70
    0
  9
$REGENMODE
 70
    1
  9
$FILLMODE
 70
    1
  9
$QTEXTMODE
 70
    0
  9
$MIRRTEXT
 70
    0
  9
$LTSCALE
 40
1
  9
$ATTMODE
 70
    0
  9
$TEXTSIZE
 40
2.5
  9
$TRACEWID
 40
15.68
  9
$TEXTSTYLE
  7
STANDARD
  9
$CLAYER
  8
VEROULLAGE2
  9
$CELTYPE
  6
BYLAYER
  9
$CECOLOR
 62
  256
  9
$CELTSCALE
 40
1
  9
$DISPSILH
 70
    0
  9
$DIMSCALE
 40
2.5
  9
$DIMASZ
 40
2.5
  9
$DIMEXO
 40
0.625
  9
$DIMDLI
 40
3.75
  9
$DIMRND
 40
0
  9
$DIMDLE
 40
0
  9
$DIMEXE
 40
1.25
  9
$DIMTP
 40
0
  9
$DIMTM
 40
0
  9
$DIMTXT
 40
2.5
  9
$DIMCEN
 40
2.5
  9
$DIMTSZ
 40
0
  9
$DIMTOL
 70
    0
  9
$DIMLIM
 70
    0
  9
$DIMTIH
 70
    0
  9
$DIMTOH
 70
    0
  9
$DIMSE1
 70
    0
  9
$DIMSE2
 70
    0
  9
$DIMTAD
 70
    1
  9
$DIMZIN
 70
    8
  9
$DIMBLK
  1

  9
$DIMASO
 70
    1
  9
$DIMSHO
 70
    1
  9
$DIMPOST
  1

  9
$DIMAPOST
  1

  9
$DIMALT
 70
    0
  9
$DIMALTD
 70
    3
  9
$DIMALTF
 40
0.03937
  9
$DIMLFAC
 40
1
  9
$DIMTOFL
 70
    1
  9
$DIMTVP
 40
0
  9
$DIMTIX
 70
    0
  9
$DIMSOXD
 70
    0
  9
$DIMSAH
 70
    0
  9
$DIMBLK1
  1

  9
$DIMBLK2
  1

  9
$DIMSTYLE
  2
STANDARD
  9
$DIMCLRD
 70
    0
  9
$DIMCLRE
 70
    0
  9
$DIMCLRT
 70
    0
  9
$DIMTFAC
 40
1
  9
$DIMGAP
 40
0.625
  9
$DIMJUST
 70
    0
  9
$DIMSD1
 70
    0
  9
$DIMSD2
 70
    0
  9
$DIMTOLJ
 70
    0
  9
$DIMTZIN
 70
    8
  9
$DIMALTZ
 70
    0
  9
$DIMALTTZ
 70
    0
  9
$DIMUPT
 70
    0
  9
$DIMDEC
 70
    4
  9
$DIMTDEC
 70
    2
  9
$DIMALTU
 70
    2
  9
$DIMALTTD
 70
    3
  9
$DIMTXSTY
  7
STANDARD
  9
$DIMAUNIT
 70
    0
  9
$DIMADEC
 70
    0
  9
$DIMALTRND
 40
0
  9
$DIMAZIN
 70
    0
  9
$DIMDSEP
 70
   44
  9
$DIMATFIT
 70
    3
  9
$DIMFRAC
 70
    0
  9
$DIMLDRBLK
  1
STANDARD
  9
$DIMLUNIT
 70
    2
  9
$DIMLWD
 70
   -2
  9
$DIMLWE
 70
   -2
  9
$DIMTMOVE
 70
    0
  9
$DIMFXL
 40
1
  9
$DIMFXLON
 70
    0
  9
$DIMJOGANG
 40
0.7854
  9
$DIMTFILL
 70
    0
  9
$DIMTFILLCLR
 70
    0
  9
$DIMARCSYM
 70
    0
  9
$DIMLTYPE
  6

  9
$DIMLTEX1
  6

  9
$DIMLTEX2
  6

  9
$LUNITS
 70
    2
  9
$LUPREC
 70
    4
  9
$SKETCHINC
 40
1
  9
$FILLETRAD
 40
0
  9
$AUNITS
 70
    0
  9
$AUPREC
 70
    2
  9
$MENU
  1
.
  9
$ELEVATION
 40
0
  9
$PELEVATION
 40
0
  9
$THICKNESS
 40
0
  9
$LIMCHECK
 70
    0
  9
$CHAMFERA
 40
0
  9
$CHAMFERB
 40
0
  9
$CHAMFERC
 40
0
  9
$CHAMFERD
 40
0
  9
$SKPOLY
 70
    0
  9
$USRTIMER
 70
    1
  9
$ANGBASE
 50
0
  9
$ANGDIR
 70
    0
  9
$PDMODE
 70
   34
  9
$PDSIZE
 40
0
  9
$PLINEWID
 40
0
  9
$SPLFRAME
 70
    0
  9
$SPLINETYPE
 70
    2
  9
$SPLINESEGS
 70
    8
  9
$HANDSEED
  5
20000
  9
$SURFTAB1
 70
    6
  9
$SURFTAB2
 70
    6
  9
$SURFTYPE
 70
    6
  9
$SURFU
 70
    6
  9
$SURFV
 70
    6
  9
$UCSBASE
  2

  9
$UCSNAME
  2

  9
$UCSORG
 10
0
 20
0
 30
0
  9
$UCSXDIR
 10
1
 20
0
 30
0
  9
$UCSYDIR
 10
0
 20
1
 30
0
  9
$UCSORTHOREF
  2

  9
$UCSORTHOVIEW
 70
    0
  9
$UCSORGTOP
 10
0
 20
0
 30
0
  9
$UCSORGBOTTOM
 10
0
 20
0
 30
0
  9
$UCSORGLEFT
 10
0
 20
0
 30
0
  9
$UCSORGRIGHT
 10
0
 20
0
 30
0
  9
$UCSORGFRONT
 10
0
 20
0
 30
0
  9
$UCSORGBACK
 10
0
 20
0
 30
0
  9
$PUCSBASE
  2

  9
$PUCSNAME
  2

  9
$PUCSORG
 10
0
 20
0
 30
0
  9
$PUCSXDIR
 10
1
 20
0
 30
0
  9
$PUCSYDIR
 10
0
 20
1
 30
0
  9
$PUCSORTHOREF
  2

  9
$PUCSORTHOVIEW
 70
    0
  9
$PUCSORGTOP
 10
0
 20
0
 30
0
  9
$PUCSORGBOTTOM
 10
0
 20
0
 30
0
  9
$PUCSORGLEFT
 10
0
 20
0
 30
0
  9
$PUCSORGRIGHT
 10
0
 20
0
 30
0
  9
$PUCSORGFRONT
 10
0
 20
0
 30
0
  9
$PUCSORGBACK
 10
0
 20
0
 30
0
  9
$USERI1
 70
    0
  9
$USERI2
 70
    0
  9
$USERI3
 70
    0
  9
$USERI4
 70
    0
  9
$USERI5
 70
    0
  9
$USERR1
 40
0
  9
$USERR2
 40
0
  9
$USERR3
 40
0
  9
$USERR4
 40
0
  9
$USERR5
 40
0
  9
$WORLDVIEW
 70
    1
  9
$SHADEDGE
 70
    3
  9
$SHADEDIF
 70
   70
  9
$TILEMODE
 70
    1
  9
$MAXACTVP
 70
   64
  9
$PINSBASE
 10
0
 20
0
 30
0
  9
$PLIMCHECK
 70
    0
  9
$PEXTMIN
 10
0
 20
0
 30
0
  9
$PEXTMAX
 10
0
 20
0
 30
0
  9
$GRIDMODE
 70
    1
  9
$SNAPSTYLE
 70
    0
  9
$PLIMMIN
 10
0
 20
0
  9
$PLIMMAX
 10
210
 20
297
  9
$UNITMODE
 70
    0
  9
$VISRETAIN
 70
    1
  9
$PLINEGEN
 70
    0
  9
$PSLTSCALE
 70
    1
  9
$TREEDEPTH
 70
 3020
  9
$CMLSTYLE
  2
Standard
  9
$CMLJUST
 70
    0
  9
$CMLSCALE
 40
20
  9
$PROXYGRAPHICS
 70
    1
  9
$MEASUREMENT
 70
    1
  9
$CELWEIGHT
370
   -1
  9
$ENDCAPS
280
    0
  9
$JOINSTYLE
280
    0
  9
$LWDISPLAY
290
    0
  9
$INSUNITS
 70
    0
  9
$HYPERLINKBASE
  1

  9
$STYLESHEET
  1

  9
$XEDIT
290
    1
  9
$CEPSNTYPE
380
    0
  9
$PSTYLEMODE
290
    1
  9
$EXTNAMES
290
    1
  9
$PSVPSCALE
 40
1
  9
$OLESTARTUP
290
    0
  9
$SORTENTS
280
  127
  9
$INDEXCTL
280
    0
  9
$HIDETEXT
280
    1
  9
$XCLIPFRAME
290
    0
  9
$HALOGAP
280
    0
  9
$OBSCOLOR
 70
  257
  9
$OBSLTYPE
280
    0
  9
$INTERSECTIONDISPLAY
280
    0
  9
$INTERSECTIONCOLOR
 70
  257
  9
$DIMASSOC
280
    1
  9
$PROJECTNAME
  1

  9
$CAMERADISPLAY
290
    0
  9
$LENSLENGTH
 40
50
  9
$CAMERAHEIGHT
 40
0
  9
$STEPSPERSEC
 40
2
  9
$STEPSIZE
 40
50
  9
$3DDWFPREC
 40
2
  9
$PSOLWIDTH
 40
5
  9
$PSOLHEIGHT
 40
80
  9
$LOFTANG1
 40
1.570796326794897
  9
$LOFTANG2
 40
1.570796326794897
  9
$LOFTMAG1
 40
0
  9
$LOFTMAG2
 40
0
  9
$LOFTPARAM
 70
    7
  9
$LOFTNORMALS
280
    1
  9
$LATITUDE
 40
1
  9
$LONGITUDE
 40
1
  9
$NORTHDIRECTION
 40
0
  9
$TIMEZONE
 70
-8000
  9
$LIGHTGLYPHDISPLAY
280
    1
  9
$TILEMODELIGHTSYNCH
280
    1
  9
$SOLIDHIST
280
    1
  9
$SHOWHIST
280
    1
  9
$DWFFRAME
280
    2
  9
$DGNFRAME
280
    0
  9
$REALWORLDSCALE
290
    1
  9
$INTERFERECOLOR
 62
    1
  9
$CSHADOW
280
    0
  9
$SHADOWPLANELOCATION
 40
0
  0
ENDSEC
  0
SECTION
  2
CLASSES
  0
ENDSEC
  0
SECTION
  2
TABLES
  0
TABLE
  2
VPORT
  5
8
330
0
100
AcDbSymbolTable
 70
    1
  0
VPORT
  5
31
330
2
100
AcDbSymbolTableRecord
100
AcDbViewportTableRecord
  2
*ACTIVE
 70
    0
 10
0
 20
0
 11
1
 21
1
 12
610.3921114900003
 22
508.7934245185324
 13
0
 23
0
 14
10
 24
10
 15
10
 25
10
 16
0
 26
0
 36
1
 17
0
 27
0
 37
0
 40
1356.782465382753
 41
1.794811320754717
 42
50
 43
0
 44
0
 50
0
 51
0
 71
    0
 72
  100
 73
    1
 74
    3
 75
    0
 76
    1
 77
    0
 78
    0
281
    0
 65
    1
110
0
120
0
130
0
111
1
121
0
131
0
112
0
122
1
132
0
 79
    0
146
0
348
10020
 60
    7
 61
    5
292
1
282
    1
141
0
142
0
 63
  250
421
3358443
  0
ENDTAB
  0
TABLE
  2
LTYPE
  5
5
330
0
100
AcDbSymbolTable
 70
    4
  0
LTYPE
  5
14
330
5
100
AcDbSymbolTableRecord
100
AcDbLinetypeTableRecord
  2
ByBlock
 70
    0
  3

 72
   65
 73
    0
 40
0
  0
LTYPE
  5
15
330
5
100
AcDbSymbolTableRecord
100
AcDbLinetypeTableRecord
  2
ByLayer
 70
    0
  3

 72
   65
 73
    0
 40
0
  0
LTYPE
  5
16
330
5
100
AcDbSymbolTableRecord
100
AcDbLinetypeTableRecord
  2
Continuous
 70
    0
  3
Solid line
 72
   65
 73
    0
 40
0
  0
LTYPE
  5
32
330
5
100
AcDbSymbolTableRecord
100
AcDbLinetypeTableRecord
  2
DOT
 70
    0
  3
Dot . . . . . . . . . . . . . . . . . . . . . .
 72
   65
 73
    2
 40
6.35
 49
0
 74
    0
 49
-6.35
 74
    0
  0
LTYPE
  5
33
330
5
100
AcDbSymbolTableRecord
100
AcDbLinetypeTableRecord
  2
DOTTINY
 70
    0
  3
Dot (.15x) .....................................
 72
   65
 73
    2
 40
0.9525
 49
0
 74
    0
 49
-0.9525
 74
    0
  0
LTYPE
  5
34
330
5
100
AcDbSymbolTableRecord
100
AcDbLinetypeTableRecord
  2
DOT2
 70
    0
  3
Dot (.5x) .....................................
 72
   65
 73
    2
 40
3.175
 49
0
 74
    0
 49
-3.175
 74
    0
  0
LTYPE
  5
35
330
5
100
AcDbSymbolTableRecord
100
AcDbLinetypeTableRecord
  2
DOTX2
 70
    0
  3
Dot (2x) .  .  .  .  .  .  .  .  .  .  .  .  .
 72
   65
 73
    2
 40
12.7
 49
0
 74
    0
 49
-12.7
 74
    0
  0
LTYPE
  5
36
330
5
100
AcDbSymbolTableRecord
100
AcDbLinetypeTableRecord
  2
DASHED
 70
    0
  3
Dashed _ _ _ _ _ _ _ _ _ _ _ _ _ _ _ _ _
 72
   65
 73
    2
 40
19.05
 49
12.7
 74
    0
 49
-6.35
 74
    0
  0
LTYPE
  5
37
330
5
100
AcDbSymbolTableRecord
100
AcDbLinetypeTableRecord
  2
DASHEDTINY
 70
    0
  3
Dashed (.15x) _ _ _ _ _ _ _ _ _ _ _ _ _ _ _ _ _
 72
   65
 73
    2
 40
2.8575
 49
1.905
 74
    0
 49
-0.9525
 74
    0
  0
LTYPE
  5
38
330
5
100
AcDbSymbolTableRecord
100
AcDbLinetypeTableRecord
  2
DASHED2
 70
    0
  3
Dashed (.5x) _ _ _ _ _ _ _ _ _ _ _ _ _ _ _ _ _
 72
   65
 73
    2
 40
9.524999999999999
 49
6.35
 74
    0
 49
-3.175
 74
    0
  0
LTYPE
  5
39
330
5
100
AcDbSymbolTableRecord
100
AcDbLinetypeTableRecord
  2
DASHEDX2
 70
    0
  3
Dashed (2x) ____  ____  ____  ____  ____  ___
 72
   65
 73
    2
 40
38.09999999999999
 49
25.4
 74
    0
 49
-12.7
 74
    0
  0
LTYPE
  5
3A
330
5
100
AcDbSymbolTableRecord
100
AcDbLinetypeTableRecord
  2
DASHDOT
 70
    0
  3
Dash dot __ . __ . __ . __ . __ . __ . __ . __
 72
   65
 73
    4
 40
25.4
 49
12.7
 74
    0
 49
-6.35
 74
    0
 49
0
 74
    0
 49
-6.35
 74
    0
  0
LTYPE
  5
3B
330
5
100
AcDbSymbolTableRecord
100
AcDbLinetypeTableRecord
  2
DASHDOTTINY
 70
    0
  3
Dash dot (.15x) _._._._._._._._._._._._._._._.
 72
   65
 73
    4
 40
3.81
 49
1.905
 74
    0
 49
-0.9525
 74
    0
 49
0
 74
    0
 49
-0.9525
 74
    0
  0
LTYPE
  5
3C
330
5
100
AcDbSymbolTableRecord
100
AcDbLinetypeTableRecord
  2
DASHDOT2
 70
    0
  3
Dash dot (.5x) _._._._._._._._._._._._._._._.
 72
   65
 73
    4
 40
12.7
 49
6.35
 74
    0
 49
-3.175
 74
    0
 49
0
 74
    0
 49
-3.175
 74
    0
  0
LTYPE
  5
3D
330
5
100
AcDbSymbolTableRecord
100
AcDbLinetypeTableRecord
  2
DASHDOTX2
 70
    0
  3
Dash dot (2x) ____  .  ____  .  ____  .  ___
 72
   65
 73
    4
 40
50.8
 49
25.4
 74
    0
 49
-12.7
 74
    0
 49
0
 74
    0
 49
-12.7
 74
    0
  0
LTYPE
  5
3E
330
5
100
AcDbSymbolTableRecord
100
AcDbLinetypeTableRecord
  2
DIVIDE
 70
    0
  3
Divide ____ . . ____ . . ____ . . ____ . . ____
 72
   65
 73
    6
 40
31.75
 49
12.7
 74
    0
 49
-6.35
 74
    0
 49
0
 74
    0
 49
-6.35
 74
    0
 49
0
 74
    0
 49
-6.35
 74
    0
  0
LTYPE
  5
3F
330
5
100
AcDbSymbolTableRecord
100
AcDbLinetypeTableRecord
  2
DIVIDETINY
 70
    0
  3
Divide (.15x) __..__..__..__..__..__..__..__.._
 72
   65
 73
    6
 40
4.7625
 49
1.905
 74
    0
 49
-0.9525
 74
    0
 49
0
 74
    0
 49
-0.9525
 74
    0
 49
0
 74
    0
 49
-0.9525
 74
    0
  0
LTYPE
  5
40
330
5
100
AcDbSymbolTableRecord
100
AcDbLinetypeTableRecord
  2
DIVIDE2
 70
    0
  3
Divide (.5x) __..__..__..__..__..__..__..__.._
 72
   65
 73
    6
 40
15.875
 49
6.35
 74
    0
 49
-3.175
 74
    0
 49
0
 74
    0
 49
-3.175
 74
    0
 49
0
 74
    0
 49
-3.175
 74
    0
  0
LTYPE
  5
41
330
5
100
AcDbSymbolTableRecord
100
AcDbLinetypeTableRecord
  2
DIVIDEX2
 70
    0
  3
Divide (2x) ________  .  .  ________  .  .  _
 72
   65
 73
    6
 40
63.5
 49
25.4
 74
    0
 49
-12.7
 74
    0
 49
0
 74
    0
 49
-12.7
 74
    0
 49
0
 74
    0
 49
-12.7
 74
    0
  0
LTYPE
  5
42
330
5
100
AcDbSymbolTableRecord
100
AcDbLinetypeTableRecord
  2
BORDER
 70
    0
  3
Border __ __ . __ __ . __ __ . __ __ . __ __ .
 72
   65
 73
    6
 40
44.45
 49
12.7
 74
    0
 49
-6.35
 74
    0
 49
12.7
 74
    0
 49
-6.35
 74
    0
 49
0
 74
    0
 49
-6.35
 74
    0
  0
LTYPE
  5
43
330
5
100
AcDbSymbolTableRecord
100
AcDbLinetypeTableRecord
  2
BORDERTINY
 70
    0
  3
Border (.15x) __.__.__.__.__.__.__.__.__.__.__.
 72
   65
 73
    6
 40
6.6675
 49
1.905
 74
    0
 49
-0.9525
 74
    0
 49
1.905
 74
    0
 49
-0.9525
 74
    0
 49
0
 74
    0
 49
-0.9525
 74
    0
  0
LTYPE
  5
44
330
5
100
AcDbSymbolTableRecord
100
AcDbLinetypeTableRecord
  2
BORDER2
 70
    0
  3
Border (.5x) __.__.__.__.__.__.__.__.__.__.__.
 72
   65
 73
    6
 40
22.225
 49
6.35
 74
    0
 49
-3.175
 74
    0
 49
6.35
 74
    0
 49
-3.175
 74
    0
 49
0
 74
    0
 49
-3.175
 74
    0
  0
LTYPE
  5
45
330
5
100
AcDbSymbolTableRecord
100
AcDbLinetypeTableRecord
  2
BORDERX2
 70
    0
  3
Border (2x) ____  ____  .  ____  ____  .  ___
 72
   65
 73
    6
 40
88.89999999999999
 49
25.4
 74
    0
 49
-12.7
 74
    0
 49
25.4
 74
    0
 49
-12.7
 74
    0
 49
0
 74
    0
 49
-12.7
 74
    0
  0
LTYPE
  5
46
330
5
100
AcDbSymbolTableRecord
100
AcDbLinetypeTableRecord
  2
CENTER
 70
    0
  3
Center ____ _ ____ _ ____ _ ____ _ ____ _ ____
 72
   65
 73
    4
 40
50.8
 49
31.75
 74
    0
 49
-6.35
 74
    0
 49
6.35
 74
    0
 49
-6.35
 74
    0
  0
LTYPE
  5
47
330
5
100
AcDbSymbolTableRecord
100
AcDbLinetypeTableRecord
  2
CENTERTINY
 70
    0
  3
Center (.15x) ___ _ ___ _ ___ _ ___ _ ___ _ ___
 72
   65
 73
    4
 40
7.62
 49
4.7625
 74
    0
 49
-0.9525
 74
    0
 49
0.9525
 74
    0
 49
-0.9525
 74
    0
  0
LTYPE
  5
48
330
5
100
AcDbSymbolTableRecord
100
AcDbLinetypeTableRecord
  2
CENTER2
 70
    0
  3
Center (.5x) ___ _ ___ _ ___ _ ___ _ ___ _ ___
 72
   65
 73
    4
 40
28.575
 49
19.05
 74
    0
 49
-3.175
 74
    0
 49
3.175
 74
    0
 49
-3.175
 74
    0
  0
LTYPE
  5
49
330
5
100
AcDbSymbolTableRecord
100
AcDbLinetypeTableRecord
  2
CENTERX2
 70
    0
  3
Center (2x) ________  __  ________  __  _____
 72
   65
 73
    4
 40
101.6
 49
63.5
 74
    0
 49
-12.7
 74
    0
 49
12.7
 74
    0
 49
-12.7
 74
    0
  0
ENDTAB
  0
TABLE
  2
LAYER
  5
2
330
0
100
AcDbSymbolTable
 70
    1
  0
LAYER
  5
10
330
2
100
AcDbSymbolTableRecord
100
AcDbLayerTableRecord
  2
0
 70
    0
 62
  255
  6
CONTINUOUS
370
   -3
390
F
  0
LAYER
  5
4A
330
2
100
AcDbSymbolTableRecord
100
AcDbLayerTableRecord
  2
DRAFT
 70
    0
 62
    4
  6
CONTINUOUS
370
   -3
390
F
  0
LAYER
  5
4B
330
2
100
AcDbSymbolTableRecord
100
AcDbLayerTableRecord
  2
GLISSIERE
 70
    0
 62
   96
  6
CONTINUOUS
370
   -3
390
F
  0
LAYER
  5
4C
330
2
100
AcDbSymbolTableRecord
100
AcDbLayerTableRecord
  2
GLISSIERE2
 70
    0
 62
   16
  6
CONTINUOUS
370
   -3
390
F
  0
LAYER
  5
4D
330
2
100
AcDbSymbolTableRecord
100
AcDbLayerTableRecord
  2
OpenJsCad
 70
    0
 62
    7
  6
CONTINUOUS
370
   -3
390
F
  0
LAYER
  5
4E
330
2
100
AcDbSymbolTableRecord
100
AcDbLayerTableRecord
  2
PLAQUEFOND
 70
    0
 62
  255
  6
CONTINUOUS
370
   -3
390
F
  0
LAYER
  5
4F
330
2
100
AcDbSymbolTableRecord
100
AcDbLayerTableRecord
  2
PORTE
 70
    0
 62
  176
  6
CONTINUOUS
370
   -3
390
F
  0
LAYER
  5
50
330
2
100
AcDbSymbolTableRecord
100
AcDbLayerTableRecord
  2
VEROULLAGE
 70
    0
 62
  216
  6
CONTINUOUS
370
   -3
390
F
  0
LAYER
  5
51
330
2
100
AcDbSymbolTableRecord
100
AcDbLayerTableRecord
  2
VEROULLAGE2
 70
    0
 62
    5
  6
CONTINUOUS
370
   -3
390
F
  0
ENDTAB
  0
TABLE
  2
STYLE
  5
3
330
0
100
AcDbSymbolTable
 70
    3
  0
STYLE
  5
52
330
2
100
AcDbSymbolTableRecord
100
AcDbTextStyleTableRecord
  2
Standard
 70
    0
 40
0
 41
1
 50
0
 71
    0
 42
1
  3
txt
  4

  0
ENDTAB
  0
TABLE
  2
VIEW
  5
6
330
0
100
AcDbSymbolTable
 70
    0
  0
ENDTAB
  0
TABLE
  2
UCS
  5
7
330
0
100
AcDbSymbolTable
 70
    0
  0
ENDTAB
  0
TABLE
  2
APPID
  5
9
330
0
100
AcDbSymbolTable
 70
    1
  0
APPID
  5
12
330
9
100
AcDbSymbolTableRecord
100
AcDbRegAppTableRecord
  2
ACAD
 70
    0
  0
APPID
  5
53
330
9
100
AcDbSymbolTableRecord
100
AcDbRegAppTableRecord
  2
LibreCad
 70
    0
  0
ENDTAB
  0
TABLE
  2
DIMSTYLE
  5
A
330
0
100
AcDbSymbolTable
 70
    1
100
AcDbDimStyleTable
 71
    1
  0
DIMSTYLE
105
54
330
A
100
AcDbSymbolTableRecord
100
AcDbDimStyleTableRecord
  2
Standard
 70
    0
 40
2.5
 41
2.5
 42
0.625
 43
0.38
 44
1.25
 45
0
 46
0
 47
0
 48
0
 49
1
140
2.5
141
0.09
142
0
143
25.4
144
1
145
0
146
1
147
0.625
148
0
 71
    0
 72
    0
 73
    0
 74
    1
 75
    0
 76
    0
 77
    0
 78
    8
 79
    0
170
    0
171
    2
172
    0
173
    0
174
    0
175
    0
176
    0
177
    0
178
    0
179
    0
271
    4
272
    4
273
    2
274
    2
275
    0
276
    0
277
    2
278
   44
279
    0
280
    0
281
    0
282
    0
283
    1
284
    0
285
    0
286
    0
288
    0
289
    3
340
STANDARD
341

371
   -2
372
   -2
  0
ENDTAB
  0
TABLE
  2
BLOCK_RECORD
  5
1
330
0
100
AcDbSymbolTable
 70
    2
  0
BLOCK_RECORD
  5
1F
330
1
100
AcDbSymbolTableRecord
100
AcDbBlockTableRecord
  2
*Model_Space
 70
    0
280
    1
281
    0
  0
BLOCK_RECORD
  5
1E
330
1
100
AcDbSymbolTableRecord
100
AcDbBlockTableRecord
  2
*Paper_Space
 70
    0
280
    1
281
    0
  0
BLOCK_RECORD
  5
55
330
1
100
AcDbSymbolTableRecord
100
AcDbBlockTableRecord
  2
*D1
 70
    0
280
    1
281
    0
  0
BLOCK_RECORD
  5
58
330
1
100
AcDbSymbolTableRecord
100
AcDbBlockTableRecord
  2
*D2
 70
    0
280
    1
281
    0
  0
ENDTAB
  0
ENDSEC
  0
SECTION
  2
BLOCKS
  0
BLOCK
  5
20
330
1F
100
AcDbEntity
  8
0
100
AcDbBlockBegin
  2
*Model_Space
 70
    0
 10
0
 20
0
 30
0
  3
*Model_Space
  1

  0
ENDBLK
  5
21
330
1F
100
AcDbEntity
  8
0
100
AcDbBlockEnd
  0
BLOCK
  5
1C
330
1B
100
AcDbEntity
  8
0
100
AcDbBlockBegin
  2
*Paper_Space
 70
    0
 10
0
 20
0
 30
0
  3
*Paper_Space
  1

  0
ENDBLK
  5
1D
330
1F
100
AcDbEntity
  8
0
100
AcDbBlockEnd
  0
BLOCK
  5
56
330
55
100
AcDbEntity
  8
0
100
AcDbBlockBegin
  2
*D1
 70
    1
 10
0
 20
0
  3
*D1
  1

  0
LINE
  5
5B
100
AcDbEntity
  8
VEROULLAGE2
  6
ByBlock
 62
    0
370
   -2
100
AcDbLine
 10
-960.0000000000001
 20
890
 11
-839.9999999999999
 21
890
  0
SOLID
  5
5C
100
AcDbEntity
  8
VEROULLAGE2
  6
ByBlock
 62
    0
370
   -2
100
AcDbTrace
 10
-960.0000000000001
 20
890
 30
0
 11
-953.7500000000001
 21
891.0407116444321
 31
0
 12
-953.7500000000001
 22
888.9592883555679
 32
0
 13
-953.7500000000001
 23
888.9592883555679
 33
0
  0
SOLID
  5
5D
100
AcDbEntity
  8
VEROULLAGE2
  6
ByBlock
 62
    0
370
   -2
100
AcDbTrace
 10
-839.9999999999999
 20
890
 30
0
 11
-846.2499999999999
 21
888.9592883555679
 31
0
 12
-846.2499999999999
 22
891.0407116444321
 32
0
 13
-846.2499999999999
 23
891.0407116444321
 33
0
  0
MTEXT
  5
5E
100
AcDbEntity
  8
VEROULLAGE2
  6
CONTINUOUS
 62
    0
370
   -2
100
AcDbMText
 10
-900
 20
894.6875
 30
0
 40
6.25
 41
11.11111111111111
 71
    5
 72
    1
  1
120
  7
STANDARD
210
0
220
0
230
1
 50
0
 73
    2
 44
1
  0
LINE
  5
5F
100
AcDbEntity
  8
VEROULLAGE2
  6
ByBlock
 62
    0
370
   -2
100
AcDbLine
 10
-960.0000000000001
 20
858.0625
 11
-960.0000000000001
 21
893.125
  0
LINE
  5
60
100
AcDbEntity
  8
VEROULLAGE2
  6
ByBlock
 62
    0
370
   -2
100
AcDbLine
 10
-839.9999999999999
 20
858.0625
 11
-839.9999999999999
 21
893.125
  0
ENDBLK
  5
57
330
55
100
AcDbEntity
  8
0
100
AcDbBlockEnd
  0
BLOCK
  5
59
330
58
100
AcDbEntity
  8
0
100
AcDbBlockBegin
  2
*D2
 70
    1
 10
0
 20
0
  3
*D2
  1

  0
LINE
  5
61
100
AcDbEntity
  8
VEROULLAGE2
  6
ByBlock
 62
    0
370
   -2
100
AcDbLine
 10
-980
 20
867.5
 11
-980
 21
832.5
  0
SOLID
  5
62
100
AcDbEntity
  8
VEROULLAGE2
  6
ByBlock
 62
    0
370
   -2
100
AcDbTrace
 10
-980
 20
855
 30
0
 11
-981.0407116444321
 21
861.25
 31
0
 12
-978.9592883555679
 22
861.25
 32
0
 13
-978.9592883555679
 23
861.25
 33
0
  0
SOLID
  5
63
100
AcDbEntity
  8
VEROULLAGE2
  6
ByBlock
 62
    0
370
   -2
100
AcDbTrace
 10
-980
 20
845
 30
0
 11
-978.9592883555679
 21
838.75
 31
0
 12
-981.0407116444321
 22
838.75
 32
0
 13
-981.0407116444321
 23
838.75
 33
0
  0
MTEXT
  5
64
100
AcDbEntity
  8
VEROULLAGE2
  6
CONTINUOUS
 62
    0
370
   -2
100
AcDbMText
 10
-984.6875
 20
850
 30
0
 40
6.25
 41
6.25
 71
    5
 72
    1
  1
10
  7
STANDARD
210
0
220
0
230
1
 50
90
 73
    2
 44
1
  0
LINE
  5
65
100
AcDbEntity
  8
VEROULLAGE2
  6
ByBlock
 62
    0
370
   -2
100
AcDbLine
 10
-961.5625
 20
855
 11
-983.125
 21
855
  0
LINE
  5
66
100
AcDbEntity
  8
VEROULLAGE2
  6
ByBlock
 62
    0
370
   -2
100
AcDbLine
 10
-961.5625
 20
845
 11
-983.125
 21
845
  0
ENDBLK
  5
5A
330
58
100
AcDbEntity
  8
0
100
AcDbBlockEnd
  0
ENDSEC
  0
SECTION
  2
ENTITIES
  0
LINE
  5
67
100
AcDbEntity
  8
DRAFT
  6
DASHDOT
 62
  256
370
   -1
100
AcDbLine
 10
0
 20
-40
 11
0
 21
150
  0
LWPOLYLINE
  5
68
100
AcDbEntity
  8
VEROULLAGE
  6
ByLayer
 62
  256
370
   -1
100
AcDbPolyline
 90
    4
 70
    1
 43
0
 10
40
 20
60
 10
40
 20
210
 42
0.9999999999999999
 10
-40
 20
210
 10
-40
 20
60
  0
LWPOLYLINE
  5
69
100
AcDbEntity
  8
PORTE
  6
ByLayer
 62
  256
370
   -1
100
AcDbPolyline
 90
    8
 70
    1
 43
0
 10
0
 20
320
 10
-105
 20
320
 42
0.414213562373095
 10
-110
 20
315
 10
-110
 20
0
 10
0
 20
0
 10
110
 20
0
 10
110
 20
315
 42
0.414213562373095
 10
105
 20
320
  0
CIRCLE
  5
6A
100
AcDbEntity
  8
VEROULLAGE
  6
ByLayer
 62
  256
370
   -1
100
AcDbCircle
 10
-40
 20
685
 40
1
  0
CIRCLE
  5
6B
100
AcDbEntity
  8
VEROULLAGE
  6
ByLayer
 62
  256
370
   -1
100
AcDbCircle
 10
40
 20
685
 40
1
  0
CIRCLE
  5
6C
100
AcDbEntity
  8
PLAQUEFOND
  6
ByLayer
 62
  256
370
   -1
100
AcDbCircle
 10
-40
 20
685
 40
1
  0
CIRCLE
  5
6D
100
AcDbEntity
  8
PLAQUEFOND
  6
ByLayer
 62
  256
370
   -1
100
AcDbCircle
 10
40
 20
685
 40
1
  0
LWPOLYLINE
  5
6E
100
AcDbEntity
  8
VEROULLAGE
  6
ByLayer
 62
  256
370
   -1
100
AcDbPolyline
 90
    4
 70
    1
 43
0
 10
-50
 20
680
 10
50
 20
680
 10
50
 20
690
 10
-50
 20
690
  0
LWPOLYLINE
  5
6F
100
AcDbEntity
  8
VEROULLAGE
  6
ByLayer
 62
  256
370
   -1
100
AcDbPolyline
 90
   12
 70
    1
 43
0
 10
20
 20
710
 10
20
 20
720
 10
50
 20
720
 10
50
 20
730
 10
30
 20
730
 10
10
 20
750
 10
-10
 20
750
 10
-30
 20
730
 10
-50
 20
730
 10
-50
 20
720
 10
-20
 20
720
 10
-20
 20
710
  0
LWPOLYLINE
  5
70
100
AcDbEntity
  8
PLAQUEFOND
  6
ByLayer
 62
  256
370
   -1
100
AcDbPolyline
 90
    7
 70
    0
 43
0
 10
0
 20
700
 10
-160
 20
700
 10
-160
 20
-20
 10
0
 20
-20
 10
160
 20
-20
 10
160
 20
700
 10
0
 20
700
  0
LWPOLYLINE
  5
71
100
AcDbEntity
  8
PLAQUEFOND
  6
ByLayer
 62
  256
370
   -1
100
AcDbPolyline
 90
    7
 70
    0
 43
0
 10
100
 20
10
 10
100
 20
295
 42
0.414213562373095
 10
95
 20
300
 10
-95
 20
300
 42
0.414213562373095
 10
-100
 20
295
 10
-100
 20
10
 10
100
 20
10
  0
LWPOLYLINE
  5
72
100
AcDbEntity
  8
PLAQUEFOND
  6
ByLayer
 62
  256
370
   -1
100
AcDbPolyline
 90
    5
 70
    0
 43
0
 10
-20
 20
680
 10
20
 20
680
 10
20
 20
690
 10
-20
 20
690
 10
-20
 20
680
  0
CIRCLE
  5
73
100
AcDbEntity
  8
PORTE
  6
ByLayer
 62
  256
370
   -1
100
AcDbCircle
 10
94
 20
288
 40
1
  0
CIRCLE
  5
74
100
AcDbEntity
  8
PORTE
  6
ByLayer
 62
  256
370
   -1
100
AcDbCircle
 10
-94
 20
288
 40
1
  0
CIRCLE
  5
75
100
AcDbEntity
  8
VEROULLAGE
  6
ByLayer
 62
  256
370
   -1
100
AcDbCircle
 10
0
 20
240
 40
3
  0
LWPOLYLINE
  5
76
100
AcDbEntity
  8
PLAQUEFOND
  6
ByLayer
 62
  256
370
   -1
100
AcDbPolyline
 90
    4
 70
    1
 43
0
 10
-112
 20
580
 10
-112
 20
560
 10
-122
 20
560
 10
-122
 20
580
  0
LWPOLYLINE
  5
77
100
AcDbEntity
  8
PLAQUEFOND
  6
ByLayer
 62
  256
370
   -1
100
AcDbPolyline
 90
    4
 70
    1
 43
0
 10
-112
 20
370
 10
-112
 20
350
 10
-122
 20
350
 10
-122
 20
370
  0
LWPOLYLINE
  5
78
100
AcDbEntity
  8
PLAQUEFOND
  6
ByLayer
 62
  256
370
   -1
100
AcDbPolyline
 90
    4
 70
    1
 43
0
 10
-112
 20
480
 10
-112
 20
460
 10
-122
 20
460
 10
-122
 20
480
  0
CIRCLE
  5
79
100
AcDbEntity
  8
PLAQUEFOND
  6
ByLayer
 62
  256
370
   -1
100
AcDbCircle
 10
-117
 20
265
 40
1
  0
LWPOLYLINE
  5
7A
100
AcDbEntity
  8
PLAQUEFOND
  6
ByLayer
 62
  256
370
   -1
100
AcDbPolyline
 90
    4
 70
    1
 43
0
 10
-112
 20
40
 10
-112
 20
20
 10
-122
 20
20
 10
-122
 20
40
  0
LWPOLYLINE
  5
7B
100
AcDbEntity
  8
PLAQUEFOND
  6
ByLayer
 62
  256
370
   -1
100
AcDbPolyline
 90
    4
 70
    1
 43
0
 10
-112
 20
150
 10
-112
 20
130
 10
-122
 20
130
 10
-122
 20
150
  0
CIRCLE
  5
7C
100
AcDbEntity
  8
PLAQUEFOND
  6
ByLayer
 62
  256
370
   -1
100
AcDbCircle
 10
-117
 20
160
 40
1
  0
CIRCLE
  5
7D
100
AcDbEntity
  8
PLAQUEFOND
  6
ByLayer
 62
  256
370
   -1
100
AcDbCircle
 10
-117
 20
110
 40
1
  0
CIRCLE
  5
7E
100
AcDbEntity
  8
PLAQUEFOND
  6
ByLayer
 62
  256
370
   -1
100
AcDbCircle
 10
-117
 20
10
 40
1
  0
CIRCLE
  5
7F
100
AcDbEntity
  8
PLAQUEFOND
  6
ByLayer
 62
  256
370
   -1
100
AcDbCircle
 10
-117
 20
60
 40
1
  0
CIRCLE
  5
80
100
AcDbEntity
  8
PLAQUEFOND
  6
ByLayer
 62
  256
370
   -1
100
AcDbCircle
 10
-117
 20
85
 40
1
  0
CIRCLE
  5
81
100
AcDbEntity
  8
PLAQUEFOND
  6
ByLayer
 62
  256
370
   -1
100
AcDbCircle
 10
-116
 20
330
 40
1
  0
CIRCLE
  5
82
100
AcDbEntity
  8
PLAQUEFOND
  6
ByLayer
 62
  256
370
   -1
100
AcDbCircle
 10
-117
 20
190
 40
1
  0
CIRCLE
  5
83
100
AcDbEntity
  8
PLAQUEFOND
  6
ByLayer
 62
  256
370
   -1
100
AcDbCircle
 10
-117
 20
215
 40
1
  0
CIRCLE
  5
84
100
AcDbEntity
  8
PLAQUEFOND
  6
ByLayer
 62
  256
370
   -1
100
AcDbCircle
 10
-117
 20
300
 40
1
  0
CIRCLE
  5
85
100
AcDbEntity
  8
PLAQUEFOND
  6
ByLayer
 62
  256
370
   -1
100
AcDbCircle
 10
-117
 20
390
 40
1
  0
CIRCLE
  5
86
100
AcDbEntity
  8
PLAQUEFOND
  6
ByLayer
 62
  256
370
   -1
100
AcDbCircle
 10
-117
 20
440
 40
1
  0
CIRCLE
  5
87
100
AcDbEntity
  8
PLAQUEFOND
  6
ByLayer
 62
  256
370
   -1
100
AcDbCircle
 10
-117
 20
415
 40
1
  0
CIRCLE
  5
88
100
AcDbEntity
  8
PLAQUEFOND
  6
ByLayer
 62
  256
370
   -1
100
AcDbCircle
 10
-117
 20
500
 40
1
  0
CIRCLE
  5
89
100
AcDbEntity
  8
PLAQUEFOND
  6
ByLayer
 62
  256
370
   -1
100
AcDbCircle
 10
-117
 20
540
 40
1
  0
CIRCLE
  5
8A
100
AcDbEntity
  8
PLAQUEFOND
  6
ByLayer
 62
  256
370
   -1
100
AcDbCircle
 10
-117
 20
520
 40
1
  0
CIRCLE
  5
8B
100
AcDbEntity
  8
PLAQUEFOND
  6
ByLayer
 62
  256
370
   -1
100
AcDbCircle
 10
-117
 20
590
 40
1
  0
LWPOLYLINE
  5
8C
100
AcDbEntity
  8
PLAQUEFOND
  6
ByLayer
 62
  256
370
   -1
100
AcDbPolyline
 90
    4
 70
    1
 43
0
 10
-112
 20
650
 10
-112
 20
630
 10
-122
 20
630
 10
-122
 20
650
  0
CIRCLE
  5
8D
100
AcDbEntity
  8
PLAQUEFOND
  6
ByLayer
 62
  256
370
   -1
100
AcDbCircle
 10
-117
 20
620
 40
1
  0
CIRCLE
  5
8E
100
AcDbEntity
  8
PLAQUEFOND
  6
ByLayer
 62
  256
370
   -1
100
AcDbCircle
 10
-117
 20
660
 40
1
  0
LWPOLYLINE
  5
8F
100
AcDbEntity
  8
PLAQUEFOND
  6
ByLayer
 62
  256
370
   -1
100
AcDbPolyline
 90
    4
 70
    1
 43
0
 10
112
 20
580
 10
112
 20
560
 10
122
 20
560
 10
122
 20
580
  0
LWPOLYLINE
  5
90
100
AcDbEntity
  8
PLAQUEFOND
  6
ByLayer
 62
  256
370
   -1
100
AcDbPolyline
 90
    4
 70
    1
 43
0
 10
112
 20
370
 10
112
 20
350
 10
122
 20
350
 10
122
 20
370
  0
LWPOLYLINE
  5
91
100
AcDbEntity
  8
PLAQUEFOND
  6
ByLayer
 62
  256
370
   -1
100
AcDbPolyline
 90
    4
 70
    1
 43
0
 10
112
 20
480
 10
112
 20
460
 10
122
 20
460
 10
122
 20
480
  0
CIRCLE
  5
92
100
AcDbEntity
  8
PLAQUEFOND
  6
ByLayer
 62
  256
370
   -1
100
AcDbCircle
 10
117
 20
265
 40
1
  0
LWPOLYLINE
  5
93
100
AcDbEntity
  8
PLAQUEFOND
  6
ByLayer
 62
  256
370
   -1
100
AcDbPolyline
 90
    4
 70
    1
 43
0
 10
112
 20
40
 10
112
 20
20
 10
122
 20
20
 10
122
 20
40
  0
LWPOLYLINE
  5
94
100
AcDbEntity
  8
PLAQUEFOND
  6
ByLayer
 62
  256
370
   -1
100
AcDbPolyline
 90
    4
 70
    1
 43
0
 10
112
 20
150
 10
112
 20
130
 10
122
 20
130
 10
122
 20
150
  0
CIRCLE
  5
95
100
AcDbEntity
  8
PLAQUEFOND
  6
ByLayer
 62
  256
370
   -1
100
AcDbCircle
 10
117
 20
160
 40
1
  0
CIRCLE
  5
96
100
AcDbEntity
  8
PLAQUEFOND
  6
ByLayer
 62
  256
370
   -1
100
AcDbCircle
 10
117
 20
110
 40
1
  0
CIRCLE
  5
97
100
AcDbEntity
  8
PLAQUEFOND
  6
ByLayer
 62
  256
370
   -1
100
AcDbCircle
 10
117
 20
10
 40
1
  0
CIRCLE
  5
98
100
AcDbEntity
  8
PLAQUEFOND
  6
ByLayer
 62
  256
370
   -1
100
AcDbCircle
 10
117
 20
60
 40
1
  0
CIRCLE
  5
99
100
AcDbEntity
  8
PLAQUEFOND
  6
ByLayer
 62
  256
370
   -1
100
AcDbCircle
 10
117
 20
85
 40
1
  0
CIRCLE
  5
9A
100
AcDbEntity
  8
PLAQUEFOND
  6
ByLayer
 62
  256
370
   -1
100
AcDbCircle
 10
116
 20
330
 40
1
  0
CIRCLE
  5
9B
100
AcDbEntity
  8
PLAQUEFOND
  6
ByLayer
 62
  256
370
   -1
100
AcDbCircle
 10
117
 20
190
 40
1
  0
CIRCLE
  5
9C
100
AcDbEntity
  8
PLAQUEFOND
  6
ByLayer
 62
  256
370
   -1
100
AcDbCircle
 10
117
 20
215
 40
1
  0
CIRCLE
  5
9D
100
AcDbEntity
  8
PLAQUEFOND
  6
ByLayer
 62
  256
370
   -1
100
AcDbCircle
 10
117
 20
300
 40
1
  0
CIRCLE
  5
9E
100
AcDbEntity
  8
PLAQUEFOND
  6
ByLayer
 62
  256
370
   -1
100
AcDbCircle
 10
117
 20
390
 40
1
  0
CIRCLE
  5
9F
100
AcDbEntity
  8
PLAQUEFOND
  6
ByLayer
 62
  256
370
   -1
100
AcDbCircle
 10
117
 20
440
 40
1
  0
CIRCLE
  5
A0
100
AcDbEntity
  8
PLAQUEFOND
  6
ByLayer
 62
  256
370
   -1
100
AcDbCircle
 10
117
 20
415
 40
1
  0
CIRCLE
  5
A1
100
AcDbEntity
  8
PLAQUEFOND
  6
ByLayer
 62
  256
370
   -1
100
AcDbCircle
 10
117
 20
500
 40
1
  0
CIRCLE
  5
A2
100
AcDbEntity
  8
PLAQUEFOND
  6
ByLayer
 62
  256
370
   -1
100
AcDbCircle
 10
117
 20
540
 40
1
  0
CIRCLE
  5
A3
100
AcDbEntity
  8
PLAQUEFOND
  6
ByLayer
 62
  256
370
   -1
100
AcDbCircle
 10
117
 20
520
 40
1
  0
CIRCLE
  5
A4
100
AcDbEntity
  8
PLAQUEFOND
  6
ByLayer
 62
  256
370
   -1
100
AcDbCircle
 10
117
 20
590
 40
1
  0
LWPOLYLINE
  5
A5
100
AcDbEntity
  8
PLAQUEFOND
  6
ByLayer
 62
  256
370
   -1
100
AcDbPolyline
 90
    4
 70
    1
 43
0
 10
112
 20
650
 10
112
 20
630
 10
122
 20
630
 10
122
 20
650
  0
CIRCLE
  5
A6
100
AcDbEntity
  8
PLAQUEFOND
  6
ByLayer
 62
  256
370
   -1
100
AcDbCircle
 10
117
 20
620
 40
1
  0
CIRCLE
  5
A7
100
AcDbEntity
  8
PLAQUEFOND
  6
ByLayer
 62
  256
370
   -1
100
AcDbCircle
 10
117
 20
660
 40
1
  0
LWPOLYLINE
  5
A8
100
AcDbEntity
  8
PLAQUEFOND
  6
ByLayer
 62
  256
370
   -1
100
AcDbPolyline
 90
    5
 70
    0
 43
0
 10
112
 20
227
 10
122
 20
227
 10
122
 20
250
 10
112
 20
250
 10
112
 20
227
  0
LWPOLYLINE
  5
A9
100
AcDbEntity
  8
PLAQUEFOND
  6
ByLayer
 62
  256
370
   -1
100
AcDbPolyline
 90
    5
 70
    0
 43
0
 10
-112
 20
227
 10
-122
 20
227
 10
-122
 20
250
 10
-112
 20
250
 10
-112
 20
227
  0
LWPOLYLINE
  5
AA
100
AcDbEntity
  8
GLISSIERE
  6
ByLayer
 62
  256
370
   -1
100
AcDbPolyline
 90
    4
 70
    1
 43
0
 10
-122
 20
670
 10
-112
 20
670
 10
-112
 20
0
 10
-122
 20
0
  0
LWPOLYLINE
  5
AB
100
AcDbEntity
  8
GLISSIERE
  6
ByLayer
 62
  256
370
   -1
100
AcDbPolyline
 90
    4
 70
    1
 43
0
 10
122
 20
670
 10
112
 20
670
 10
112
 20
0
 10
122
 20
0
  0
LWPOLYLINE
  5
AC
100
AcDbEntity
  8
GLISSIERE2
  6
ByLayer
 62
  256
370
   -1
100
AcDbPolyline
 90
    4
 70
    1
 43
0
 10
-102
 20
0
 10
-102
 20
670
 10
-122
 20
670
 10
-122
 20
0
  0
LWPOLYLINE
  5
AD
100
AcDbEntity
  8
VEROULLAGE
  6
ByLayer
 62
  256
370
   -1
100
AcDbPolyline
 90
   16
 70
    1
 43
0
 10
-202
 20
210
 10
-189
 20
210
 10
-189
 20
190
 10
-179
 20
190
 10
-179
 20
170
 10
-189
 20
170
 10
-189
 20
140
 10
-179
 20
140
 10
-179
 20
120
 10
-189
 20
120
 10
-189
 20
90
 10
-179
 20
90
 10
-179
 20
70
 10
-189
 20
70
 10
-189
 20
50
 10
-202
 20
50
  0
CIRCLE
  5
AE
100
AcDbEntity
  8
VEROULLAGE
  6
ByLayer
 62
  256
370
   -1
100
AcDbCircle
 10
0
 20
742
 40
3
  0
LWPOLYLINE
  5
AF
100
AcDbEntity
  8
GLISSIERE2
  6
ByLayer
 62
  256
370
   -1
100
AcDbPolyline
 90
    4
 70
    1
 43
0
 10
-10
 20
56
 10
10
 20
56
 10
10
 20
206
 10
-10
 20
206
  0
LWPOLYLINE
  5
B0
100
AcDbEntity
  8
GLISSIERE2
  6
ByLayer
 62
  256
370
   -1
100
AcDbPolyline
 90
    4
 70
    1
 43
0
 10
100
 20
226
 10
100
 20
206
 10
-100
 20
206
 10
-100
 20
226
  0
LWPOLYLINE
  5
B1
100
AcDbEntity
  8
PORTE
  6
ByLayer
 62
  256
370
   -1
100
AcDbPolyline
 90
    4
 70
    1
 43
0
 10
-52
 20
180
 10
-52
 20
160
 10
-42
 20
160
 10
-42
 20
180
  0
LWPOLYLINE
  5
B2
100
AcDbEntity
  8
PORTE
  6
ByLayer
 62
  256
370
   -1
100
AcDbPolyline
 90
    4
 70
    1
 43
0
 10
-42
 20
60
 10
-42
 20
80
 10
-52
 20
80
 10
-52
 20
60
  0
LWPOLYLINE
  5
B3
100
AcDbEntity
  8
PORTE
  6
ByLayer
 62
  256
370
   -1
100
AcDbPolyline
 90
    4
 70
    1
 43
0
 10
-52
 20
110
 10
-42
 20
110
 10
-42
 20
130
 10
-52
 20
130
  0
LWPOLYLINE
  5
B4
100
AcDbEntity
  8
VEROULLAGE
  6
ByLayer
 62
  256
370
   -1
100
AcDbPolyline
 90
    4
 70
    1
 43
0
 10
-52
 20
200
 10
-52
 20
40
 10
-42
 20
40
 10
-42
 20
200
  0
CIRCLE
  5
B5
100
AcDbEntity
  8
PORTE
  6
ByLayer
 62
  256
370
   -1
100
AcDbCircle
 10
-47
 20
190
 40
1
  0
CIRCLE
  5
B6
100
AcDbEntity
  8
PORTE
  6
ByLayer
 62
  256
370
   -1
100
AcDbCircle
 10
-47
 20
145
 40
1
  0
CIRCLE
  5
B7
100
AcDbEntity
  8
PORTE
  6
ByLayer
 62
  256
370
   -1
100
AcDbCircle
 10
-47
 20
95
 40
1
  0
CIRCLE
  5
B8
100
AcDbEntity
  8
PORTE
  6
ByLayer
 62
  256
370
   -1
100
AcDbCircle
 10
-47
 20
50
 40
1
  0
LWPOLYLINE
  5
B9
100
AcDbEntity
  8
GLISSIERE2
  6
ByLayer
 62
  256
370
   -1
100
AcDbPolyline
 90
    4
 70
    1
 43
0
 10
-30
 20
40
 10
-30
 20
200
 10
-52
 20
200
 10
-52
 20
40
  0
LWPOLYLINE
  5
BA
100
AcDbEntity
  8
PORTE
  6
ByLayer
 62
  256
370
   -1
100
AcDbPolyline
 90
    4
 70
    1
 43
0
 10
52
 20
180
 10
52
 20
160
 10
42
 20
160
 10
42
 20
180
  0
LWPOLYLINE
  5
BB
100
AcDbEntity
  8
PORTE
  6
ByLayer
 62
  256
370
   -1
100
AcDbPolyline
 90
    4
 70
    1
 43
0
 10
42
 20
60
 10
42
 20
80
 10
52
 20
80
 10
52
 20
60
  0
LWPOLYLINE
  5
BC
100
AcDbEntity
  8
PORTE
  6
ByLayer
 62
  256
370
   -1
100
AcDbPolyline
 90
    4
 70
    1
 43
0
 10
52
 20
110
 10
42
 20
110
 10
42
 20
130
 10
52
 20
130
  0
LWPOLYLINE
  5
BD
100
AcDbEntity
  8
VEROULLAGE
  6
ByLayer
 62
  256
370
   -1
100
AcDbPolyline
 90
    4
 70
    1
 43
0
 10
52
 20
200
 10
52
 20
40
 10
42
 20
40
 10
42
 20
200
  0
CIRCLE
  5
BE
100
AcDbEntity
  8
PORTE
  6
ByLayer
 62
  256
370
   -1
100
AcDbCircle
 10
47
 20
190
 40
1
  0
CIRCLE
  5
BF
100
AcDbEntity
  8
PORTE
  6
ByLayer
 62
  256
370
   -1
100
AcDbCircle
 10
47
 20
145
 40
1
  0
CIRCLE
  5
C0
100
AcDbEntity
  8
PORTE
  6
ByLayer
 62
  256
370
   -1
100
AcDbCircle
 10
47
 20
95
 40
1
  0
CIRCLE
  5
C1
100
AcDbEntity
  8
PORTE
  6
ByLayer
 62
  256
370
   -1
100
AcDbCircle
 10
47
 20
50
 40
1
  0
LINE
  5
C2
100
AcDbEntity
  8
VEROULLAGE
  6
ByLayer
 62
  256
370
   -1
100
AcDbLine
 10
-800
 20
900
 11
-800
 21
800
  0
LINE
  5
C3
100
AcDbEntity
  8
VEROULLAGE
  6
ByLayer
 62
  256
370
   -1
100
AcDbLine
 10
-800
 20
800
 11
-1000
 21
800
  0
LINE
  5
C4
100
AcDbEntity
  8
VEROULLAGE
  6
ByLayer
 62
  256
370
   -1
100
AcDbLine
 10
-1000
 20
900
 11
-800
 21
900
  0
LINE
  5
C5
100
AcDbEntity
  8
VEROULLAGE
  6
ByLayer
 62
  256
370
   -1
100
AcDbLine
 10
-1000
 20
800
 11
-1000
 21
900
  0
LINE
  5
C6
100
AcDbEntity
  8
VEROULLAGE
  6
ByLayer
 62
  256
370
   -1
100
AcDbLine
 10
-960
 20
1000
 11
-960
 21
970
  0
LWPOLYLINE
  5
C7
100
AcDbEntity
  8
VEROULLAGE
  6
ByLayer
 62
  256
370
   -1
100
AcDbPolyline
 90
   16
 70
    1
 43
0
 10
-775.0000005587935
 20
998.5000000335276
 10
-775.0000005587935
 20
1001.499999966472
 10
-775.0000005587935
 20
1014.999999664724
 10
-777.0000005140901
 20
1014.999999664724
 10
-787.0388246323967
 20
1005.000000074506
 10
-813.0386745725164
 20
1005.000000074506
 10
-823.0000003427267
 20
1015.000000223517
 10
-825
 20
1015.000000223517
 10
-825
 20
1001.499999966472
 10
-825
 20
998.5000000335276
 10
-825
 20
984.9999997764826
 10
-823.0000003427267
 20
984.9999997764826
 10
-813.0386745725164
 20
994.9999999254942
 10
-787.0388246323967
 20
994.9999999254942
 10
-777.0000005140901
 20
985.0000003352761
 10
-775.0000005587935
 20
985.0000003352761
  0
LWPOLYLINE
  5
C8
100
AcDbEntity
  8
VEROULLAGE
  6
ByLayer
 62
  256
370
   -1
100
AcDbPolyline
 90
   16
 70
    1
 43
0
 10
-875.0000005587935
 20
848.5000000335276
 10
-875.0000005587935
 20
851.4999999664724
 10
-875.0000005587935
 20
864.9999996647239
 10
-877.0000005140901
 20
864.9999996647239
 10
-887.0388246323967
 20
855.0000000745058
 10
-913.0386745725164
 20
855.0000000745058
 10
-923.0000003427267
 20
865.0000002235174
 10
-925
 20
865.0000002235174
 10
-925
 20
851.4999999664724
 10
-925
 20
848.5000000335276
 10
-925
 20
834.9999997764826
 10
-923.0000003427267
 20
834.9999997764826
 10
-913.0386745725164
 20
844.9999999254942
 10
-887.0388246323967
 20
844.9999999254942
 10
-877.0000005140901
 20
835.0000003352761
 10
-875.0000005587935
 20
835.0000003352761
  0
LINE
  5
C9
100
AcDbEntity
  8
VEROULLAGE
  6
ByLayer
 62
  256
370
   -1
100
AcDbLine
 10
-926.0000000000001
 20
855
 11
-926
 21
845
  0
LINE
  5
CA
100
AcDbEntity
  8
VEROULLAGE
  6
ByLayer
 62
  256
370
   -1
100
AcDbLine
 10
-927
 20
845
 11
-927
 21
855
  0
LINE
  5
CB
100
AcDbEntity
  8
VEROULLAGE
  6
ByLayer
 62
  256
370
   -1
100
AcDbLine
 10
-926
 20
845
 11
-951
 21
845
  0
LINE
  5
CC
100
AcDbEntity
  8
VEROULLAGE
  6
ByLayer
 62
  256
370
   -1
100
AcDbLine
 10
-951
 20
845
 11
-951
 21
855
  0
LINE
  5
CD
100
AcDbEntity
  8
VEROULLAGE
  6
ByLayer
 62
  256
370
   -1
100
AcDbLine
 10
-951
 20
855
 11
-926
 21
855
  0
LINE
  5
CE
100
AcDbEntity
  8
VEROULLAGE
  6
ByLayer
 62
  256
370
   -1
100
AcDbLine
 10
-925.9999999999999
 20
856.5
 11
-926
 21
855
  0
LINE
  5
CF
100
AcDbEntity
  8
VEROULLAGE
  6
ByLayer
 62
  256
370
   -1
100
AcDbLine
 10
-926
 20
845
 11
-926
 21
845
  0
LINE
  5
D0
100
AcDbEntity
  8
VEROULLAGE
  6
ByLayer
 62
  256
370
   -1
100
AcDbLine
 10
-926
 20
845
 11
-926
 21
843.5
  0
LINE
  5
D1
100
AcDbEntity
  8
VEROULLAGE
  6
ByLayer
 62
  256
370
   -1
100
AcDbLine
 10
-960.0000000000001
 20
843.5000000000001
 11
-925
 21
843.5000000000003
  0
LINE
  5
D2
100
AcDbEntity
  8
VEROULLAGE
  6
ByLayer
 62
  256
370
   -1
100
AcDbLine
 10
-960
 20
845
 11
-926
 21
845
  0
LINE
  5
D3
100
AcDbEntity
  8
VEROULLAGE
  6
ByLayer
 62
  256
370
   -1
100
AcDbLine
 10
-926.0000000000001
 20
855
 11
-960
 21
855
  0
LINE
  5
D4
100
AcDbEntity
  8
VEROULLAGE
  6
ByLayer
 62
  256
370
   -1
100
AcDbLine
 10
-960.0000000000001
 20
856.5
 11
-925
 21
856.5000000000001
  0
LINE
  5
D5
100
AcDbEntity
  8
VEROULLAGE
  6
ByLayer
 62
  256
370
   -1
100
AcDbLine
 10
-960.0000000000001
 20
856.5
 11
-960.0000000000001
 21
843.5000000000001
  0
LINE
  5
D6
100
AcDbEntity
  8
VEROULLAGE
  6
ByLayer
 62
  256
370
   -1
100
AcDbLine
 10
-873.9999999999999
 20
855
 11
-874
 21
845
  0
LINE
  5
D7
100
AcDbEntity
  8
VEROULLAGE
  6
ByLayer
 62
  256
370
   -1
100
AcDbLine
 10
-873
 20
845
 11
-873
 21
855
  0
LINE
  5
D8
100
AcDbEntity
  8
VEROULLAGE
  6
ByLayer
 62
  256
370
   -1
100
AcDbLine
 10
-874
 20
845
 11
-849
 21
845
  0
LINE
  5
D9
100
AcDbEntity
  8
VEROULLAGE
  6
ByLayer
 62
  256
370
   -1
100
AcDbLine
 10
-849
 20
845
 11
-849
 21
855
  0
LINE
  5
DA
100
AcDbEntity
  8
VEROULLAGE
  6
ByLayer
 62
  256
370
   -1
100
AcDbLine
 10
-849
 20
855
 11
-874
 21
855
  0
LINE
  5
DB
100
AcDbEntity
  8
VEROULLAGE
  6
ByLayer
 62
  256
370
   -1
100
AcDbLine
 10
-874.0000000000001
 20
856.5
 11
-874
 21
855
  0
LINE
  5
DC
100
AcDbEntity
  8
VEROULLAGE
  6
ByLayer
 62
  256
370
   -1
100
AcDbLine
 10
-874
 20
845
 11
-874
 21
845
  0
LINE
  5
DD
100
AcDbEntity
  8
VEROULLAGE
  6
ByLayer
 62
  256
370
   -1
100
AcDbLine
 10
-874
 20
845
 11
-874
 21
843.5
  0
LINE
  5
DE
100
AcDbEntity
  8
VEROULLAGE
  6
ByLayer
 62
  256
370
   -1
100
AcDbLine
 10
-839.9999999999999
 20
843.5000000000001
 11
-875
 21
843.5000000000003
  0
LINE
  5
DF
100
AcDbEntity
  8
VEROULLAGE
  6
ByLayer
 62
  256
370
   -1
100
AcDbLine
 10
-840
 20
845
 11
-874
 21
845
  0
LINE
  5
E0
100
AcDbEntity
  8
VEROULLAGE
  6
ByLayer
 62
  256
370
   -1
100
AcDbLine
 10
-873.9999999999999
 20
855
 11
-840
 21
855
  0
LINE
  5
E1
100
AcDbEntity
  8
VEROULLAGE
  6
ByLayer
 62
  256
370
   -1
100
AcDbLine
 10
-839.9999999999999
 20
856.5
 11
-875
 21
856.5000000000001
  0
LINE
  5
E2
100
AcDbEntity
  8
VEROULLAGE
  6
ByLayer
 62
  256
370
   -1
100
AcDbLine
 10
-839.9999999999999
 20
856.5
 11
-839.9999999999999
 21
843.5000000000001
  0
CIRCLE
  5
E3
100
AcDbEntity
  8
VEROULLAGE
  6
ByLayer
 62
  256
370
   -1
100
AcDbCircle
 10
-1100
 20
850
 40
15
  0
LINE
  5
E4
100
AcDbEntity
  8
VEROULLAGE
  6
ByLayer
 62
  256
370
   -1
100
AcDbLine
 10
-1105
 20
856
 11
-1095
 21
856
  0
LINE
  5
E5
100
AcDbEntity
  8
VEROULLAGE
  6
ByLayer
 62
  256
370
   -1
100
AcDbLine
 10
-1095
 20
856
 11
-1095
 21
844
  0
LINE
  5
E6
100
AcDbEntity
  8
VEROULLAGE
  6
ByLayer
 62
  256
370
   -1
100
AcDbLine
 10
-1095
 20
844
 11
-1105
 21
844
  0
LINE
  5
E7
100
AcDbEntity
  8
VEROULLAGE
  6
ByLayer
 62
  256
370
   -1
100
AcDbLine
 10
-1105
 20
844
 11
-1105
 21
856
  0
LINE
  5
E8
100
AcDbEntity
  8
VEROULLAGE
  6
ByLayer
 62
  256
370
   -1
100
AcDbLine
 10
-1095
 20
856
 11
-1108.5
 21
856
  0
LINE
  5
E9
100
AcDbEntity
  8
VEROULLAGE
  6
ByLayer
 62
  256
370
   -1
100
AcDbLine
 10
-1108.5
 20
856
 11
-1108.5
 21
857.5
  0
LINE
  5
EA
100
AcDbEntity
  8
VEROULLAGE
  6
ByLayer
 62
  256
370
   -1
100
AcDbLine
 10
-1108.5
 20
857.5
 11
-1093.5
 21
857.5000000000001
  0
LINE
  5
EB
100
AcDbEntity
  8
VEROULLAGE
  6
ByLayer
 62
  256
370
   -1
100
AcDbLine
 10
-1093.5
 20
857.5000000000001
 11
-1093.5
 21
842.5000000000001
  0
LINE
  5
EC
100
AcDbEntity
  8
VEROULLAGE
  6
ByLayer
 62
  256
370
   -1
100
AcDbLine
 10
-1093.5
 20
842.5000000000001
 11
-1108.5
 21
842.5
  0
LINE
  5
ED
100
AcDbEntity
  8
VEROULLAGE
  6
ByLayer
 62
  256
370
   -1
100
AcDbLine
 10
-1108.5
 20
842.5
 11
-1108.5
 21
844
  0
LINE
  5
EE
100
AcDbEntity
  8
VEROULLAGE
  6
ByLayer
 62
  256
370
   -1
100
AcDbLine
 10
-1108.5
 20
844
 11
-1095
 21
844
  0
LINE
  5
EF
100
AcDbEntity
  8
VEROULLAGE
  6
ByLayer
 62
  256
370
   -1
100
AcDbLine
 10
-1095
 20
844
 11
-1095
 21
856
  0
LINE
  5
F0
100
AcDbEntity
  8
VEROULLAGE2
  6
ByLayer
 62
  256
370
   -1
100
AcDbLine
 10
-1080
 20
854
 11
-1093.5
 21
854.0000000000001
  0
LINE
  5
F1
100
AcDbEntity
  8
VEROULLAGE2
  6
ByLayer
 62
  256
370
   -1
100
AcDbLine
 10
-1093.5
 20
854.0000000000001
 11
-1093.5
 21
846
  0
LINE
  5
F2
100
AcDbEntity
  8
VEROULLAGE2
  6
ByLayer
 62
  256
370
   -1
100
AcDbLine
 10
-1093.5
 20
846
 11
-1080
 21
846
  0
LINE
  5
F3
100
AcDbEntity
  8
VEROULLAGE2
  6
ByLayer
 62
  256
370
   -1
100
AcDbLine
 10
-1080
 20
846
 11
-1080
 21
854
  0
LWPOLYLINE
  5
F4
100
AcDbEntity
  8
VEROULLAGE2
  6
ByLayer
 62
  256
370
   -1
100
AcDbPolyline
 90
    4
 70
    1
 43
0
 10
-1108.5
 20
865.5000000000001
 10
-1108.5
 20
857.5
 10
-1080
 20
857.5
 10
-1080
 20
865.5000000000001
  0
LWPOLYLINE
  5
F5
100
AcDbEntity
  8
VEROULLAGE2
  6
ByLayer
 62
  256
370
   -1
100
AcDbPolyline
 90
    4
 70
    1
 43
0
 10
-1108.5
 20
834.4999999999999
 10
-1108.5
 20
842.5
 10
-1080
 20
842.5
 10
-1080
 20
834.4999999999999
  0
DIMENSION
  5
F6
100
AcDbEntity
  8
VEROULLAGE2
  6
ByLayer
 62
  256
370
   -1
100
AcDbDimension
  2
*D1
 10
-839.9999999999999
 20
890
 30
0
 11
-900
 21
894.6875
 31
0
 70
   32
 71
    5
 72
    0
  3
Standard
 53
0
210
0
220
0
230
1
100
AcDbAlignedDimension
 13
-960.0000000000001
 23
856.5
 33
0
 14
-839.9999999999999
 24
856.5
 34
0
100
AcDbRotatedDimension
  0
DIMENSION
  5
F7
100
AcDbEntity
  8
VEROULLAGE2
  6
ByLayer
 62
  256
370
   -1
100
AcDbDimension
  2
*D2
 10
-980
 20
845
 30
0
 11
-984.6875
 21
850
 31
0
 70
   32
 71
    5
 72
    0
  3
Standard
 53
0
210
0
220
0
230
1
100
AcDbAlignedDimension
 13
-960
 23
855
 33
0
 14
-960
 24
845
 34
0
 50
90
100
AcDbRotatedDimension
  0
CIRCLE
  5
F8
100
AcDbEntity
  8
VEROULLAGE2
  6
ByLayer
 62
  256
370
   -1
100
AcDbCircle
 10
94.00000000000006
 20
288.0000000000001
 40
2.000000000000015
  0
CIRCLE
  5
F9
100
AcDbEntity
  8
VEROULLAGE
  6
ByLayer
 62
  256
370
   -1
100
AcDbCircle
 10
1094
 20
400
 40
3
  0
LWPOLYLINE
  5
FA
100
AcDbEntity
  8
VEROULLAGE2
  6
ByLayer
 62
  256
370
   -1
100
AcDbPolyline
 90
   60
 70
    1
 43
0
 10
960
 20
200
 10
1000
 20
200
 10
1040
 20
200
 10
1040
 20
280
 10
1030.97464253561
 20
286.9084068658362
 10
1030.97464253561
 20
293.0915931341638
 10
1016.919007543523
 20
297.8989034286906
 10
1016.919007543523
 20
304.1010965713094
 10
1030.97464253561
 20
308.9084068658362
 10
1030.97464253561
 20
315.0915931341638
 10
1016.919007543523
 20
319.8989034286906
 10
1016.919007543523
 20
326.1010965713094
 10
1030.97464253561
 20
330.9084068658362
 10
1030.97464253561
 20
337.0915931341638
 10
1016.919007543523
 20
341.8989034286906
 10
1016.919007543523
 20
348.1010965713094
 10
1030.97464253561
 20
352.9084068658362
 10
1030.97464253561
 20
359.0915931341638
 10
1016.919007543523
 20
363.8989034286906
 10
1016.919007543523
 20
370.1010965713094
 10
1030.97464253561
 20
374.9084068658362
 10
1030.97464253561
 20
381.0915931341638
 10
1016.919007543523
 20
385.8989034286906
 10
1016.919007543523
 20
392.1010965713094
 10
1030.97464253561
 20
396.9084068658362
 10
1030.97464253561
 20
403.0915931341638
 10
1016.919007543523
 20
407.8989034286906
 10
1016.919007543523
 20
414.1010965713094
 10
1030.97464253561
 20
418.9084068658362
 10
1030.97464253561
 20
425.0915931341638
 10
1016.919007543523
 20
429.8989034286906
 10
1000
 20
430
 10
983.0809924564774
 20
429.8989034286906
 10
969.0253574643905
 20
425.0915931341638
 10
969.0253574643905
 20
418.9084068658362
 10
983.0809924564774
 20
414.1010965713094
 10
983.0809924564774
 20
407.8989034286906
 10
969.0253574643905
 20
403.0915931341638
 10
969.0253574643905
 20
396.9084068658362
 10
983.0809924564774
 20
392.1010965713094
 10
983.0809924564774
 20
385.8989034286906
 10
969.0253574643905
 20
381.0915931341638
 10
969.0253574643905
 20
374.9084068658362
 10
983.0809924564774
 20
370.1010965713094
 10
983.0809924564774
 20
363.8989034286906
 10
969.0253574643905
 20
359.0915931341638
 10
969.0253574643905
 20
352.9084068658362
 10
983.0809924564774
 20
348.1010965713094
 10
983.0809924564774
 20
341.8989034286906
 10
969.0253574643905
 20
337.0915931341638
 10
969.0253574643905
 20
330.9084068658362
 10
983.0809924564774
 20
326.1010965713094
 10
983.0809924564774
 20
319.8989034286906
 10
969.0253574643905
 20
315.0915931341638
 10
969.0253574643905
 20
308.9084068658362
 10
983.0809924564774
 20
304.1010965713094
 10
983.0809924564774
 20
297.8989034286906
 10
969.0253574643905
 20
293.0915931341638
 10
969.0253574643905
 20
286.9084068658362
 10
960
 20
280
  0
LWPOLYLINE
  5
FB
100
AcDbEntity
  8
VEROULLAGE2
  6
ByLayer
 62
  256
370
   -1
100
AcDbPolyline
 90
  112
 70
    1
 43
0
 10
1024.684884169501
 20
405.2827238584919
 10
1026.413806817727
 20
404.6913974865465
 10
1027.486087265318
 20
404.4461724816094
 10
1028.703913806495
 20
404.2991934680456
 10
1030.277542749173
 20
403.8077810175589
 10
1031.024642535609
 20
403.1143987934654
 10
1031.024642535609
 20
396.8856012065346
 10
1030.277542749173
 20
396.19221898244
 10
1028.703913806495
 20
395.7008065319553
 10
1027.486087265318
 20
395.5538275183902
 10
1026.413806817727
 20
395.3086025134535
 10
1024.684884169501
 20
394.7172761415081
 10
1022.367465586998
 20
393.6424647291442
 10
1019.550913189807
 20
391.9580130598697
 10
1017.710599236722
 20
390.5771841155588
 10
1017.917386886265
 20
387.9496979035529
 10
1018.532658036674
 20
385.3869091222134
 10
1020.709600223896
 20
384.6423510433278
 10
1023.908824926745
 20
383.9107048631585
 10
1026.444955962786
 20
383.6046201907145
 10
1028.271989011706
 20
383.5765018716804
 10
1029.367567012654
 20
383.6746319138178
 10
1030.571207893365
 20
383.911175662634
 10
1032.219672751978
 20
383.9300927355379
 10
1033.144473763033
 20
383.5015135835332
 10
1035.069278071916
 20
377.5775750497991
 10
1034.573010842546
 20
376.6872628367881
 10
1033.228255580829
 20
375.7336237374382
 10
1032.115452726133
 20
375.2175092914038
 10
1031.171432113127
 20
374.6529335714587
 10
1029.709858860514
 20
373.5562822919013
 10
1027.83799780881
 20
371.8179541693104
 10
1025.679821489984
 20
369.3455828765832
 10
1024.356278522991
 20
367.4636482247188
 10
1025.364883156574
 20
365.0286612392506
 10
1026.741986079885
 20
362.7814335104943
 10
1029.042462232316
 20
362.7460288294336
 10
1032.311196836594
 20
363.0388067641655
 10
1034.817786150103
 20
363.5314105319981
 10
1036.564086875199
 20
364.0692526828541
 10
1037.575719621431
 20
364.5011321198296
 10
1038.647354086014
 20
365.0980440807945
 10
1040.20929163467
 20
365.6254389421899
 10
1041.221267903914
 20
365.5036151757589
 10
1044.882463265027
 20
360.4644120734101
 10
1044.685606686831
 20
359.4643198340622
 10
1043.701359120552
 20
358.1418029252859
 10
1042.802508849109
 20
357.3070739247407
 10
1042.079155385667
 20
356.4784120948859
 10
1041.028000502013
 20
354.9837837757782
 10
1039.784927782871
 20
352.7520986112439
 10
1038.496384877396
 20
349.7338206232198
 10
1037.819170503769
 20
347.5349971397361
 10
1039.530862872495
 20
345.530862872495
 10
1041.534997139736
 20
343.819170503769
 10
1043.733820623215
 20
344.4963848773941
 10
1046.752098611243
 20
345.784927782872
 10
1048.983783775778
 20
347.0280005020135
 10
1050.478412094886
 20
348.0791553856673
 10
1051.307073924741
 20
348.8025088491086
 10
1052.141802925285
 20
349.7013591205528
 10
1053.464319834063
 20
350.6856066868304
 10
1054.46441207341
 20
350.8824632650273
 10
1059.503615175759
 20
347.2212679039144
 10
1059.625438942191
 20
346.2092916346692
 10
1059.098044080794
 20
344.6473540860146
 10
1058.50113211983
 20
343.575719621431
 10
1058.069252682854
 20
342.5640868751991
 10
1057.531410531998
 20
340.8177861501033
 10
1057.038806764165
 20
338.3111968365949
 10
1056.746028829433
 20
335.0424622323211
 10
1056.781433510494
 20
332.7419860798855
 10
1059.028661239251
 20
331.3648831565737
 10
1061.463648224719
 20
330.3562785229908
 10
1063.345582876579
 20
331.6798214899814
 10
1065.81795416931
 20
333.8379978088106
 10
1067.556282291901
 20
335.7098588605145
 10
1068.652933571459
 20
337.1714321131274
 10
1069.217509291404
 20
338.1154527261329
 10
1069.733623737437
 20
339.2282555808293
 10
1070.687262836789
 20
340.5730108425458
 10
1071.577575049799
 20
341.0692780719164
 10
1077.501513583533
 20
339.144473763033
 10
1077.930092735539
 20
338.2196727519776
 10
1077.911175662633
 20
336.5712078933658
 10
1077.674631913818
 20
335.3675670126536
 10
1077.57650187168
 20
334.2719890117056
 10
1077.604620190714
 20
332.4449559627866
 10
1077.910704863158
 20
329.9088249267451
 10
1078.642351043326
 20
326.709600223901
 10
1079.386909122213
 20
324.5326580366738
 10
1081.949697903553
 20
323.9173868862653
 10
1084.577184115559
 20
323.7105992367223
 10
1115.277705999368
 20
312.4664995582272
 42
0.5213923272936372
 10
1122
 20
317.1605067349779
 10
1122
 20
338
 10
1105
 20
338
 42
-0.414213562373095
 10
1100
 20
343
 10
1100
 20
400.0000000000001
 42
0.3690576748226322
 10
1094.935723342497
 20
405.9265860177935
 10
1030.571207893366
 20
416.0888243373669
 10
1029.367567012654
 20
416.3253680861819
 10
1028.271989011706
 20
416.4234981283198
 10
1026.444955962786
 20
416.3953798092856
 10
1023.908824926745
 20
416.0892951368421
 10
1020.709600223901
 20
415.3576489566738
 10
1018.532658036674
 20
414.6130908777866
 10
1018.532658036674
 20
414.6130908777866
 10
1017.917386886265
 20
412.050302096447
 10
1017.710599236722
 20
409.4228158844412
 10
1019.550913189803
 20
408.0419869401335
 10
1022.367465586998
 20
406.3575352708565
  0
LWPOLYLINE
  5
FC
100
AcDbEntity
  8
VEROULLAGE2
  6
ByLayer
 62
  256
370
   -1
100
AcDbPolyline
 90
  112
 70
    1
 43
0
 10
975.3151158304991
 20
405.2827238584919
 10
973.5861931822726
 20
404.6913974865465
 10
972.5139127346822
 20
404.4461724816094
 10
971.2960861935046
 20
404.2991934680456
 10
969.7224572508269
 20
403.8077810175589
 10
968.9753574643905
 20
403.1143987934654
 10
968.9753574643908
 20
396.8856012065346
 10
969.7224572508267
 20
396.19221898244
 10
971.2960861935048
 20
395.7008065319553
 10
972.5139127346822
 20
395.5538275183902
 10
973.5861931822728
 20
395.3086025134535
 10
975.3151158304991
 20
394.7172761415081
 10
977.6325344130021
 20
393.6424647291442
 10
980.4490868101927
 20
391.9580130598697
 10
982.2894007632779
 20
390.5771841155588
 10
982.0826131137349
 20
387.9496979035529
 10
981.4673419633264
 20
385.3869091222134
 10
979.2903997761039
 20
384.6423510433278
 10
976.091175073255
 20
383.9107048631585
 10
973.5550440372135
 20
383.6046201907145
 10
971.7280109882943
 20
383.5765018716804
 10
970.6324329873462
 20
383.6746319138178
 10
969.4287921066345
 20
383.911175662634
 10
967.7803272480223
 20
383.9300927355379
 10
966.8555262369671
 20
383.5015135835332
 10
964.9307219280838
 20
377.5775750497991
 10
965.4269891574538
 20
376.6872628367881
 10
966.771744419171
 20
375.7336237374382
 10
967.8845472738672
 20
375.2175092914038
 10
968.8285678868729
 20
374.6529335714587
 10
970.2901411394855
 20
373.5562822919013
 10
972.1620021911897
 20
371.8179541693104
 10
974.3201785100157
 20
369.3455828765832
 10
975.6437214770092
 20
367.4636482247188
 10
974.6351168434264
 20
365.0286612392506
 10
973.2580139201145
 20
362.7814335104943
 10
970.957537767684
 20
362.7460288294336
 10
967.6888031634055
 20
363.0388067641655
 10
965.1822138498969
 20
363.5314105319981
 10
963.4359131248009
 20
364.0692526828541
 10
962.4242803785689
 20
364.5011321198296
 10
961.352645913986
 20
365.0980440807945
 10
959.7907083653304
 20
365.6254389421899
 10
958.7787320960856
 20
365.5036151757589
 10
955.1175367349729
 20
360.4644120734101
 10
955.3143933131689
 20
359.4643198340622
 10
956.2986408794479
 20
358.1418029252859
 10
957.1974911508914
 20
357.3070739247407
 10
957.920844614333
 20
356.4784120948859
 10
958.9719994979866
 20
354.9837837757782
 10
960.2150722171286
 20
352.7520986112439
 10
961.5036151226043
 20
349.7338206232198
 10
962.1808294962309
 20
347.5349971397361
 10
960.4691371275051
 20
345.530862872495
 10
958.4650028602639
 20
343.819170503769
 10
956.2661793767852
 20
344.4963848773941
 10
953.2479013887566
 20
345.784927782872
 10
951.016216224222
 20
347.0280005020135
 10
949.5215879051141
 20
348.0791553856673
 10
948.692926075259
 20
348.8025088491086
 10
947.8581970747148
 20
349.7013591205528
 10
946.535680165937
 20
350.6856066868304
 10
945.5355879265899
 20
350.8824632650273
 10
940.4963848242412
 20
347.2212679039144
 10
940.3745610578092
 20
346.2092916346692
 10
940.9019559192063
 20
344.6473540860146
 10
941.4988678801703
 20
343.575719621431
 10
941.9307473171459
 20
342.5640868751991
 10
942.4685894680022
 20
340.8177861501033
 10
942.961193235835
 20
338.3111968365949
 10
943.2539711705665
 20
335.0424622323211
 10
943.2185664895057
 20
332.7419860798855
 10
940.9713387607494
 20
331.3648831565737
 10
938.5363517752812
 20
330.3562785229908
 10
936.6544171234211
 20
331.6798214899814
 10
934.1820458306902
 20
333.8379978088106
 10
932.4437177080988
 20
335.7098588605146
 10
931.3470664285412
 20
337.1714321131274
 10
930.782490708596
 20
338.1154527261328
 10
930.2663762625627
 20
339.2282555808293
 10
929.3127371632111
 20
340.5730108425458
 10
928.422424950201
 20
341.0692780719164
 10
922.4984864164669
 20
339.144473763033
 10
922.0699072644611
 20
338.2196727519776
 10
922.088824337367
 20
336.5712078933658
 10
922.3253680861819
 20
335.3675670126536
 10
922.4234981283198
 20
334.2719890117056
 10
922.3953798092857
 20
332.4449559627866
 10
922.0892951368421
 20
329.9088249267451
 10
921.3576489566738
 20
326.709600223901
 10
920.6130908777866
 20
324.5326580366738
 10
918.0503020964472
 20
323.9173868862653
 10
915.4228158844412
 20
323.7105992367223
 10
884.7222940006318
 20
312.4664995582272
 42
-0.5213923272936466
 10
878
 20
317.1605067349779
 10
878
 20
338
 10
895
 20
338
 42
0.414213562373095
 10
900
 20
343
 10
900
 20
400.0000000000001
 42
-0.3690576748226323
 10
905.0642766575029
 20
405.9265860177935
 10
969.4287921066343
 20
416.0888243373669
 10
970.6324329873464
 20
416.3253680861819
 10
971.7280109882945
 20
416.4234981283198
 10
973.5550440372135
 20
416.3953798092856
 10
976.091175073255
 20
416.0892951368421
 10
979.2903997760991
 20
415.3576489566738
 10
981.4673419633264
 20
414.6130908777866
 10
981.4673419633264
 20
414.6130908777866
 10
982.0826131137349
 20
412.050302096447
 10
982.2894007632779
 20
409.4228158844412
 10
980.4490868101968
 20
408.0419869401335
 10
977.6325344130018
 20
406.3575352708565
  0
CIRCLE
  5
FD
100
AcDbEntity
  8
VEROULLAGE
  6
ByLayer
 62
  256
370
   -1
100
AcDbCircle
 10
906
 20
400
 40
3
  0
CIRCLE
  5
FE
100
AcDbEntity
  8
VEROULLAGE
  6
ByLayer
 62
  256
370
   -1
100
AcDbCircle
 10
94
 20
288.0000000000001
 40
3
  0
LWPOLYLINE
  5
FF
100
AcDbEntity
  8
VEROULLAGE2
  6
ByLayer
 62
  256
370
   -1
100
AcDbPolyline
 90
  112
 70
    1
 43
0
 10
24.68488416950095
 20
293.2827238584919
 10
26.41380681772739
 20
292.6913974865466
 10
27.48608726531779
 20
292.4461724816095
 10
28.70391380649539
 20
292.2991934680456
 10
30.27754274917311
 20
291.807781017559
 10
31.02464253560947
 20
291.1143987934655
 10
31.02464253560925
 20
284.8856012065347
 10
30.27754274917334
 20
284.19221898244
 10
28.70391380649517
 20
283.7008065319554
 10
27.48608726531779
 20
283.5538275183903
 10
26.41380681772716
 20
283.3086025134535
 10
24.68488416950095
 20
282.7172761415082
 10
22.36746558699792
 20
281.6424647291443
 10
19.55091318980726
 20
279.9580130598698
 10
17.71059923672215
 20
278.5771841155589
 10
17.91738688626515
 20
275.9496979035529
 10
18.53265803667364
 20
273.3869091222134
 10
20.70960022389613
 20
272.6423510433279
 10
23.90882492674496
 20
271.9107048631586
 10
26.44495596278648
 20
271.6046201907146
 10
28.27198901170573
 20
271.5765018716804
 10
29.36756701265381
 20
271.6746319138179
 10
30.57120789336545
 20
271.911175662634
 10
32.21967275197767
 20
271.9300927355379
 10
33.14447376303292
 20
271.5015135835333
 10
35.06927807191619
 20
265.5775750497991
 10
34.57301084254618
 20
264.6872628367881
 10
33.228255580829
 20
263.7336237374383
 10
32.11545272613284
 20
263.2175092914039
 10
31.17143211312714
 20
262.6529335714588
 10
29.70985886051449
 20
261.5562822919014
 10
27.83799780881031
 20
259.8179541693104
 10
25.67982148998431
 20
257.3455828765833
 10
24.35627852299081
 20
255.4636482247189
 10
25.36488315657357
 20
253.0286612392507
 10
26.74198607988546
 20
250.7814335104944
 10
29.04246223231598
 20
250.7460288294336
 10
32.31119683659449
 20
251.0388067641655
 10
34.81778615010307
 20
251.5314105319981
 10
36.56408687519911
 20
252.0692526828542
 10
37.57571962143106
 20
252.5011321198297
 10
38.64735408601405
 20
253.0980440807945
 10
40.20929163466963
 20
253.62543894219
 10
41.22126790391439
 20
253.503615175759
 10
44.88246326502713
 20
248.4644120734102
 10
44.68560668683108
 20
247.4643198340622
 10
43.70135912055207
 20
246.141802925286
 10
42.80250884910856
 20
245.3070739247408
 10
42.07915538566704
 20
244.478412094886
 10
41.02800050201336
 20
242.9837837757783
 10
39.78492778287136
 20
240.7520986112439
 10
38.49638487739571
 20
237.7338206232199
 10
37.8191705037691
 20
235.5349971397362
 10
39.53086287249494
 20
233.5308628724951
 10
41.53499713973611
 20
231.819170503769
 10
43.7338206232148
 20
232.4963848773942
 10
46.75209861124335
 20
233.784927782872
 10
48.98378377577797
 20
235.0280005020135
 10
50.47841209488593
 20
236.0791553856673
 10
51.30707392474096
 20
236.8025088491086
 10
52.14180292528522
 20
237.7013591205528
 10
53.46431983406296
 20
238.6856066868305
 10
54.46441207341013
 20
238.8824632650274
 10
59.5036151757588
 20
235.2212679039145
 10
59.62543894219084
 20
234.2092916346692
 10
59.09804408079367
 20
232.6473540860146
 10
58.50113211982966
 20
231.5757196214311
 10
58.06925268285408
 20
230.5640868751992
 10
57.53141053199784
 20
228.8177861501034
 10
57.03880676416497
 20
226.3111968365949
 10
56.7460288294335
 20
223.0424622323212
 10
56.78143351049425
 20
220.7419860798855
 10
59.0286612392506
 20
219.3648831565738
 10
61.46364822471878
 20
218.3562785229909
 10
63.34558287657887
 20
219.6798214899814
 10
65.81795416930981
 20
221.8379978088107
 10
67.5562822919012
 20
223.7098588605146
 10
68.65293357145879
 20
225.1714321131274
 10
69.21750929140399
 20
226.115452726133
 10
69.73362373743726
 20
227.2282555808294
 10
70.68726283678893
 20
228.5730108425459
 10
71.57757504979895
 20
229.0692780719165
 10
77.5015135835331
 20
227.1444737630331
 10
77.93009273553889
 20
226.2196727519777
 10
77.91117566263301
 20
224.5712078933659
 10
77.67463191381808
 20
223.3675670126537
 10
77.57650187168019
 20
222.2719890117057
 10
77.60462019071429
 20
220.4449559627867
 10
77.91070486315789
 20
217.9088249267451
 10
78.64235104332624
 20
214.7096002239011
 10
79.38690912221341
 20
212.5326580366738
 10
81.94969790355276
 20
211.9173868862654
 10
84.57718411555879
 20
211.7105992367224
 10
115.2777059993682
 20
200.4664995582273
 42
0.5213923272936482
 10
122
 20
205.160506734978
 10
122
 20
226.0000000000001
 10
105
 20
226.0000000000001
 42
-0.414213562373095
 10
100
 20
231.0000000000001
 10
99.99999999999994
 20
288.0000000000002
 42
0.3690576748226316
 10
94.93572334249711
 20
293.9265860177936
 10
30.57120789336568
 20
304.0888243373669
 10
29.36756701265358
 20
304.325368086182
 10
28.2719890117055
 20
304.4234981283199
 10
26.44495596278648
 20
304.3953798092857
 10
23.90882492674496
 20
304.0892951368422
 10
20.70960022390091
 20
303.3576489566738
 10
18.53265803667364
 20
302.6130908777866
 10
18.53265803667364
 20
302.6130908777866
 10
17.91738688626515
 20
300.0503020964471
 10
17.71059923672215
 20
297.4228158844413
 10
19.55091318980317
 20
296.0419869401335
 10
22.36746558699815
 20
294.3575352708565
  0
LWPOLYLINE
  5
100
100
AcDbEntity
  8
VEROULLAGE2
  6
ByLayer
 62
  256
370
   -1
100
AcDbPolyline
 90
  112
 70
    1
 43
0
 10
-24.68488416950095
 20
293.2827238584919
 10
-26.41380681772739
 20
292.6913974865466
 10
-27.48608726531779
 20
292.4461724816095
 10
-28.70391380649539
 20
292.2991934680456
 10
-30.27754274917311
 20
291.807781017559
 10
-31.02464253560947
 20
291.1143987934655
 10
-31.02464253560925
 20
284.8856012065347
 10
-30.27754274917334
 20
284.19221898244
 10
-28.70391380649517
 20
283.7008065319554
 10
-27.48608726531779
 20
283.5538275183903
 10
-26.41380681772716
 20
283.3086025134535
 10
-24.68488416950095
 20
282.7172761415082
 10
-22.36746558699792
 20
281.6424647291443
 10
-19.55091318980726
 20
279.9580130598698
 10
-17.71059923672215
 20
278.5771841155589
 10
-17.91738688626515
 20
275.9496979035529
 10
-18.53265803667364
 20
273.3869091222134
 10
-20.70960022389613
 20
272.6423510433279
 10
-23.90882492674496
 20
271.9107048631586
 10
-26.44495596278648
 20
271.6046201907146
 10
-28.27198901170573
 20
271.5765018716804
 10
-29.36756701265381
 20
271.6746319138179
 10
-30.57120789336545
 20
271.911175662634
 10
-32.21967275197767
 20
271.9300927355379
 10
-33.14447376303292
 20
271.5015135835333
 10
-35.06927807191619
 20
265.5775750497991
 10
-34.57301084254618
 20
264.6872628367881
 10
-33.228255580829
 20
263.7336237374383
 10
-32.11545272613284
 20
263.2175092914039
 10
-31.17143211312714
 20
262.6529335714588
 10
-29.70985886051449
 20
261.5562822919014
 10
-27.83799780881031
 20
259.8179541693104
 10
-25.67982148998431
 20
257.3455828765833
 10
-24.35627852299081
 20
255.4636482247189
 10
-25.36488315657357
 20
253.0286612392507
 10
-26.74198607988546
 20
250.7814335104944
 10
-29.04246223231598
 20
250.7460288294336
 10
-32.31119683659449
 20
251.0388067641655
 10
-34.81778615010307
 20
251.5314105319981
 10
-36.56408687519911
 20
252.0692526828542
 10
-37.57571962143106
 20
252.5011321198297
 10
-38.64735408601405
 20
253.0980440807945
 10
-40.20929163466963
 20
253.62543894219
 10
-41.22126790391439
 20
253.503615175759
 10
-44.88246326502713
 20
248.4644120734102
 10
-44.68560668683108
 20
247.4643198340622
 10
-43.70135912055207
 20
246.141802925286
 10
-42.80250884910856
 20
245.3070739247408
 10
-42.07915538566704
 20
244.478412094886
 10
-41.02800050201336
 20
242.9837837757783
 10
-39.78492778287136
 20
240.7520986112439
 10
-38.49638487739571
 20
237.7338206232199
 10
-37.8191705037691
 20
235.5349971397362
 10
-39.53086287249494
 20
233.5308628724951
 10
-41.53499713973611
 20
231.819170503769
 10
-43.7338206232148
 20
232.4963848773942
 10
-46.75209861124335
 20
233.784927782872
 10
-48.98378377577797
 20
235.0280005020135
 10
-50.47841209488593
 20
236.0791553856673
 10
-51.30707392474096
 20
236.8025088491086
 10
-52.14180292528522
 20
237.7013591205528
 10
-53.46431983406296
 20
238.6856066868305
 10
-54.46441207341013
 20
238.8824632650274
 10
-59.5036151757588
 20
235.2212679039145
 10
-59.62543894219084
 20
234.2092916346692
 10
-59.09804408079367
 20
232.6473540860147
 10
-58.50113211982966
 20
231.5757196214311
 10
-58.06925268285408
 20
230.5640868751992
 10
-57.53141053199784
 20
228.8177861501034
 10
-57.03880676416497
 20
226.3111968365949
 10
-56.7460288294335
 20
223.0424622323212
 10
-56.78143351049425
 20
220.7419860798855
 10
-59.0286612392506
 20
219.3648831565738
 10
-61.46364822471878
 20
218.3562785229909
 10
-63.34558287657887
 20
219.6798214899814
 10
-65.81795416930981
 20
221.8379978088107
 10
-67.5562822919012
 20
223.7098588605147
 10
-68.65293357145879
 20
225.1714321131274
 10
-69.21750929140399
 20
226.1154527261329
 10
-69.73362373743726
 20
227.2282555808294
 10
-70.68726283678893
 20
228.5730108425459
 10
-71.57757504979895
 20
229.0692780719165
 10
-77.5015135835331
 20
227.1444737630331
 10
-77.93009273553889
 20
226.2196727519776
 10
-77.91117566263301
 20
224.5712078933659
 10
-77.67463191381808
 20
223.3675670126537
 10
-77.57650187168019
 20
222.2719890117057
 10
-77.60462019071429
 20
220.4449559627867
 10
-77.91070486315789
 20
217.9088249267451
 10
-78.64235104332624
 20
214.7096002239011
 10
-79.38690912221341
 20
212.5326580366738
 10
-81.94969790355276
 20
211.9173868862654
 10
-84.57718411555879
 20
211.7105992367224
 10
-115.2777059993682
 20
200.4664995582273
 42
-0.5213923272936484
 10
-122
 20
205.160506734978
 10
-122
 20
226.0000000000001
 10
-105
 20
226.0000000000001
 42
0.414213562373095
 10
-100
 20
231.0000000000001
 10
-99.99999999999994
 20
288.0000000000002
 42
-0.3690576748226316
 10
-94.93572334249711
 20
293.9265860177936
 10
-30.57120789336568
 20
304.0888243373669
 10
-29.36756701265358
 20
304.325368086182
 10
-28.2719890117055
 20
304.4234981283199
 10
-26.44495596278648
 20
304.3953798092857
 10
-23.90882492674496
 20
304.0892951368422
 10
-20.70960022390091
 20
303.3576489566738
 10
-18.53265803667364
 20
302.6130908777866
 10
-18.53265803667364
 20
302.6130908777866
 10
-17.91738688626515
 20
300.0503020964471
 10
-17.71059923672215
 20
297.4228158844413
 10
-19.55091318980317
 20
296.0419869401335
 10
-22.36746558699815
 20
294.3575352708565
  0
CIRCLE
  5
101
100
AcDbEntity
  8
VEROULLAGE
  6
ByLayer
 62
  256
370
   -1
100
AcDbCircle
 10
-94
 20
288.0000000000001
 40
3
  0
LWPOLYLINE
  5
102
100
AcDbEntity
  8
VEROULLAGE2
  6
ByLayer
 62
  256
370
   -1
100
AcDbPolyline
 90
   60
 70
    1
 43
0
 10
-40
 20
60
 10
0
 20
60
 10
40
 20
60
 10
40
 20
168.0000000000001
 10
30.97464253560952
 20
174.9084068658363
 10
30.97464253560952
 20
181.0915931341638
 10
16.91900754352264
 20
185.8989034286906
 10
16.91900754352264
 20
192.1010965713095
 10
30.97464253560952
 20
196.9084068658363
 10
30.97464253560952
 20
203.0915931341638
 10
16.91900754352264
 20
207.8989034286906
 10
16.91900754352264
 20
214.1010965713095
 10
30.97464253560952
 20
218.9084068658363
 10
30.97464253560952
 20
225.0915931341638
 10
16.91900754352264
 20
229.8989034286906
 10
16.91900754352264
 20
236.1010965713095
 10
30.97464253560952
 20
240.9084068658363
 10
30.97464253560952
 20
247.0915931341638
 10
16.91900754352264
 20
251.8989034286906
 10
16.91900754352264
 20
258.1010965713095
 10
30.97464253560952
 20
262.9084068658363
 10
30.97464253560952
 20
269.0915931341638
 10
16.91900754352264
 20
273.8989034286906
 10
16.91900754352264
 20
280.1010965713095
 10
30.97464253560952
 20
284.9084068658363
 10
30.97464253560952
 20
291.0915931341638
 10
16.91900754352264
 20
295.8989034286906
 10
16.91900754352264
 20
302.1010965713095
 10
30.97464253560952
 20
306.9084068658363
 10
30.97464253560952
 20
313.0915931341638
 10
16.91900754352264
 20
317.8989034286906
 10
0
 20
318.0000000000001
 10
-16.91900754352264
 20
317.8989034286906
 10
-30.97464253560952
 20
313.0915931341638
 10
-30.97464253560952
 20
306.9084068658363
 10
-16.91900754352264
 20
302.1010965713095
 10
-16.91900754352264
 20
295.8989034286906
 10
-30.97464253560952
 20
291.0915931341638
 10
-30.97464253560952
 20
284.9084068658363
 10
-16.91900754352264
 20
280.1010965713095
 10
-16.91900754352264
 20
273.8989034286906
 10
-30.97464253560952
 20
269.0915931341638
 10
-30.97464253560952
 20
262.9084068658363
 10
-16.91900754352264
 20
258.1010965713095
 10
-16.91900754352264
 20
251.8989034286906
 10
-30.97464253560952
 20
247.0915931341638
 10
-30.97464253560952
 20
240.9084068658363
 10
-16.91900754352264
 20
236.1010965713095
 10
-16.91900754352264
 20
229.8989034286906
 10
-30.97464253560952
 20
225.0915931341638
 10
-30.97464253560952
 20
218.9084068658363
 10
-16.91900754352264
 20
214.1010965713095
 10
-16.91900754352264
 20
207.8989034286906
 10
-30.97464253560952
 20
203.0915931341638
 10
-30.97464253560952
 20
196.9084068658363
 10
-16.91900754352264
 20
192.1010965713095
 10
-16.91900754352264
 20
185.8989034286906
 10
-30.97464253560952
 20
181.0915931341638
 10
-30.97464253560952
 20
174.9084068658363
 10
-40
 20
168.0000000000001
  0
LWPOLYLINE
  5
103
100
AcDbEntity
  8
GLISSIERE
  6
CONTINUOUS
 62
   96
370
   -3
100
AcDbPolyline
 90
   38
 70
    1
 43
0
 10
-230
 20
350
 10
-230
 20
250
 10
-220
 20
250
 10
-220
 20
227
 10
-230
 20
227
 10
-230
 20
150
 10
-220
 20
150
 10
-220
 20
130
 10
-230
 20
130
 10
-230
 20
40
 10
-220
 20
40
 10
-220
 20
20
 10
-230
 20
20
 10
-230
 20
0
 10
-241
 20
0
 10
-241
 20
205
 10
-239
 20
205
 10
-239
 20
227
 10
-251
 20
227
 10
-251
 20
250
 10
-241
 20
250
 10
-241
 20
670
 10
-230
 20
670
 10
-230
 20
650
 10
-220
 20
650
 10
-220
 20
630
 10
-230
 20
630
 10
-230
 20
580
 10
-220
 20
580
 10
-220
 20
560
 10
-230
 20
560
 10
-230
 20
480
 10
-220
 20
480
 10
-220
 20
460
 10
-230
 20
460
 10
-230
 20
370
 10
-220
 20
370
 10
-220
 20
350
  0
CIRCLE
  5
104
100
AcDbEntity
  8
VEROULLAGE2
  6
ByLayer
 62
  256
370
   -1
100
AcDbCircle
 10
0
 20
312
 40
2
  0
ENDSEC
  0
SECTION
  2
OBJECTS
  0
DICTIONARY
  5
C
330
0
100
AcDbDictionary
281
    1
  3
ACAD_GROUP
350
D
  0
DICTIONARY
  5
D
330
C
100
AcDbDictionary
281
    1
  0
ENDSEC
  0
EOF
